<svg width="495" height="444" viewBox="0 0 495 444" fill="none" xmlns="http://www.w3.org/2000/svg">
<rect width="488" height="35" fill="#2B9230"/>
<rect x="169.5" y="82.5" width="212" height="361" stroke="#2B9230"/>
<rect x="40.5" y="82.5" width="119" height="361" stroke="black" stroke-dasharray="2 2"/>
<path fill-rule="evenodd" clip-rule="evenodd" d="M45 97V413V414H46H382V413H46V97H45Z" fill="#949494"/>
<line x1="14" y1="301.5" x2="382" y2="301.5" stroke="#949494"/>
<line x1="14" y1="195.5" x2="382" y2="195.5" stroke="#949494"/>
<line x1="352.5" y1="390" x2="352.5" y2="414" stroke="#2B9230"/>
<line x1="350" y1="389.5" x2="355" y2="389.5" stroke="#2B9230"/>
<line x1="350" y1="413.5" x2="355" y2="413.5" stroke="#2B9230"/>
<line x1="259.5" y1="380" x2="259.5" y2="414" stroke="#2B9230"/>
<line x1="257" y1="379.5" x2="262" y2="379.5" stroke="#2B9230"/>
<line x1="257" y1="413.5" x2="262" y2="413.5" stroke="#2B9230"/>
<path d="M71.5 344L166.5 391L353 403.5" stroke="#2B9230"/>
<line x1="71.5" y1="328" x2="71.5" y2="362" stroke="#2B9230"/>
<line x1="69" y1="327.5" x2="74" y2="327.5" stroke="#2B9230"/>
<line x1="69" y1="361.5" x2="74" y2="361.5" stroke="#2B9230"/>
<line x1="165.5" y1="374" x2="165.5" y2="407" stroke="#2B9230"/>
<line x1="163" y1="373.5" x2="168" y2="373.5" stroke="#2B9230"/>
<line x1="163" y1="406.5" x2="168" y2="406.5" stroke="#2B9230"/>
<path d="M71 255L165 283L353 300.5" stroke="#2B9230"/>
<line x1="71.5" y1="243" x2="71.5" y2="267" stroke="#2B9230"/>
<line x1="69" y1="242.5" x2="74" y2="242.5" stroke="#2B9230"/>
<line x1="69" y1="266.5" x2="74" y2="266.5" stroke="#2B9230"/>
<line x1="259.5" y1="278" x2="259.5" y2="302" stroke="#2B9230"/>
<line x1="257" y1="277.5" x2="262" y2="277.5" stroke="#2B9230"/>
<line x1="257" y1="301.5" x2="262" y2="301.5" stroke="#2B9230"/>
<line x1="165.5" y1="272" x2="165.5" y2="296" stroke="#2B9230"/>
<line x1="163" y1="271.5" x2="168" y2="271.5" stroke="#2B9230"/>
<line x1="163" y1="295.5" x2="168" y2="295.5" stroke="#2B9230"/>
<line x1="259.5" y1="158" x2="259.5" y2="185" stroke="#2B9230"/>
<line x1="257" y1="157.5" x2="262" y2="157.5" stroke="#2B9230"/>
<line x1="257" y1="184.5" x2="262" y2="184.5" stroke="#2B9230"/>
<path d="M72 127.5L165.5 173H260L353 182.5" stroke="#2B9230"/>
<line x1="165.5" y1="153" x2="165.5" y2="187" stroke="#2B9230"/>
<line x1="163" y1="152.5" x2="168" y2="152.5" stroke="#2B9230"/>
<line x1="163" y1="186.5" x2="168" y2="186.5" stroke="#2B9230"/>
<line x1="353.5" y1="168" x2="353.5" y2="196" stroke="#2B9230"/>
<line x1="351" y1="167.5" x2="356" y2="167.5" stroke="#2B9230"/>
<line x1="351" y1="195.5" x2="356" y2="195.5" stroke="#2B9230"/>
<line x1="71.5" y1="118" x2="71.5" y2="137" stroke="#2B9230"/>
<line x1="69" y1="117.5" x2="74" y2="117.5" stroke="#2B9230"/>
<line x1="69" y1="136.5" x2="74" y2="136.5" stroke="#2B9230"/>
<path d="M72.5 334.5L166 397.5L260 385.5L354 383" stroke="black"/>
<line x1="72.5" y1="317" x2="72.5" y2="351" stroke="black"/>
<line x1="70" y1="316.5" x2="75" y2="316.5" stroke="black"/>
<line x1="70" y1="350.5" x2="75" y2="350.5" stroke="black"/>
<line x1="260.5" y1="368" x2="260.5" y2="414" stroke="black"/>
<line x1="258" y1="367.5" x2="263" y2="367.5" stroke="black"/>
<line x1="258" y1="413.5" x2="263" y2="413.5" stroke="black"/>
<line x1="353.5" y1="350" x2="353.5" y2="414" stroke="black"/>
<line x1="351" y1="349.5" x2="356" y2="349.5" stroke="black"/>
<line x1="351" y1="413.5" x2="356" y2="413.5" stroke="black"/>
<line x1="166.5" y1="385" x2="166.5" y2="414" stroke="black"/>
<line x1="164" y1="384.5" x2="169" y2="384.5" stroke="black"/>
<line x1="164" y1="413.5" x2="169" y2="413.5" stroke="black"/>
<path d="M71 238.5L165.5 282.5L259 278L353 272.5" stroke="black"/>
<line x1="71.5" y1="227" x2="71.5" y2="251" stroke="black"/>
<line x1="69" y1="226.5" x2="74" y2="226.5" stroke="black"/>
<line x1="69" y1="250.5" x2="74" y2="250.5" stroke="black"/>
<line x1="165.5" y1="267" x2="165.5" y2="301" stroke="black"/>
<line x1="163" y1="266.5" x2="168" y2="266.5" stroke="black"/>
<line x1="163" y1="300.5" x2="168" y2="300.5" stroke="black"/>
<line x1="259.5" y1="256" x2="259.5" y2="302" stroke="black"/>
<line x1="257" y1="255.5" x2="262" y2="255.5" stroke="black"/>
<line x1="257" y1="301.5" x2="262" y2="301.5" stroke="black"/>
<line x1="353.5" y1="247" x2="353.5" y2="297" stroke="black"/>
<line x1="351" y1="246.5" x2="356" y2="246.5" stroke="black"/>
<line x1="351" y1="296.5" x2="356" y2="296.5" stroke="black"/>
<path d="M72 120.5L166 173L259.5 161.5L353.5 163.5" stroke="black"/>
<line x1="71.5" y1="111" x2="71.5" y2="130" stroke="black"/>
<line x1="69" y1="110.5" x2="74" y2="110.5" stroke="black"/>
<line x1="69" y1="129.5" x2="74" y2="129.5" stroke="black"/>
<line x1="165.5" y1="155" x2="165.5" y2="189" stroke="black"/>
<line x1="163" y1="154.5" x2="168" y2="154.5" stroke="black"/>
<line x1="163" y1="188.5" x2="168" y2="188.5" stroke="black"/>
<line x1="259.5" y1="139" x2="259.5" y2="185" stroke="black"/>
<line x1="257" y1="138.5" x2="262" y2="138.5" stroke="black"/>
<line x1="257" y1="184.5" x2="262" y2="184.5" stroke="black"/>
<line x1="353.5" y1="136" x2="353.5" y2="192" stroke="black"/>
<line x1="351" y1="135.5" x2="356" y2="135.5" stroke="black"/>
<line x1="351" y1="191.5" x2="356" y2="191.5" stroke="black"/>
<path d="M327.556 425H328.276V419.348H330.391V418.7H325.441V419.348H327.556V425ZM331.61 425H332.276L335.048 421.319V425H335.741V420.347H335.066L332.303 424.028V420.347H331.61V425ZM336.694 425H337.504L339.052 422.831L339.997 423.866V425H340.69V423.866L341.635 422.831L343.183 425H343.993L342.085 422.336L343.894 420.347H343.057L340.69 423.047V420.347H339.997V423.047L337.63 420.347H336.793L338.602 422.336L336.694 425ZM344.259 426.161H344.826L344.952 425H348.714V426.161H349.29L349.398 424.388H348.696V420.347H345.384V421.157C345.384 422.723 345.141 423.695 344.763 424.388H344.259V426.161ZM345.501 424.388C345.825 423.785 346.05 422.759 346.05 421.607V420.959H348.003V424.388H345.501ZM352.382 425.108C353.264 425.108 353.831 424.757 354.299 424.235L353.867 423.848C353.489 424.244 353.039 424.505 352.4 424.505C351.581 424.505 350.861 423.938 350.762 422.957H354.452C354.461 422.849 354.461 422.777 354.461 422.714C354.461 421.346 353.669 420.248 352.292 420.248C351.005 420.248 350.06 421.328 350.06 422.678C350.06 424.127 351.104 425.108 352.382 425.108ZM350.762 422.399C350.861 421.499 351.473 420.833 352.274 420.833C353.192 420.833 353.678 421.553 353.759 422.399H350.762ZM355.674 425H356.367V422.966H359.049V425H359.742V420.347H359.049V422.354H356.367V420.347H355.674V425ZM361.291 425H363.307C364.369 425 365.062 424.415 365.062 423.488C365.062 422.507 364.234 422.093 363.226 422.093H361.984V420.347H361.291V425ZM361.984 424.388V422.687H363.217C363.928 422.687 364.36 422.966 364.36 423.506C364.36 424.091 363.937 424.388 363.244 424.388H361.984ZM369.669 425H370.371V418.655H369.849L368.31 419.186L368.481 419.762L369.669 419.393V425ZM374.496 425.108C376.116 425.108 377.16 423.614 377.16 421.85C377.16 420.068 376.134 418.592 374.514 418.592C372.894 418.592 371.841 420.086 371.841 421.85C371.841 423.632 372.867 425.108 374.496 425.108ZM374.514 424.46C373.335 424.46 372.579 423.227 372.579 421.85C372.579 420.446 373.317 419.24 374.496 419.24C375.666 419.24 376.422 420.473 376.422 421.85C376.422 423.245 375.693 424.46 374.514 424.46Z" fill="#505050"/>
<path d="M239.556 425H240.276V419.348H242.391V418.7H237.441V419.348H239.556V425ZM243.61 425H244.276L247.048 421.319V425H247.741V420.347H247.066L244.303 424.028V420.347H243.61V425ZM248.694 425H249.504L251.052 422.831L251.997 423.866V425H252.69V423.866L253.635 422.831L255.183 425H255.993L254.085 422.336L255.894 420.347H255.057L252.69 423.047V420.347H251.997V423.047L249.63 420.347H248.793L250.602 422.336L248.694 425ZM256.259 426.161H256.826L256.952 425H260.714V426.161H261.29L261.398 424.388H260.696V420.347H257.384V421.157C257.384 422.723 257.141 423.695 256.763 424.388H256.259V426.161ZM257.501 424.388C257.825 423.785 258.05 422.759 258.05 421.607V420.959H260.003V424.388H257.501ZM264.382 425.108C265.264 425.108 265.831 424.757 266.299 424.235L265.867 423.848C265.489 424.244 265.039 424.505 264.4 424.505C263.581 424.505 262.861 423.938 262.762 422.957H266.452C266.461 422.849 266.461 422.777 266.461 422.714C266.461 421.346 265.669 420.248 264.292 420.248C263.005 420.248 262.06 421.328 262.06 422.678C262.06 424.127 263.104 425.108 264.382 425.108ZM262.762 422.399C262.861 421.499 263.473 420.833 264.274 420.833C265.192 420.833 265.678 421.553 265.759 422.399H262.762ZM267.674 425H268.367V422.966H271.049V425H271.742V420.347H271.049V422.354H268.367V420.347H267.674V425ZM273.291 425H275.307C276.369 425 277.062 424.415 277.062 423.488C277.062 422.507 276.234 422.093 275.226 422.093H273.984V420.347H273.291V425ZM273.984 424.388V422.687H275.217C275.928 422.687 276.36 422.966 276.36 423.506C276.36 424.091 275.937 424.388 275.244 424.388H273.984ZM283.055 425.108C284.333 425.108 285.314 424.226 285.314 423.011C285.314 421.814 284.306 421.058 283.136 421.058C282.218 421.058 281.687 421.517 281.345 422.021V421.994C281.345 420.383 282.056 419.24 283.19 419.24C283.766 419.24 284.207 419.465 284.675 419.861L285.089 419.312C284.54 418.862 283.982 418.592 283.226 418.592C281.579 418.592 280.607 420.095 280.607 422.012C280.607 424.253 281.642 425.108 283.055 425.108ZM283.064 424.478C282.137 424.478 281.471 423.866 281.471 423.065C281.471 422.345 282.101 421.67 283.046 421.67C283.955 421.67 284.585 422.246 284.585 423.02C284.585 423.839 283.991 424.478 283.064 424.478Z" fill="#505050"/>
<path d="M147.556 425H148.276V419.348H150.391V418.7H145.441V419.348H147.556V425ZM151.61 425H152.276L155.048 421.319V425H155.741V420.347H155.066L152.303 424.028V420.347H151.61V425ZM156.694 425H157.504L159.052 422.831L159.997 423.866V425H160.69V423.866L161.635 422.831L163.183 425H163.993L162.085 422.336L163.894 420.347H163.057L160.69 423.047V420.347H159.997V423.047L157.63 420.347H156.793L158.602 422.336L156.694 425ZM164.259 426.161H164.826L164.952 425H168.714V426.161H169.29L169.398 424.388H168.696V420.347H165.384V421.157C165.384 422.723 165.141 423.695 164.763 424.388H164.259V426.161ZM165.501 424.388C165.825 423.785 166.05 422.759 166.05 421.607V420.959H168.003V424.388H165.501ZM172.382 425.108C173.264 425.108 173.831 424.757 174.299 424.235L173.867 423.848C173.489 424.244 173.039 424.505 172.4 424.505C171.581 424.505 170.861 423.938 170.762 422.957H174.452C174.461 422.849 174.461 422.777 174.461 422.714C174.461 421.346 173.669 420.248 172.292 420.248C171.005 420.248 170.06 421.328 170.06 422.678C170.06 424.127 171.104 425.108 172.382 425.108ZM170.762 422.399C170.861 421.499 171.473 420.833 172.274 420.833C173.192 420.833 173.678 421.553 173.759 422.399H170.762ZM175.674 425H176.367V422.966H179.049V425H179.742V420.347H179.049V422.354H176.367V420.347H175.674V425ZM181.291 425H183.307C184.369 425 185.062 424.415 185.062 423.488C185.062 422.507 184.234 422.093 183.226 422.093H181.984V420.347H181.291V425ZM181.984 424.388V422.687H183.217C183.928 422.687 184.36 422.966 184.36 423.506C184.36 424.091 183.937 424.388 183.244 424.388H181.984ZM188.49 425H192.891V424.352H189.552L191.235 422.858C192.333 421.886 192.828 421.328 192.828 420.41C192.828 419.366 192.009 418.61 190.875 418.61C189.768 418.61 189.174 419.105 188.607 419.951L189.129 420.329C189.633 419.627 190.101 419.249 190.821 419.249C191.505 419.249 192.09 419.717 192.09 420.455C192.09 421.085 191.748 421.58 190.776 422.435L188.49 424.451V425Z" fill="#505050"/>
<path d="M45.891 425H46.602V419.348H50.148V425H50.859V418.7H45.891V425ZM54.648 425.108C56.052 425.108 57.087 423.992 57.087 422.678C57.087 421.346 56.061 420.248 54.666 420.248C53.262 420.248 52.236 421.364 52.236 422.678C52.236 424.01 53.253 425.108 54.648 425.108ZM54.666 424.487C53.685 424.487 52.947 423.677 52.947 422.678C52.947 421.679 53.64 420.86 54.648 420.86C55.629 420.86 56.376 421.679 56.376 422.678C56.376 423.677 55.674 424.487 54.666 424.487ZM61.2944 425H61.9874V420.347H61.2944V422.462C60.9164 422.723 60.3224 422.903 59.8274 422.903C59.2334 422.903 58.8914 422.561 58.8914 422.012V420.347H58.1984V422.111C58.1984 423.029 58.8194 423.506 59.7374 423.506C60.2864 423.506 60.9614 423.272 61.2944 423.083V425ZM64.9227 425.099C65.7417 425.099 66.2727 424.721 66.5967 424.307V425H67.2807V422.156C67.2807 421.562 67.1187 421.112 66.7947 420.788C66.4617 420.455 65.9487 420.275 65.2917 420.275C64.6077 420.275 64.1127 420.437 63.5997 420.671L63.8067 421.238C64.2387 421.04 64.6707 420.905 65.2197 420.905C66.0927 420.905 66.5967 421.337 66.5967 422.165V422.309C66.1827 422.192 65.7687 422.111 65.1747 422.111C63.9957 422.111 63.1857 422.633 63.1857 423.632C63.1857 424.604 64.0497 425.099 64.9227 425.099ZM65.0577 424.541C64.4277 424.541 63.8877 424.199 63.8877 423.614C63.8877 423.038 64.3827 422.66 65.2467 422.66C65.8137 422.66 66.2637 422.759 66.6057 422.858V423.29C66.6057 424.028 65.9127 424.541 65.0577 424.541ZM69.8736 425H70.5756V420.959H72.2406V420.347H68.2086V420.959H69.8736V425ZM75.3726 425.108C76.7766 425.108 77.8116 423.992 77.8116 422.678C77.8116 421.346 76.7856 420.248 75.3906 420.248C73.9866 420.248 72.9606 421.364 72.9606 422.678C72.9606 424.01 73.9776 425.108 75.3726 425.108ZM75.3906 424.487C74.4096 424.487 73.6716 423.677 73.6716 422.678C73.6716 421.679 74.3646 420.86 75.3726 420.86C76.3536 420.86 77.1006 421.679 77.1006 422.678C77.1006 423.677 76.3986 424.487 75.3906 424.487ZM79.067 425H79.76V423.875L80.741 422.867L82.397 425H83.216L81.218 422.363L83.162 420.347H82.307L79.76 423.029V420.347H79.067V425ZM45.09 436.161H45.657L45.783 435H49.545V436.161H50.121L50.229 434.388H49.527V430.347H46.215V431.157C46.215 432.723 45.972 433.695 45.594 434.388H45.09V436.161ZM46.332 434.388C46.656 433.785 46.881 432.759 46.881 431.607V430.959H48.834V434.388H46.332ZM53.3033 435.108C54.7073 435.108 55.7423 433.992 55.7423 432.678C55.7423 431.346 54.7163 430.248 53.3213 430.248C51.9173 430.248 50.8913 431.364 50.8913 432.678C50.8913 434.01 51.9083 435.108 53.3033 435.108ZM53.3213 434.487C52.3403 434.487 51.6023 433.677 51.6023 432.678C51.6023 431.679 52.2953 430.86 53.3033 430.86C54.2843 430.86 55.0313 431.679 55.0313 432.678C55.0313 433.677 54.3293 434.487 53.3213 434.487ZM59.0946 435.108C59.9676 435.108 60.5256 434.73 60.9936 434.208L60.5346 433.785C60.1656 434.181 59.7246 434.487 59.1306 434.487C58.1586 434.487 57.4206 433.686 57.4206 432.678C57.4206 431.661 58.1406 430.86 59.0856 430.86C59.7156 430.86 60.1476 431.157 60.5166 431.544L60.9576 431.076C60.5256 430.617 59.9766 430.248 59.0946 430.248C57.7356 430.248 56.7096 431.364 56.7096 432.678C56.7096 434.001 57.7356 435.108 59.0946 435.108ZM61.9142 435.072C62.7962 435.072 63.4532 434.694 63.4532 431.067V430.959H65.3972V435H66.0902V430.347H62.7962V430.734C62.7962 434.226 62.3282 434.469 61.7702 434.469C61.6892 434.469 61.5272 434.433 61.4372 434.406L61.3562 435C61.5002 435.036 61.7612 435.072 61.9142 435.072ZM67.7042 435H68.3972V430.347H67.7042V435ZM67.6592 429.33H68.4512V428.565H67.6592V429.33ZM69.3214 436.161H69.8884L70.0144 435H73.7764V436.161H74.3524L74.4604 434.388H73.7584V430.347H70.4464V431.157C70.4464 432.723 70.2034 433.695 69.8254 434.388H69.3214V436.161ZM70.5634 434.388C70.8874 433.785 71.1124 432.759 71.1124 431.607V430.959H73.0654V434.388H70.5634ZM74.8167 435H75.6267L77.1747 432.831L78.1197 433.866V435H78.8127V433.866L79.7577 432.831L81.3057 435H82.1157L80.2077 432.336L82.0167 430.347H81.1797L78.8127 433.047V430.347H78.1197V433.047L75.7527 430.347H74.9157L76.7247 432.336L74.8167 435ZM85.1 435.108C85.982 435.108 86.549 434.757 87.017 434.235L86.585 433.848C86.207 434.244 85.757 434.505 85.118 434.505C84.299 434.505 83.579 433.938 83.48 432.957H87.17C87.179 432.849 87.179 432.777 87.179 432.714C87.179 431.346 86.387 430.248 85.01 430.248C83.723 430.248 82.778 431.328 82.778 432.678C82.778 434.127 83.822 435.108 85.1 435.108ZM83.48 432.399C83.579 431.499 84.191 430.833 84.992 430.833C85.91 430.833 86.396 431.553 86.477 432.399H83.48ZM88.3922 435H89.0852V432.966H91.7672V435H92.4602V430.347H91.7672V432.354H89.0852V430.347H88.3922V435ZM94.0084 435H94.7014V432.966H97.3834V435H98.0764V430.347H97.3834V432.354H94.7014V430.347H94.0084V435ZM99.2106 435H100.066C100.498 434.442 100.921 433.875 101.353 433.308H102.64V435H103.333V430.347H101.146C100.039 430.347 99.3906 430.941 99.3906 431.796C99.3906 432.552 99.9396 433.038 100.633 433.2L99.2106 435ZM101.2 432.723C100.552 432.723 100.084 432.39 100.084 431.823C100.084 431.292 100.489 430.959 101.182 430.959H102.64V432.723H101.2Z" fill="#505050"/>
<path d="M33.1661 320.09C34.5071 320.09 35.5331 319.37 35.5331 318.299C35.5331 317.534 34.9841 317.021 34.2371 316.742C34.8221 316.472 35.3171 316.022 35.3171 315.293C35.3171 314.303 34.3181 313.61 33.1661 313.61C32.0141 313.61 31.0151 314.303 31.0151 315.275C31.0151 316.022 31.5101 316.472 32.0951 316.742C31.3391 317.012 30.7991 317.543 30.7991 318.29C30.7991 319.361 31.8251 320.09 33.1661 320.09ZM33.1661 316.49C32.3651 316.49 31.7261 316.022 31.7261 315.338C31.7261 314.69 32.3471 314.231 33.1661 314.231C33.9851 314.231 34.6061 314.699 34.6061 315.32C34.6061 316.022 33.9671 316.49 33.1661 316.49ZM33.1661 319.469C32.1311 319.469 31.5191 318.929 31.5191 318.29C31.5191 317.57 32.2481 317.075 33.1661 317.075C34.0841 317.075 34.8131 317.57 34.8131 318.272C34.8131 318.929 34.2011 319.469 33.1661 319.469ZM31.8717 332H32.6637L35.5257 326.231V325.7H31.2507V326.348H34.7157L31.8717 332ZM33.1699 343.108C34.4479 343.108 35.4289 342.226 35.4289 341.011C35.4289 339.814 34.4209 339.058 33.2509 339.058C32.3329 339.058 31.8019 339.517 31.4599 340.021V339.994C31.4599 338.383 32.1709 337.24 33.3049 337.24C33.8809 337.24 34.3219 337.465 34.7899 337.861L35.2039 337.312C34.6549 336.862 34.0969 336.592 33.3409 336.592C31.6939 336.592 30.7219 338.095 30.7219 340.012C30.7219 342.253 31.7569 343.108 33.1699 343.108ZM33.1789 342.478C32.2519 342.478 31.5859 341.866 31.5859 341.065C31.5859 340.345 32.2159 339.67 33.1609 339.67C34.0699 339.67 34.6999 340.246 34.6999 341.02C34.6999 341.839 34.1059 342.478 33.1789 342.478ZM33.2163 355.108C34.5303 355.108 35.4663 354.271 35.4663 353.038C35.4663 351.823 34.5123 351.094 33.2883 351.094C32.7663 351.094 32.4153 351.211 32.0463 351.373L32.1813 349.357H35.1873V348.7H31.5603L31.3803 351.769L31.8573 352.084C32.2263 351.886 32.6493 351.724 33.1803 351.724C34.0983 351.724 34.7463 352.264 34.7463 353.047C34.7463 353.866 34.1253 354.46 33.2253 354.46C32.5863 354.46 31.9833 354.127 31.4343 353.596L30.9663 354.109C31.5333 354.676 32.3163 355.108 33.2163 355.108ZM33.8499 366H34.5339V364.506H35.5149V363.912H34.5339V359.655H33.9129L30.3489 363.993L30.5289 364.506H33.8499V366ZM31.2039 363.912L33.8499 360.663V363.912H31.2039ZM33.2795 378.108C34.4495 378.108 35.3855 377.334 35.3855 376.209C35.3855 375.039 34.4045 374.508 33.3065 374.418L35.2865 372.222V371.7H31.2635V372.339H34.3415L32.3525 374.58L32.4965 375.003H32.9015C33.9365 375.003 34.6655 375.435 34.6655 376.218C34.6655 376.974 34.0535 377.46 33.2885 377.46C32.5145 377.46 31.9295 377.118 31.4435 376.524L30.9305 376.983C31.4435 377.649 32.2265 378.108 33.2795 378.108ZM31.0443 389H35.4453V388.352H32.1063L33.7893 386.858C34.8873 385.886 35.3823 385.328 35.3823 384.41C35.3823 383.366 34.5633 382.61 33.4293 382.61C32.3223 382.61 31.7283 383.105 31.1613 383.951L31.6833 384.329C32.1873 383.627 32.6553 383.249 33.3753 383.249C34.0593 383.249 34.6443 383.717 34.6443 384.455C34.6443 385.085 34.3023 385.58 33.3303 386.435L31.0443 388.451V389ZM34.3854 401H35.0874V394.655H34.5654L33.0264 395.186L33.1974 395.762L34.3854 395.393V401ZM32.7794 412.108C34.3994 412.108 35.4434 410.614 35.4434 408.85C35.4434 407.068 34.4174 405.592 32.7974 405.592C31.1774 405.592 30.1244 407.086 30.1244 408.85C30.1244 410.632 31.1504 412.108 32.7794 412.108ZM32.7974 411.46C31.6184 411.46 30.8624 410.227 30.8624 408.85C30.8624 407.446 31.6004 406.24 32.7794 406.24C33.9494 406.24 34.7054 407.473 34.7054 408.85C34.7054 410.245 33.9764 411.46 32.7974 411.46Z" fill="#505050"/>
<path d="M33.8499 217H34.5339V215.506H35.5149V214.912H34.5339V210.655H33.9129L30.3489 214.993L30.5289 215.506H33.8499V217ZM31.2039 214.912L33.8499 211.663V214.912H31.2039ZM33.2795 237.108C34.4495 237.108 35.3855 236.334 35.3855 235.209C35.3855 234.039 34.4045 233.508 33.3065 233.418L35.2865 231.222V230.7H31.2635V231.339H34.3415L32.3525 233.58L32.4965 234.003H32.9015C33.9365 234.003 34.6655 234.435 34.6655 235.218C34.6655 235.974 34.0535 236.46 33.2885 236.46C32.5145 236.46 31.9295 236.118 31.4435 235.524L30.9305 235.983C31.4435 236.649 32.2265 237.108 33.2795 237.108ZM31.0443 258H35.4453V257.352H32.1063L33.7893 255.858C34.8873 254.886 35.3823 254.328 35.3823 253.41C35.3823 252.366 34.5633 251.61 33.4293 251.61C32.3223 251.61 31.7283 252.105 31.1613 252.951L31.6833 253.329C32.1873 252.627 32.6553 252.249 33.3753 252.249C34.0593 252.249 34.6443 252.717 34.6443 253.455C34.6443 254.085 34.3023 254.58 33.3303 255.435L31.0443 257.451V258ZM34.3854 278H35.0874V271.655H34.5654L33.0264 272.186L33.1974 272.762L34.3854 272.393V278ZM32.7794 299.108C34.3994 299.108 35.4434 297.614 35.4434 295.85C35.4434 294.068 34.4174 292.592 32.7974 292.592C31.1774 292.592 30.1244 294.086 30.1244 295.85C30.1244 297.632 31.1504 299.108 32.7794 299.108ZM32.7974 298.46C31.6184 298.46 30.8624 297.227 30.8624 295.85C30.8624 294.446 31.6004 293.24 32.7794 293.24C33.9494 293.24 34.7054 294.473 34.7054 295.85C34.7054 297.245 33.9764 298.46 32.7974 298.46Z" fill="#505050"/>
<path d="M33.1661 101.09C34.5071 101.09 35.5331 100.37 35.5331 99.299C35.5331 98.534 34.9841 98.021 34.2371 97.742C34.8221 97.472 35.3171 97.022 35.3171 96.293C35.3171 95.303 34.3181 94.61 33.1661 94.61C32.0141 94.61 31.0151 95.303 31.0151 96.275C31.0151 97.022 31.5101 97.472 32.0951 97.742C31.3391 98.012 30.7991 98.543 30.7991 99.29C30.7991 100.361 31.8251 101.09 33.1661 101.09ZM33.1661 97.49C32.3651 97.49 31.7261 97.022 31.7261 96.338C31.7261 95.69 32.3471 95.231 33.1661 95.231C33.9851 95.231 34.6061 95.699 34.6061 96.32C34.6061 97.022 33.9671 97.49 33.1661 97.49ZM33.1661 100.469C32.1311 100.469 31.5191 99.929 31.5191 99.29C31.5191 98.57 32.2481 98.075 33.1661 98.075C34.0841 98.075 34.8131 98.57 34.8131 99.272C34.8131 99.929 34.2011 100.469 33.1661 100.469ZM31.8717 113H32.6637L35.5257 107.231V106.7H31.2507V107.348H34.7157L31.8717 113ZM33.1699 124.108C34.4479 124.108 35.4289 123.226 35.4289 122.011C35.4289 120.814 34.4209 120.058 33.2509 120.058C32.3329 120.058 31.8019 120.517 31.4599 121.021V120.994C31.4599 119.383 32.1709 118.24 33.3049 118.24C33.8809 118.24 34.3219 118.465 34.7899 118.861L35.2039 118.312C34.6549 117.862 34.0969 117.592 33.3409 117.592C31.6939 117.592 30.7219 119.095 30.7219 121.012C30.7219 123.253 31.7569 124.108 33.1699 124.108ZM33.1789 123.478C32.2519 123.478 31.5859 122.866 31.5859 122.065C31.5859 121.345 32.2159 120.67 33.1609 120.67C34.0699 120.67 34.6999 121.246 34.6999 122.02C34.6999 122.839 34.1059 123.478 33.1789 123.478ZM33.2163 136.108C34.5303 136.108 35.4663 135.271 35.4663 134.038C35.4663 132.823 34.5123 132.094 33.2883 132.094C32.7663 132.094 32.4153 132.211 32.0463 132.373L32.1813 130.357H35.1873V129.7H31.5603L31.3803 132.769L31.8573 133.084C32.2263 132.886 32.6493 132.724 33.1803 132.724C34.0983 132.724 34.7463 133.264 34.7463 134.047C34.7463 134.866 34.1253 135.46 33.2253 135.46C32.5863 135.46 31.9833 135.127 31.4343 134.596L30.9663 135.109C31.5333 135.676 32.3163 136.108 33.2163 136.108ZM33.8499 147H34.5339V145.506H35.5149V144.912H34.5339V140.655H33.9129L30.3489 144.993L30.5289 145.506H33.8499V147ZM31.2039 144.912L33.8499 141.663V144.912H31.2039ZM33.2795 159.108C34.4495 159.108 35.3855 158.334 35.3855 157.209C35.3855 156.039 34.4045 155.508 33.3065 155.418L35.2865 153.222V152.7H31.2635V153.339H34.3415L32.3525 155.58L32.4965 156.003H32.9015C33.9365 156.003 34.6655 156.435 34.6655 157.218C34.6655 157.974 34.0535 158.46 33.2885 158.46C32.5145 158.46 31.9295 158.118 31.4435 157.524L30.9305 157.983C31.4435 158.649 32.2265 159.108 33.2795 159.108ZM31.0443 170H35.4453V169.352H32.1063L33.7893 167.858C34.8873 166.886 35.3823 166.328 35.3823 165.41C35.3823 164.366 34.5633 163.61 33.4293 163.61C32.3223 163.61 31.7283 164.105 31.1613 164.951L31.6833 165.329C32.1873 164.627 32.6553 164.249 33.3753 164.249C34.0593 164.249 34.6443 164.717 34.6443 165.455C34.6443 166.085 34.3023 166.58 33.3303 167.435L31.0443 169.451V170ZM34.3854 182H35.0874V175.655H34.5654L33.0264 176.186L33.1974 176.762L34.3854 176.393V182ZM32.7794 193.108C34.3994 193.108 35.4434 191.614 35.4434 189.85C35.4434 188.068 34.4174 186.592 32.7974 186.592C31.1774 186.592 30.1244 188.086 30.1244 189.85C30.1244 191.632 31.1504 193.108 32.7794 193.108ZM32.7974 192.46C31.6184 192.46 30.8624 191.227 30.8624 189.85C30.8624 188.446 31.6004 187.24 32.7794 187.24C33.9494 187.24 34.7054 188.473 34.7054 189.85C34.7054 191.245 33.9764 192.46 32.7974 192.46Z" fill="#505050"/>
<path d="M7.108 381.884C7.108 380.741 6.703 380.021 6.037 379.364L5.542 379.832C6.118 380.435 6.451 381.002 6.451 381.866C6.451 383.252 5.308 384.305 3.85 384.305C2.383 384.305 1.249 383.261 1.249 381.866C1.249 381.011 1.609 380.417 2.113 379.886L1.609 379.418C1.015 380.048 0.591999 380.714 0.591999 381.857C0.591999 383.711 2.068 385.043 3.85 385.043C5.677 385.043 7.108 383.702 7.108 381.884ZM7 378.119L7 375.32C7 373.943 6.361 373.034 5.281 373.034C4.399 373.034 3.967 373.637 3.742 374.384C3.526 373.889 3.103 373.385 2.284 373.385C1.861 373.385 1.528 373.529 1.258 373.79C0.897998 374.141 0.699998 374.717 0.699998 375.437L0.699998 378.119L7 378.119ZM6.361 377.417L4.138 377.417L4.138 375.428C4.138 374.33 4.534 373.754 5.218 373.754C5.938 373.754 6.361 374.348 6.361 375.302L6.361 377.417ZM3.508 377.417L1.339 377.417L1.339 375.5C1.339 374.6 1.744 374.105 2.365 374.105C3.121 374.105 3.508 374.699 3.508 375.554L3.508 377.417ZM7 371.624L7 367.025L6.352 367.025L6.352 370.913L4.147 370.913L4.147 367.475L3.499 367.475L3.499 370.913L1.348 370.913L1.348 367.07L0.699998 367.07L0.699998 371.624L7 371.624ZM7 365.595L7 364.884L4.777 364.884L4.777 363.354C4.777 362.013 4.075 360.879 2.716 360.879C1.456 360.879 0.699998 361.815 0.699998 363.237L0.699998 365.595L7 365.595ZM4.129 364.884L1.357 364.884L1.357 363.291C1.357 362.274 1.825 361.599 2.725 361.599C3.571 361.599 4.129 362.283 4.129 363.327L4.129 364.884ZM7 359.583L7 356.937C7 355.533 6.352 354.615 5.119 354.615C3.85 354.615 3.283 355.668 3.283 357.009L3.283 358.872L1.348 358.872L1.348 355.065L0.699997 355.065L0.699997 359.583L7 359.583ZM6.352 358.872L3.913 358.872L3.913 357.027C3.913 355.983 4.291 355.326 5.083 355.326C5.992 355.326 6.352 355.974 6.352 356.991L6.352 358.872ZM7 353.148L7 352.437L0.699997 352.437L0.699997 353.148L7 353.148ZM7 351.267L7 350.385L3.931 348.189L5.308 346.938L7 346.938L7 346.227L5.308 346.227L3.931 344.985L7 342.78L7 341.898L3.4 344.49L0.699997 342.06L0.699997 342.942L4.417 346.227L0.699997 346.227L0.699997 346.938L4.417 346.938L0.699997 350.223L0.699997 351.105L3.4 348.675L7 351.267ZM17.108 394.886C17.108 394.013 16.73 393.455 16.208 392.987L15.785 393.446C16.181 393.815 16.487 394.256 16.487 394.85C16.487 395.822 15.686 396.56 14.678 396.56C13.661 396.56 12.86 395.84 12.86 394.895C12.86 394.265 13.157 393.833 13.544 393.464L13.076 393.023C12.617 393.455 12.248 394.004 12.248 394.886C12.248 396.245 13.364 397.271 14.678 397.271C16.001 397.271 17.108 396.245 17.108 394.886ZM17.108 389.808C17.108 388.926 16.757 388.359 16.235 387.891L15.848 388.323C16.244 388.701 16.505 389.151 16.505 389.79C16.505 390.609 15.938 391.329 14.957 391.428L14.957 387.738C14.849 387.729 14.777 387.729 14.714 387.729C13.346 387.729 12.248 388.521 12.248 389.898C12.248 391.185 13.328 392.13 14.678 392.13C16.127 392.13 17.108 391.086 17.108 389.808ZM14.399 391.428C13.499 391.329 12.833 390.717 12.833 389.916C12.833 388.998 13.553 388.512 14.399 388.431L14.399 391.428ZM18.44 386.516L18.44 385.823L16.109 385.823C16.631 385.463 17.099 384.905 17.099 384.041C17.099 382.916 16.199 381.818 14.678 381.818C13.13 381.818 12.248 382.925 12.248 384.041C12.248 384.896 12.725 385.445 13.283 385.823L12.347 385.823L12.347 386.516L18.44 386.516ZM16.478 384.167C16.478 385.031 15.758 385.85 14.678 385.85C13.598 385.85 12.869 385.031 12.869 384.167C12.869 383.285 13.571 382.529 14.669 382.529C15.812 382.529 16.478 383.267 16.478 384.167ZM17.108 378.505C17.108 377.623 16.757 377.056 16.235 376.588L15.848 377.02C16.244 377.398 16.505 377.848 16.505 378.487C16.505 379.306 15.938 380.026 14.957 380.125L14.957 376.435C14.849 376.426 14.777 376.426 14.714 376.426C13.346 376.426 12.248 377.218 12.248 378.595C12.248 379.882 13.328 380.827 14.678 380.827C16.127 380.827 17.108 379.783 17.108 378.505ZM14.399 380.125C13.499 380.026 12.833 379.414 12.833 378.613C12.833 377.695 13.553 377.209 14.399 377.128L14.399 380.125ZM18.161 375.897L18.161 375.33L17 375.204L17 371.442L18.161 371.442L18.161 370.866L16.388 370.758L16.388 371.46L12.347 371.46L12.347 374.772L13.157 374.772C14.723 374.772 15.695 375.015 16.388 375.393L16.388 375.897L18.161 375.897ZM16.388 374.655C15.785 374.331 14.759 374.106 13.607 374.106L12.959 374.106L12.959 372.153L16.388 372.153L16.388 374.655ZM17 369.808L17 369.115L14.966 369.115L14.966 366.433L17 366.433L17 365.74L12.347 365.74L12.347 366.433L14.354 366.433L14.354 369.115L12.347 369.115L12.347 369.808L17 369.808ZM17 364.605L17 363.75C16.442 363.318 15.875 362.895 15.308 362.463L15.308 361.176L17 361.176L17 360.483L12.347 360.483L12.347 362.67C12.347 363.777 12.941 364.425 13.796 364.425C14.552 364.425 15.038 363.876 15.2 363.183L17 364.605ZM14.723 362.616C14.723 363.264 14.39 363.732 13.823 363.732C13.292 363.732 12.959 363.327 12.959 362.634L12.959 361.176L14.723 361.176L14.723 362.616ZM17.108 354.113C17.108 352.709 15.992 351.674 14.678 351.674C13.346 351.674 12.248 352.7 12.248 354.095C12.248 355.499 13.364 356.525 14.678 356.525C16.01 356.525 17.108 355.508 17.108 354.113ZM16.487 354.095C16.487 355.076 15.677 355.814 14.678 355.814C13.679 355.814 12.86 355.121 12.86 354.113C12.86 353.132 13.679 352.385 14.678 352.385C15.677 352.385 16.487 353.087 16.487 354.095ZM18.161 346.405L18.161 345.829L16.388 345.721L16.388 346.423L12.347 346.423L12.347 347.116L16.388 347.116L16.388 349.726L12.347 349.726L12.347 350.419L17 350.419L17 346.405L18.161 346.405ZM17 344.705L17 344.012L12.347 344.012L12.347 344.705L17 344.705ZM11.33 344.75L11.33 343.958L10.565 343.958L10.565 344.75L11.33 344.75ZM17 342.403L17 341.71L14.966 341.71L14.966 339.028L17 339.028L17 338.335L12.347 338.335L12.347 339.028L14.354 339.028L14.354 341.71L12.347 341.71L12.347 342.403L17 342.403ZM17 336.787L17 336.094L15.875 336.094L14.867 335.113L17 333.457L17 332.638L14.363 334.636L12.347 332.692L12.347 333.547L15.029 336.094L12.347 336.094L12.347 336.787L17 336.787ZM17.099 330.295C17.099 329.476 16.721 328.945 16.307 328.621L17 328.621L17 327.937L14.156 327.937C13.562 327.937 13.112 328.099 12.788 328.423C12.455 328.756 12.275 329.269 12.275 329.926C12.275 330.61 12.437 331.105 12.671 331.618L13.238 331.411C13.04 330.979 12.905 330.547 12.905 329.998C12.905 329.125 13.337 328.621 14.165 328.621L14.309 328.621C14.192 329.035 14.111 329.449 14.111 330.043C14.111 331.222 14.633 332.032 15.632 332.032C16.604 332.032 17.099 331.168 17.099 330.295ZM16.541 330.16C16.541 330.79 16.199 331.33 15.614 331.33C15.038 331.33 14.66 330.835 14.66 329.971C14.66 329.404 14.759 328.954 14.858 328.612L15.29 328.612C16.028 328.612 16.541 329.305 16.541 330.16Z" fill="#505050"/>
<path d="M7 272.656L7 268.057L6.352 268.057L6.352 271.945L4.147 271.945L4.147 268.507L3.499 268.507L3.499 271.945L1.348 271.945L1.348 268.102L0.699998 268.102L0.699999 272.656L7 272.656ZM7 266.627L7 265.916L4.777 265.916L4.777 264.386C4.777 263.045 4.075 261.911 2.716 261.911C1.456 261.911 0.699998 262.847 0.699998 264.269L0.699998 266.627L7 266.627ZM4.129 265.916L1.357 265.916L1.357 264.323C1.357 263.306 1.825 262.631 2.725 262.631C3.571 262.631 4.129 263.315 4.129 264.359L4.129 265.916ZM7 260.615L7 259.922L1.771 256.169L7 256.169L7 255.467L0.699998 255.467L0.699998 256.142L5.929 259.904L0.699998 259.904L0.699998 260.615L7 260.615ZM7 252.024L7 251.304L1.348 251.304L1.348 249.189L0.699998 249.189L0.699998 254.139L1.348 254.139L1.348 252.024L7 252.024ZM7 247.853L7 243.254L6.352 243.254L6.352 247.142L4.147 247.142L4.147 243.704L3.499 243.704L3.499 247.142L1.348 247.142L1.348 243.299L0.699997 243.299L0.699998 247.853L7 247.853ZM7 241.824L7 241.131L1.906 241.131L5.272 238.836L5.272 238.8L1.897 236.505L7 236.505L7 235.794L0.699997 235.794L0.699997 236.514L4.138 238.809L0.699997 241.104L0.699997 241.824L7 241.824ZM7 234.55L7 233.821L5.335 233.074L5.335 229.645L7 228.907L7 228.142L0.654997 231.013L0.654997 231.679L7 234.55ZM4.696 232.795L1.483 231.355L4.696 229.924L4.696 232.795ZM17.108 281.886C17.108 281.013 16.73 280.455 16.208 279.987L15.785 280.446C16.181 280.815 16.487 281.256 16.487 281.85C16.487 282.822 15.686 283.56 14.678 283.56C13.661 283.56 12.86 282.84 12.86 281.895C12.86 281.265 13.157 280.833 13.544 280.464L13.076 280.023C12.617 280.455 12.248 281.004 12.248 281.886C12.248 283.245 13.364 284.271 14.678 284.271C16.001 284.271 17.108 283.245 17.108 281.886ZM17.108 276.808C17.108 275.926 16.757 275.359 16.235 274.891L15.848 275.323C16.244 275.701 16.505 276.151 16.505 276.79C16.505 277.609 15.938 278.329 14.957 278.428L14.957 274.738C14.849 274.729 14.777 274.729 14.714 274.729C13.346 274.729 12.248 275.521 12.248 276.898C12.248 278.185 13.328 279.13 14.678 279.13C16.127 279.13 17.108 278.086 17.108 276.808ZM14.399 278.428C13.499 278.329 12.833 277.717 12.833 276.916C12.833 275.998 13.553 275.512 14.399 275.431L14.399 278.428ZM18.44 273.516L18.44 272.823L16.109 272.823C16.631 272.463 17.099 271.905 17.099 271.041C17.099 269.916 16.199 268.818 14.678 268.818C13.13 268.818 12.248 269.925 12.248 271.041C12.248 271.896 12.725 272.445 13.283 272.823L12.347 272.823L12.347 273.516L18.44 273.516ZM16.478 271.167C16.478 272.031 15.758 272.85 14.678 272.85C13.598 272.85 12.869 272.031 12.869 271.167C12.869 270.285 13.571 269.529 14.669 269.529C15.812 269.529 16.478 270.267 16.478 271.167ZM17.108 265.505C17.108 264.623 16.757 264.056 16.235 263.588L15.848 264.02C16.244 264.398 16.505 264.848 16.505 265.487C16.505 266.306 15.938 267.026 14.957 267.125L14.957 263.435C14.849 263.426 14.777 263.426 14.714 263.426C13.346 263.426 12.248 264.218 12.248 265.595C12.248 266.882 13.328 267.827 14.678 267.827C16.127 267.827 17.108 266.783 17.108 265.505ZM14.399 267.125C13.499 267.026 12.833 266.414 12.833 265.613C12.833 264.695 13.553 264.209 14.399 264.128L14.399 267.125ZM18.161 262.897L18.161 262.33L17 262.204L17 258.442L18.161 258.442L18.161 257.866L16.388 257.758L16.388 258.46L12.347 258.46L12.347 261.772L13.157 261.772C14.723 261.772 15.695 262.015 16.388 262.393L16.388 262.897L18.161 262.897ZM16.388 261.655C15.785 261.331 14.759 261.106 13.607 261.106L12.959 261.106L12.959 259.153L16.388 259.153L16.388 261.655ZM17 256.808L17 256.115L14.966 256.115L14.966 253.433L17 253.433L17 252.74L12.347 252.74L12.347 253.433L14.354 253.433L14.354 256.115L12.347 256.115L12.347 256.808L17 256.808ZM17 251.605L17 250.75C16.442 250.318 15.875 249.895 15.308 249.463L15.308 248.176L17 248.176L17 247.483L12.347 247.483L12.347 249.67C12.347 250.777 12.941 251.425 13.796 251.425C14.552 251.425 15.038 250.876 15.2 250.183L17 251.605ZM14.723 249.616C14.723 250.264 14.39 250.732 13.823 250.732C13.292 250.732 12.959 250.327 12.959 249.634L12.959 248.176L14.723 248.176L14.723 249.616ZM17.108 241.113C17.108 239.709 15.992 238.674 14.678 238.674C13.346 238.674 12.248 239.7 12.248 241.095C12.248 242.499 13.364 243.525 14.678 243.525C16.01 243.525 17.108 242.508 17.108 241.113ZM16.487 241.095C16.487 242.076 15.677 242.814 14.678 242.814C13.679 242.814 12.86 242.121 12.86 241.113C12.86 240.132 13.679 239.385 14.678 239.385C15.677 239.385 16.487 240.087 16.487 241.095ZM18.161 233.405L18.161 232.829L16.388 232.721L16.388 233.423L12.347 233.423L12.347 234.116L16.388 234.116L16.388 236.726L12.347 236.726L12.347 237.419L17 237.419L17 233.405L18.161 233.405ZM17 231.705L17 231.012L12.347 231.012L12.347 231.705L17 231.705ZM11.33 231.75L11.33 230.958L10.565 230.958L10.565 231.75L11.33 231.75ZM17 229.403L17 228.71L14.966 228.71L14.966 226.028L17 226.028L17 225.335L12.347 225.335L12.347 226.028L14.354 226.028L14.354 228.71L12.347 228.71L12.347 229.403L17 229.403ZM17 223.787L17 223.094L15.875 223.094L14.867 222.113L17 220.457L17 219.638L14.363 221.636L12.347 219.692L12.347 220.547L15.029 223.094L12.347 223.094L12.347 223.787L17 223.787ZM17.099 217.295C17.099 216.476 16.721 215.945 16.307 215.621L17 215.621L17 214.937L14.156 214.937C13.562 214.937 13.112 215.099 12.788 215.423C12.455 215.756 12.275 216.269 12.275 216.926C12.275 217.61 12.437 218.105 12.671 218.618L13.238 218.411C13.04 217.979 12.905 217.547 12.905 216.998C12.905 216.125 13.337 215.621 14.165 215.621L14.309 215.621C14.192 216.035 14.111 216.449 14.111 217.043C14.111 218.222 14.633 219.032 15.632 219.032C16.604 219.032 17.099 218.168 17.099 217.295ZM16.541 217.16C16.541 217.79 16.199 218.33 15.614 218.33C15.038 218.33 14.66 217.835 14.66 216.971C14.66 216.404 14.759 215.954 14.858 215.612L15.29 215.612C16.028 215.612 16.541 216.305 16.541 217.16Z" fill="#505050"/>
<path d="M7.072 157.566C7.072 156.594 6.451 155.694 2.032 155.694L1.348 155.694L1.348 153.012L7 153.012L7 152.301L0.699998 152.301L0.699998 156.378L1.843 156.378C6.136 156.378 6.433 157.197 6.433 157.683C6.433 157.881 6.388 158.142 6.343 158.241L6.919 158.385C6.982 158.223 7.072 157.845 7.072 157.566ZM7.108 149.597C7.108 148.85 6.712 148.184 5.677 147.671L0.699998 145.178L0.699998 145.952L4.813 147.959L0.699998 150.281L0.699998 151.091L5.524 148.319C6.226 148.688 6.469 149.147 6.469 149.579C6.469 149.912 6.415 150.128 6.28 150.38L6.847 150.659C7.018 150.326 7.108 150.011 7.108 149.597ZM7 143.967L7 143.256L1.348 143.256L1.348 139.71L7 139.71L7 138.999L0.699997 138.999L0.699998 143.967L7 143.967ZM7 137.757L7 137.028L5.335 136.281L5.335 132.852L7 132.114L7 131.349L0.654997 134.22L0.654997 134.886L7 137.757ZM4.696 136.002L1.483 134.562L4.696 133.131L4.696 136.002ZM17.108 175.886C17.108 175.013 16.73 174.455 16.208 173.987L15.785 174.446C16.181 174.815 16.487 175.256 16.487 175.85C16.487 176.822 15.686 177.56 14.678 177.56C13.661 177.56 12.86 176.84 12.86 175.895C12.86 175.265 13.157 174.833 13.544 174.464L13.076 174.023C12.617 174.455 12.248 175.004 12.248 175.886C12.248 177.245 13.364 178.271 14.678 178.271C16.001 178.271 17.108 177.245 17.108 175.886ZM17.108 170.808C17.108 169.926 16.757 169.359 16.235 168.891L15.848 169.323C16.244 169.701 16.505 170.151 16.505 170.79C16.505 171.609 15.938 172.329 14.957 172.428L14.957 168.738C14.849 168.729 14.777 168.729 14.714 168.729C13.346 168.729 12.248 169.521 12.248 170.898C12.248 172.185 13.328 173.13 14.678 173.13C16.127 173.13 17.108 172.086 17.108 170.808ZM14.399 172.428C13.499 172.329 12.833 171.717 12.833 170.916C12.833 169.998 13.553 169.512 14.399 169.431L14.399 172.428ZM18.44 167.516L18.44 166.823L16.109 166.823C16.631 166.463 17.099 165.905 17.099 165.041C17.099 163.916 16.199 162.818 14.678 162.818C13.13 162.818 12.248 163.925 12.248 165.041C12.248 165.896 12.725 166.445 13.283 166.823L12.347 166.823L12.347 167.516L18.44 167.516ZM16.478 165.167C16.478 166.031 15.758 166.85 14.678 166.85C13.598 166.85 12.869 166.031 12.869 165.167C12.869 164.285 13.571 163.529 14.669 163.529C15.812 163.529 16.478 164.267 16.478 165.167ZM17.108 159.505C17.108 158.623 16.757 158.056 16.235 157.588L15.848 158.02C16.244 158.398 16.505 158.848 16.505 159.487C16.505 160.306 15.938 161.026 14.957 161.125L14.957 157.435C14.849 157.426 14.777 157.426 14.714 157.426C13.346 157.426 12.248 158.218 12.248 159.595C12.248 160.882 13.328 161.827 14.678 161.827C16.127 161.827 17.108 160.783 17.108 159.505ZM14.399 161.125C13.499 161.026 12.833 160.414 12.833 159.613C12.833 158.695 13.553 158.209 14.399 158.128L14.399 161.125ZM18.161 156.897L18.161 156.33L17 156.204L17 152.442L18.161 152.442L18.161 151.866L16.388 151.758L16.388 152.46L12.347 152.46L12.347 155.772L13.157 155.772C14.723 155.772 15.695 156.015 16.388 156.393L16.388 156.897L18.161 156.897ZM16.388 155.655C15.785 155.331 14.759 155.106 13.607 155.106L12.959 155.106L12.959 153.153L16.388 153.153L16.388 155.655ZM17 150.808L17 150.115L14.966 150.115L14.966 147.433L17 147.433L17 146.74L12.347 146.74L12.347 147.433L14.354 147.433L14.354 150.115L12.347 150.115L12.347 150.808L17 150.808ZM17 145.605L17 144.75C16.442 144.318 15.875 143.895 15.308 143.463L15.308 142.176L17 142.176L17 141.483L12.347 141.483L12.347 143.67C12.347 144.777 12.941 145.425 13.796 145.425C14.552 145.425 15.038 144.876 15.2 144.183L17 145.605ZM14.723 143.616C14.723 144.264 14.39 144.732 13.823 144.732C13.292 144.732 12.959 144.327 12.959 143.634L12.959 142.176L14.723 142.176L14.723 143.616ZM17.108 135.113C17.108 133.709 15.992 132.674 14.678 132.674C13.346 132.674 12.248 133.7 12.248 135.095C12.248 136.499 13.364 137.525 14.678 137.525C16.01 137.525 17.108 136.508 17.108 135.113ZM16.487 135.095C16.487 136.076 15.677 136.814 14.678 136.814C13.679 136.814 12.86 136.121 12.86 135.113C12.86 134.132 13.679 133.385 14.678 133.385C15.677 133.385 16.487 134.087 16.487 135.095ZM18.161 127.405L18.161 126.829L16.388 126.721L16.388 127.423L12.347 127.423L12.347 128.116L16.388 128.116L16.388 130.726L12.347 130.726L12.347 131.419L17 131.419L17 127.405L18.161 127.405ZM17 125.705L17 125.012L12.347 125.012L12.347 125.705L17 125.705ZM11.33 125.75L11.33 124.958L10.565 124.958L10.565 125.75L11.33 125.75ZM17 123.403L17 122.71L14.966 122.71L14.966 120.028L17 120.028L17 119.335L12.347 119.335L12.347 120.028L14.354 120.028L14.354 122.71L12.347 122.71L12.347 123.403L17 123.403ZM17 117.787L17 117.094L15.875 117.094L14.867 116.113L17 114.457L17 113.638L14.363 115.636L12.347 113.692L12.347 114.547L15.029 117.094L12.347 117.094L12.347 117.787L17 117.787ZM17.099 111.295C17.099 110.476 16.721 109.945 16.307 109.621L17 109.621L17 108.937L14.156 108.937C13.562 108.937 13.112 109.099 12.788 109.423C12.455 109.756 12.275 110.269 12.275 110.926C12.275 111.61 12.437 112.105 12.671 112.618L13.238 112.411C13.04 111.979 12.905 111.547 12.905 110.998C12.905 110.125 13.337 109.621 14.165 109.621L14.309 109.621C14.192 110.035 14.111 110.449 14.111 111.043C14.111 112.222 14.633 113.032 15.632 113.032C16.604 113.032 17.099 112.168 17.099 111.295ZM16.541 111.16C16.541 111.79 16.199 112.33 15.614 112.33C15.038 112.33 14.66 111.835 14.66 110.971C14.66 110.404 14.759 109.954 14.858 109.612L15.29 109.612C16.028 109.612 16.541 110.305 16.541 111.16Z" fill="#505050"/>
<path d="M360.352 184.633H360.924L360.814 183.258L361.947 184.061L362.244 183.544L360.968 182.961L362.244 182.367L361.947 181.861L360.814 182.653L360.924 181.278H360.352L360.462 182.653L359.329 181.861L359.032 182.367L360.308 182.961L359.032 183.544L359.329 184.061L360.462 183.258L360.352 184.633Z" fill="#505050"/>
<path d="M360.352 297.633H360.924L360.814 296.258L361.947 297.061L362.244 296.544L360.968 295.961L362.244 295.367L361.947 294.861L360.814 295.653L360.924 294.278H360.352L360.462 295.653L359.329 294.861L359.032 295.367L360.308 295.961L359.032 296.544L359.329 297.061L360.462 296.258L360.352 297.633Z" fill="#505050"/>
<path d="M361.352 404.633H361.924L361.814 403.258L362.947 404.061L363.244 403.544L361.968 402.961L363.244 402.367L362.947 401.861L361.814 402.653L361.924 401.278H361.352L361.462 402.653L360.329 401.861L360.032 402.367L361.308 402.961L360.032 403.544L360.329 404.061L361.462 403.258L361.352 404.633Z" fill="#505050"/>
<path d="M398.532 359.132C400.017 359.132 400.897 358.67 401.689 357.823L400.611 356.668C400.006 357.218 399.467 357.57 398.587 357.57C397.267 357.57 396.354 356.47 396.354 355.15C396.354 353.808 397.289 352.73 398.587 352.73C399.467 352.73 399.973 353.049 400.567 353.588L401.579 352.422C400.864 351.718 400.05 351.168 398.598 351.168C396.233 351.168 394.583 352.961 394.583 355.15C394.583 357.383 396.266 359.132 398.532 359.132ZM403.045 359H406.708C408.446 359 409.59 358.296 409.59 356.888C409.59 355.832 409.04 355.315 408.149 354.974C408.699 354.666 409.161 354.182 409.161 353.313C409.161 352.763 408.985 352.334 408.633 351.982C408.193 351.542 407.5 351.3 406.62 351.3H403.045V359ZM404.695 354.413V352.785H406.367C407.082 352.785 407.478 353.071 407.478 353.577C407.478 354.171 407.005 354.413 406.257 354.413H404.695ZM404.695 357.515V355.821H406.653C407.522 355.821 407.907 356.14 407.907 356.657C407.907 357.251 407.456 357.515 406.708 357.515H404.695ZM410.984 359H416.847V357.493H412.667V355.876H416.297V354.369H412.667V352.807H416.792V351.3H410.984V359ZM418.353 359H420.047V356.69H421.334C423.061 356.69 424.447 355.766 424.447 353.984C424.447 352.389 423.336 351.3 421.499 351.3H418.353V359ZM420.047 355.183V352.829H421.356C422.203 352.829 422.731 353.236 422.731 353.995C422.731 354.677 422.236 355.183 421.389 355.183H420.047ZM427.394 352.829H431.607V351.3H425.7V359H429.264C431.046 359 432.135 358.131 432.135 356.558C432.135 355.117 431.167 354.171 429.429 354.171H427.394V352.829ZM429.253 355.579C430.056 355.579 430.441 355.898 430.441 356.492C430.441 357.163 430.056 357.471 429.264 357.471H427.394V355.579H429.253ZM433.608 359H435.302V351.3H433.608V359ZM443.299 359V356.954L444.311 355.854L446.489 359H448.513L445.466 354.633L448.403 351.3H446.39L443.299 354.897V351.3H441.616V354.897L438.525 351.3H436.512L439.449 354.633L436.402 359H438.426L440.593 355.854L441.616 356.954V359H443.299ZM394.891 372H395.602V369.777H397.132C398.473 369.777 399.607 369.075 399.607 367.716C399.607 366.456 398.671 365.7 397.249 365.7H394.891V372ZM395.602 369.129V366.357H397.195C398.212 366.357 398.887 366.825 398.887 367.725C398.887 368.571 398.203 369.129 397.159 369.129H395.602ZM400.822 368.112H404.962V367.446H400.822V368.112ZM400.822 370.218H404.962V369.552H400.822V370.218ZM408.982 372.108C410.602 372.108 411.646 370.614 411.646 368.85C411.646 367.068 410.62 365.592 409 365.592C407.38 365.592 406.327 367.086 406.327 368.85C406.327 370.632 407.353 372.108 408.982 372.108ZM409 371.46C407.821 371.46 407.065 370.227 407.065 368.85C407.065 367.446 407.803 366.24 408.982 366.24C410.152 366.24 410.908 367.473 410.908 368.85C410.908 370.245 410.179 371.46 409 371.46ZM412.895 372H413.723V371.055H412.895V372ZM417.621 372.108C419.241 372.108 420.285 370.614 420.285 368.85C420.285 367.068 419.259 365.592 417.639 365.592C416.019 365.592 414.966 367.086 414.966 368.85C414.966 370.632 415.992 372.108 417.621 372.108ZM417.639 371.46C416.46 371.46 415.704 370.227 415.704 368.85C415.704 367.446 416.442 366.24 417.621 366.24C418.791 366.24 419.547 367.473 419.547 368.85C419.547 370.245 418.818 371.46 417.639 371.46ZM424.73 372H425.414V370.506H426.395V369.912H425.414V365.655H424.793L421.229 369.993L421.409 370.506H424.73V372ZM422.084 369.912L424.73 366.663V369.912H422.084ZM429.715 372.09C431.056 372.09 432.082 371.37 432.082 370.299C432.082 369.534 431.533 369.021 430.786 368.742C431.371 368.472 431.866 368.022 431.866 367.293C431.866 366.303 430.867 365.61 429.715 365.61C428.563 365.61 427.564 366.303 427.564 367.275C427.564 368.022 428.059 368.472 428.644 368.742C427.888 369.012 427.348 369.543 427.348 370.29C427.348 371.361 428.374 372.09 429.715 372.09ZM429.715 368.49C428.914 368.49 428.275 368.022 428.275 367.338C428.275 366.69 428.896 366.231 429.715 366.231C430.534 366.231 431.155 366.699 431.155 367.32C431.155 368.022 430.516 368.49 429.715 368.49ZM429.715 371.469C428.68 371.469 428.068 370.929 428.068 370.29C428.068 369.57 428.797 369.075 429.715 369.075C430.633 369.075 431.362 369.57 431.362 370.272C431.362 370.929 430.75 371.469 429.715 371.469Z" fill="#2B9230"/>
<path d="M394.924 287H400.787V285.493H396.607V283.876H400.237V282.369H396.607V280.807H400.732V279.3H394.924V287ZM402.293 287H403.987V284.69H405.274C407.001 284.69 408.387 283.766 408.387 281.984C408.387 280.389 407.276 279.3 405.439 279.3H402.293V287ZM403.987 283.183V280.829H405.296C406.143 280.829 406.671 281.236 406.671 281.995C406.671 282.677 406.176 283.183 405.329 283.183H403.987ZM416.274 279.3H414.701L411.313 284.349V279.3H409.641V287H411.236L414.602 281.951V287H416.274V279.3ZM419.92 287H421.614V280.862H423.957V279.3H417.577V280.862H419.92V287ZM425.26 287H431.123V285.493H426.943V283.876H430.573V282.369H426.943V280.807H431.068V279.3H425.26V287ZM432.629 287H434.29V282.006L436.435 285.262H436.479L438.646 281.973V287H440.329V279.3H438.503L436.479 282.556L434.455 279.3H432.629V287ZM441.519 287H443.246L443.95 285.273H447.206L447.91 287H449.681L446.381 279.245H444.819L441.519 287ZM444.555 283.777L445.578 281.28L446.601 283.777H444.555ZM394.891 300H395.602V297.777H397.132C398.473 297.777 399.607 297.075 399.607 295.716C399.607 294.456 398.671 293.7 397.249 293.7H394.891V300ZM395.602 297.129V294.357H397.195C398.212 294.357 398.887 294.825 398.887 295.725C398.887 296.571 398.203 297.129 397.159 297.129H395.602ZM400.822 296.112H404.962V295.446H400.822V296.112ZM400.822 298.218H404.962V297.552H400.822V298.218ZM408.982 300.108C410.602 300.108 411.646 298.614 411.646 296.85C411.646 295.068 410.62 293.592 409 293.592C407.38 293.592 406.327 295.086 406.327 296.85C406.327 298.632 407.353 300.108 408.982 300.108ZM409 299.46C407.821 299.46 407.065 298.227 407.065 296.85C407.065 295.446 407.803 294.24 408.982 294.24C410.152 294.24 410.908 295.473 410.908 296.85C410.908 298.245 410.179 299.46 409 299.46ZM412.895 300H413.723V299.055H412.895V300ZM417.621 300.108C419.241 300.108 420.285 298.614 420.285 296.85C420.285 295.068 419.259 293.592 417.639 293.592C416.019 293.592 414.966 295.086 414.966 296.85C414.966 298.632 415.992 300.108 417.621 300.108ZM417.639 299.46C416.46 299.46 415.704 298.227 415.704 296.85C415.704 295.446 416.442 294.24 417.621 294.24C418.791 294.24 419.547 295.473 419.547 296.85C419.547 298.245 418.818 299.46 417.639 299.46ZM424.055 300.108C425.675 300.108 426.719 298.614 426.719 296.85C426.719 295.068 425.693 293.592 424.073 293.592C422.453 293.592 421.4 295.086 421.4 296.85C421.4 298.632 422.426 300.108 424.055 300.108ZM424.073 299.46C422.894 299.46 422.138 298.227 422.138 296.85C422.138 295.446 422.876 294.24 424.055 294.24C425.225 294.24 425.981 295.473 425.981 296.85C425.981 298.245 425.252 299.46 424.073 299.46ZM430.272 300.108C431.55 300.108 432.531 299.226 432.531 298.011C432.531 296.814 431.523 296.058 430.353 296.058C429.435 296.058 428.904 296.517 428.562 297.021V296.994C428.562 295.383 429.273 294.24 430.407 294.24C430.983 294.24 431.424 294.465 431.892 294.861L432.306 294.312C431.757 293.862 431.199 293.592 430.443 293.592C428.796 293.592 427.824 295.095 427.824 297.012C427.824 299.253 428.859 300.108 430.272 300.108ZM430.281 299.478C429.354 299.478 428.688 298.866 428.688 298.065C428.688 297.345 429.318 296.67 430.263 296.67C431.172 296.67 431.802 297.246 431.802 298.02C431.802 298.839 431.208 299.478 430.281 299.478Z" fill="#2B9230"/>
<path d="M393.924 169H395.618V166.646L396.509 165.722L398.896 169H400.931L397.653 164.567L400.788 161.3H398.742L395.618 164.666V161.3H393.924V169ZM402.036 169H403.73V161.3H402.036V169ZM406.677 161.3V162.895C406.677 167.042 406.16 167.625 405.247 167.625C405.137 167.625 405.06 167.614 404.983 167.603L404.873 169C405.082 169.055 405.489 169.099 405.764 169.099C407.524 169.099 408.261 167.944 408.261 163.412V162.829H410.483V169H412.177V161.3H406.677ZM414.023 169H417.246C419.05 169 420.172 167.999 420.172 166.415C420.172 164.908 419.138 163.918 417.356 163.918H415.717V161.3H414.023V169ZM417.213 165.37C418.06 165.37 418.489 165.744 418.489 166.393C418.489 167.108 418.06 167.471 417.224 167.471H415.717V165.37H417.213ZM421.467 169H423.161V166.646L424.052 165.722L426.439 169H428.474L425.196 164.567L428.331 161.3H426.285L423.161 164.666V161.3H421.467V169ZM429.579 169H431.273V161.3H429.579V169ZM436.805 169.132C438.29 169.132 439.17 168.67 439.962 167.823L438.884 166.668C438.279 167.218 437.74 167.57 436.86 167.57C435.54 167.57 434.627 166.47 434.627 165.15C434.627 163.808 435.562 162.73 436.86 162.73C437.74 162.73 438.246 163.049 438.84 163.588L439.852 162.422C439.137 161.718 438.323 161.168 436.871 161.168C434.506 161.168 432.856 162.961 432.856 165.15C432.856 167.383 434.539 169.132 436.805 169.132ZM443.112 169H444.806V162.862H447.149V161.3H440.769V162.862H443.112V169ZM448.451 169H451.674C453.478 169 454.6 167.999 454.6 166.415C454.6 164.908 453.566 163.918 451.784 163.918H450.145V161.3H448.451V169ZM451.641 165.37C452.488 165.37 452.917 165.744 452.917 166.393C452.917 167.108 452.488 167.471 451.652 167.471H450.145V165.37H451.641ZM394.947 174.3V175.895C394.947 180.042 394.43 180.625 393.517 180.625C393.407 180.625 393.33 180.614 393.253 180.603L393.143 182C393.352 182.055 393.759 182.099 394.034 182.099C395.794 182.099 396.531 180.944 396.531 176.412V175.829H398.753V182H400.447V174.3H394.947ZM405.548 178.37L403.458 174.3H401.566L404.646 180.064C404.338 180.537 403.986 180.68 403.678 180.68C403.381 180.68 403.073 180.614 402.765 180.427L402.105 181.67C402.589 181.945 403.106 182.121 403.766 182.121C404.844 182.121 405.614 181.593 406.285 180.251L409.244 174.3H407.407L405.548 178.37ZM413.978 182.132C415.463 182.132 416.343 181.67 417.135 180.823L416.057 179.668C415.452 180.218 414.913 180.57 414.033 180.57C412.713 180.57 411.8 179.47 411.8 178.15C411.8 176.808 412.735 175.73 414.033 175.73C414.913 175.73 415.419 176.049 416.013 176.588L417.025 175.422C416.31 174.718 415.496 174.168 414.044 174.168C411.679 174.168 410.029 175.961 410.029 178.15C410.029 180.383 411.712 182.132 413.978 182.132ZM422.231 182.132C424.607 182.132 426.334 180.339 426.334 178.15C426.334 175.939 424.629 174.168 422.253 174.168C419.877 174.168 418.15 175.961 418.15 178.15C418.15 180.361 419.855 182.132 422.231 182.132ZM422.253 180.57C420.889 180.57 419.921 179.47 419.921 178.15C419.921 176.808 420.867 175.73 422.231 175.73C423.595 175.73 424.563 176.83 424.563 178.15C424.563 179.492 423.617 180.57 422.253 180.57ZM432.303 182H433.997V174.3H432.303V177.622C431.951 177.897 431.302 178.117 430.62 178.117C429.751 178.117 429.377 177.578 429.377 176.621V174.3H427.683V177.116C427.683 178.898 428.739 179.701 430.268 179.701C431.049 179.701 431.786 179.382 432.303 179.129V182ZM439.58 182.132C441.956 182.132 443.683 180.339 443.683 178.15C443.683 175.939 441.978 174.168 439.602 174.168C437.226 174.168 435.499 175.961 435.499 178.15C435.499 180.361 437.204 182.132 439.58 182.132ZM439.602 180.57C438.238 180.57 437.27 179.47 437.27 178.15C437.27 176.808 438.216 175.73 439.58 175.73C440.944 175.73 441.912 176.83 441.912 178.15C441.912 179.492 440.966 180.57 439.602 180.57ZM445.186 182H446.88V179.646L447.771 178.722L450.158 182H452.193L448.915 177.567L452.05 174.3H450.004L446.88 177.666V174.3H445.186V182ZM393.891 196H394.602V193.777H396.132C397.473 193.777 398.607 193.075 398.607 191.716C398.607 190.456 397.671 189.7 396.249 189.7H393.891V196ZM394.602 193.129V190.357H396.195C397.212 190.357 397.887 190.825 397.887 191.725C397.887 192.571 397.203 193.129 396.159 193.129H394.602ZM399.822 192.112H403.962V191.446H399.822V192.112ZM399.822 194.218H403.962V193.552H399.822V194.218ZM407.982 196.108C409.602 196.108 410.646 194.614 410.646 192.85C410.646 191.068 409.62 189.592 408 189.592C406.38 189.592 405.327 191.086 405.327 192.85C405.327 194.632 406.353 196.108 407.982 196.108ZM408 195.46C406.821 195.46 406.065 194.227 406.065 192.85C406.065 191.446 406.803 190.24 407.982 190.24C409.152 190.24 409.908 191.473 409.908 192.85C409.908 194.245 409.179 195.46 408 195.46ZM411.895 196H412.723V195.055H411.895V196ZM416.621 196.108C418.241 196.108 419.285 194.614 419.285 192.85C419.285 191.068 418.259 189.592 416.639 189.592C415.019 189.592 413.966 191.086 413.966 192.85C413.966 194.632 414.992 196.108 416.621 196.108ZM416.639 195.46C415.46 195.46 414.704 194.227 414.704 192.85C414.704 191.446 415.442 190.24 416.621 190.24C417.791 190.24 418.547 191.473 418.547 192.85C418.547 194.245 417.818 195.46 416.639 195.46ZM422.641 196.108C423.811 196.108 424.747 195.334 424.747 194.209C424.747 193.039 423.766 192.508 422.668 192.418L424.648 190.222V189.7H420.625V190.339H423.703L421.714 192.58L421.858 193.003H422.263C423.298 193.003 424.027 193.435 424.027 194.218C424.027 194.974 423.415 195.46 422.65 195.46C421.876 195.46 421.291 195.118 420.805 194.524L420.292 194.983C420.805 195.649 421.588 196.108 422.641 196.108Z" fill="#2B9230"/>
<path d="M394.924 62H398.587C400.325 62 401.469 61.296 401.469 59.888C401.469 58.832 400.919 58.315 400.028 57.974C400.578 57.666 401.04 57.182 401.04 56.313C401.04 55.763 400.864 55.334 400.512 54.982C400.072 54.542 399.379 54.3 398.499 54.3H394.924V62ZM396.574 57.413V55.785H398.246C398.961 55.785 399.357 56.071 399.357 56.577C399.357 57.171 398.884 57.413 398.136 57.413H396.574ZM396.574 60.515V58.821H398.532C399.401 58.821 399.786 59.14 399.786 59.657C399.786 60.251 399.335 60.515 398.587 60.515H396.574ZM409.495 54.3H407.922L404.534 59.349V54.3H402.862V62H404.457L407.823 56.951V62H409.495V54.3ZM410.535 63.606H412.064L412.174 62H416.992V63.606H418.411L418.631 60.471H417.707V54.3H412.108V55.202C412.108 57.831 411.833 59.14 411.261 60.471H410.535V63.606ZM416.013 55.829V60.471H413.043C413.483 59.404 413.736 58.238 413.736 56.61V55.829H416.013ZM426.447 54.3H424.874L421.486 59.349V54.3H419.814V62H421.409L424.775 56.951V62H426.447V54.3ZM428.3 62H429.961V57.006L432.106 60.262H432.15L434.317 56.973V62H436V54.3H434.174L432.15 57.556L430.126 54.3H428.3V62ZM437.85 62H443.713V60.493H439.533V58.876H443.163V57.369H439.533V55.807H443.658V54.3H437.85V62ZM397.663 67.168C396.2 67.168 395.276 67.685 394.561 68.433L395.452 69.511C395.969 68.983 396.585 68.664 397.531 68.664C398.268 68.664 398.774 68.983 398.774 69.522C398.774 70.105 398.29 70.413 397.399 70.413H396.53V71.821H397.421C398.301 71.821 398.95 72.085 398.95 72.723C398.95 73.317 398.367 73.647 397.652 73.647C396.651 73.647 395.826 73.284 395.199 72.668L394.297 73.845C395.122 74.681 396.101 75.132 397.718 75.132C399.511 75.132 400.644 74.153 400.644 72.822C400.644 71.843 400.028 71.271 399.203 71.007C399.885 70.71 400.446 70.193 400.446 69.236C400.446 68.037 399.313 67.168 397.663 67.168ZM402.121 75H403.782V70.006L405.927 73.262H405.971L408.138 69.973V75H409.821V67.3H407.995L405.971 70.556L403.947 67.3H402.121V75ZM411.671 75H417.534V73.493H413.354V71.876H416.984V70.369H413.354V68.807H417.479V67.3H411.671V75ZM419.04 75H420.734V71.909H423.858V75H425.552V67.3H423.858V70.347H420.734V67.3H419.04V75ZM437.969 67.3H436.275V73.471H433.525V67.3H431.831V73.471H429.092V67.3H427.398V75H437.969V67.3ZM439.816 75H445.679V73.493H441.499V71.876H445.129V70.369H441.499V68.807H445.624V67.3H439.816V75ZM447.185 75H448.879V71.909H452.003V75H453.697V67.3H452.003V70.347H448.879V67.3H447.185V75ZM455.542 75H457.236V71.909H460.36V75H462.054V67.3H460.36V70.347H457.236V67.3H455.542V75ZM469.994 67.3H466.474C464.67 67.3 463.57 68.246 463.57 69.841C463.57 71.106 464.241 71.887 465.22 72.25L463.339 75H465.319L466.969 72.536H468.3V75H469.994V67.3ZM466.584 71.04C465.759 71.04 465.286 70.6 465.286 69.951C465.286 69.203 465.792 68.829 466.617 68.829H468.3V71.04H466.584ZM398.532 89.132C400.017 89.132 400.897 88.67 401.689 87.823L400.611 86.668C400.006 87.218 399.467 87.57 398.587 87.57C397.267 87.57 396.354 86.47 396.354 85.15C396.354 83.808 397.289 82.73 398.587 82.73C399.467 82.73 399.973 83.049 400.567 83.588L401.579 82.422C400.864 81.718 400.05 81.168 398.598 81.168C396.233 81.168 394.583 82.961 394.583 85.15C394.583 87.383 396.266 89.132 398.532 89.132ZM409.678 81.3H408.105L404.717 86.349V81.3H403.045V89H404.64L408.006 83.951V89H409.678V81.3ZM411.531 89H413.192V84.006L415.337 87.262H415.381L417.548 83.973V89H419.231V81.3H417.405L415.381 84.556L413.357 81.3H411.531V89ZM421.081 89H422.775V82.829H425.811V89H427.505V81.3H421.081V89ZM431.146 89H432.84V82.862H435.183V81.3H428.803V82.862H431.146V89ZM440.226 89.132C442.602 89.132 444.329 87.339 444.329 85.15C444.329 82.939 442.624 81.168 440.248 81.168C437.872 81.168 436.145 82.961 436.145 85.15C436.145 87.361 437.85 89.132 440.226 89.132ZM440.248 87.57C438.884 87.57 437.916 86.47 437.916 85.15C437.916 83.808 438.862 82.73 440.226 82.73C441.59 82.73 442.558 83.83 442.558 85.15C442.558 86.492 441.612 87.57 440.248 87.57ZM445.831 89H447.492V84.006L449.637 87.262H449.681L451.848 83.973V89H453.531V81.3H451.705L449.681 84.556L447.657 81.3H445.831V89ZM455.458 89H457.152V81.3H455.458V89ZM459.076 89H462.739C464.477 89 465.621 88.296 465.621 86.888C465.621 85.832 465.071 85.315 464.18 84.974C464.73 84.666 465.192 84.182 465.192 83.313C465.192 82.763 465.016 82.334 464.664 81.982C464.224 81.542 463.531 81.3 462.651 81.3H459.076V89ZM460.726 84.413V82.785H462.398C463.113 82.785 463.509 83.071 463.509 83.577C463.509 84.171 463.036 84.413 462.288 84.413H460.726ZM460.726 87.515V85.821H462.684C463.553 85.821 463.938 86.14 463.938 86.657C463.938 87.251 463.487 87.515 462.739 87.515H460.726ZM396.717 102H398.411V95.862H400.754V94.3H394.374V95.862H396.717V102ZM401.397 102H403.124L403.828 100.273H407.084L407.788 102H409.559L406.259 94.245H404.697L401.397 102ZM404.433 98.777L405.456 96.28L406.479 98.777H404.433ZM414.045 102H415.739V95.829H418.775V102H420.469V94.3H414.045V102ZM422.317 102H424.011V99.69H425.298C427.025 99.69 428.411 98.766 428.411 96.984C428.411 95.389 427.3 94.3 425.463 94.3H422.317V102ZM424.011 98.183V95.829H425.32C426.167 95.829 426.695 96.236 426.695 96.995C426.695 97.677 426.2 98.183 425.353 98.183H424.011ZM433.404 102.132C435.78 102.132 437.507 100.339 437.507 98.15C437.507 95.939 435.802 94.168 433.426 94.168C431.05 94.168 429.323 95.961 429.323 98.15C429.323 100.361 431.028 102.132 433.404 102.132ZM433.426 100.57C432.062 100.57 431.094 99.47 431.094 98.15C431.094 96.808 432.04 95.73 433.404 95.73C434.768 95.73 435.736 96.83 435.736 98.15C435.736 99.492 434.79 100.57 433.426 100.57ZM445.104 94.3H441.584C439.78 94.3 438.68 95.246 438.68 96.841C438.68 98.106 439.351 98.887 440.33 99.25L438.449 102H440.429L442.079 99.536H443.41V102H445.104V94.3ZM441.694 98.04C440.869 98.04 440.396 97.6 440.396 96.951C440.396 96.203 440.902 95.829 441.727 95.829H443.41V98.04H441.694ZM446.959 102H450.622C452.36 102 453.504 101.296 453.504 99.888C453.504 98.832 452.954 98.315 452.063 97.974C452.613 97.666 453.075 97.182 453.075 96.313C453.075 95.763 452.899 95.334 452.547 94.982C452.107 94.542 451.414 94.3 450.534 94.3H446.959V102ZM448.609 97.413V95.785H450.281C450.996 95.785 451.392 96.071 451.392 96.577C451.392 97.171 450.919 97.413 450.171 97.413H448.609ZM448.609 100.515V98.821H450.567C451.436 98.821 451.821 99.14 451.821 99.657C451.821 100.251 451.37 100.515 450.622 100.515H448.609ZM454.975 102H456.669V94.3H454.975V102ZM458.593 102H462.256C463.994 102 465.138 101.296 465.138 99.888C465.138 98.832 464.588 98.315 463.697 97.974C464.247 97.666 464.709 97.182 464.709 96.313C464.709 95.763 464.533 95.334 464.181 94.982C463.741 94.542 463.048 94.3 462.168 94.3H458.593V102ZM460.243 97.413V95.785H461.915C462.63 95.785 463.026 96.071 463.026 96.577C463.026 97.171 462.553 97.413 461.805 97.413H460.243ZM460.243 100.515V98.821H462.201C463.07 98.821 463.455 99.14 463.455 99.657C463.455 100.251 463.004 100.515 462.256 100.515H460.243ZM398.532 116.132C400.017 116.132 400.897 115.67 401.689 114.823L400.611 113.668C400.006 114.218 399.467 114.57 398.587 114.57C397.267 114.57 396.354 113.47 396.354 112.15C396.354 110.808 397.289 109.73 398.587 109.73C399.467 109.73 399.973 110.049 400.567 110.588L401.579 109.422C400.864 108.718 400.05 108.168 398.598 108.168C396.233 108.168 394.583 109.961 394.583 112.15C394.583 114.383 396.266 116.132 398.532 116.132ZM403.045 116H408.908V114.493H404.728V112.876H408.358V111.369H404.728V109.807H408.853V108.3H403.045V116ZM412.108 109.829H416.321V108.3H410.414V116H413.978C415.76 116 416.849 115.131 416.849 113.558C416.849 112.117 415.881 111.171 414.143 111.171H412.108V109.829ZM413.967 112.579C414.77 112.579 415.155 112.898 415.155 113.492C415.155 114.163 414.77 114.471 413.978 114.471H412.108V112.579H413.967ZM421.985 116.132C424.361 116.132 426.088 114.339 426.088 112.15C426.088 109.939 424.383 108.168 422.007 108.168C419.631 108.168 417.904 109.961 417.904 112.15C417.904 114.361 419.609 116.132 421.985 116.132ZM422.007 114.57C420.643 114.57 419.675 113.47 419.675 112.15C419.675 110.808 420.621 109.73 421.985 109.73C423.349 109.73 424.317 110.83 424.317 112.15C424.317 113.492 423.371 114.57 422.007 114.57ZM427.591 116H429.285V113.69H430.572C432.299 113.69 433.685 112.766 433.685 110.984C433.685 109.389 432.574 108.3 430.737 108.3H427.591V116ZM429.285 112.183V109.829H430.594C431.441 109.829 431.969 110.236 431.969 110.995C431.969 111.677 431.474 112.183 430.627 112.183H429.285ZM434.939 116H440.802V114.493H436.622V112.876H440.252V111.369H436.622V109.807H440.747V108.3H434.939V116ZM448.941 108.3H447.368L443.98 113.349V108.3H442.308V116H443.903L447.269 110.951V116H448.941V108.3ZM445.652 107.717C446.664 107.717 447.346 107.101 447.5 106.045L446.521 105.869C446.378 106.32 446.114 106.606 445.652 106.606C445.19 106.606 444.926 106.32 444.783 105.869L443.804 106.045C443.958 107.101 444.64 107.717 445.652 107.717ZM450.794 116H452.488V112.909H455.612V116H457.306V108.3H455.612V111.347H452.488V108.3H450.794V116ZM462.892 116.132C465.268 116.132 466.995 114.339 466.995 112.15C466.995 109.939 465.29 108.168 462.914 108.168C460.538 108.168 458.811 109.961 458.811 112.15C458.811 114.361 460.516 116.132 462.892 116.132ZM462.914 114.57C461.55 114.57 460.582 113.47 460.582 112.15C460.582 110.808 461.528 109.73 462.892 109.73C464.256 109.73 465.224 110.83 465.224 112.15C465.224 113.492 464.278 114.57 462.914 114.57ZM470.191 109.829H473.876V108.3H468.497V116H470.191V109.829ZM478.811 116.132C481.187 116.132 482.914 114.339 482.914 112.15C482.914 109.939 481.209 108.168 478.833 108.168C476.457 108.168 474.73 109.961 474.73 112.15C474.73 114.361 476.435 116.132 478.811 116.132ZM478.833 114.57C477.469 114.57 476.501 113.47 476.501 112.15C476.501 110.808 477.447 109.73 478.811 109.73C480.175 109.73 481.143 110.83 481.143 112.15C481.143 113.492 480.197 114.57 478.833 114.57ZM394.11 130.606H395.639L395.749 129H400.567V130.606H401.986L402.206 127.471H401.282V121.3H395.683V122.202C395.683 124.831 395.408 126.14 394.836 127.471H394.11V130.606ZM399.588 122.829V127.471H396.618C397.058 126.404 397.311 125.238 397.311 123.61V122.829H399.588ZM403.389 129H409.252V127.493H405.072V125.876H408.702V124.369H405.072V122.807H409.197V121.3H403.389V129ZM410.758 129H412.452V126.69H413.739C415.466 126.69 416.852 125.766 416.852 123.984C416.852 122.389 415.741 121.3 413.904 121.3H410.758V129ZM412.452 125.183V122.829H413.761C414.608 122.829 415.136 123.236 415.136 123.995C415.136 124.677 414.641 125.183 413.794 125.183H412.452ZM418.106 129H419.767V124.006L421.912 127.262H421.956L424.123 123.973V129H425.806V121.3H423.98L421.956 124.556L419.932 121.3H418.106V129ZM426.995 129H428.722L429.426 127.273H432.682L433.386 129H435.157L431.857 121.245H430.295L426.995 129ZM430.031 125.777L431.054 123.28L432.077 125.777H430.031ZM438.139 129H439.833V122.862H442.176V121.3H435.796V122.862H438.139V129ZM450.112 121.3H448.539L445.151 126.349V121.3H443.479V129H445.074L448.44 123.951V129H450.112V121.3ZM453.758 129H455.452V122.862H457.795V121.3H451.415V122.862H453.758V129ZM462.354 125.37L460.264 121.3H458.372L461.452 127.064C461.144 127.537 460.792 127.68 460.484 127.68C460.187 127.68 459.879 127.614 459.571 127.427L458.911 128.67C459.395 128.945 459.912 129.121 460.572 129.121C461.65 129.121 462.42 128.593 463.091 127.251L466.05 121.3H464.213L462.354 125.37ZM466.989 124.864H468.771V123.104H466.989V124.864ZM466.989 129H468.771V127.24H466.989V129Z" fill="black"/>
<path d="M207.015 61.314H208.266L208.356 60H212.298V61.314H213.459L213.639 58.749H212.883V53.7H208.302V54.438C208.302 56.589 208.077 57.66 207.609 58.749H207.015V61.314ZM211.497 54.951V58.749H209.067C209.427 57.876 209.634 56.922 209.634 55.59V54.951H211.497ZM214.607 60H219.404V58.767H215.984V57.444H218.954V56.211H215.984V54.933H219.359V53.7H214.607V60ZM220.636 60H222.022V58.11H223.075C224.488 58.11 225.622 57.354 225.622 55.896C225.622 54.591 224.713 53.7 223.21 53.7H220.636V60ZM222.022 56.877V54.951H223.093C223.786 54.951 224.218 55.284 224.218 55.905C224.218 56.463 223.813 56.877 223.12 56.877H222.022ZM226.648 60H228.034V58.074L228.763 57.318L230.716 60H232.381L229.699 56.373L232.264 53.7H230.59L228.034 56.454V53.7H226.648V60ZM236.282 60.108C238.226 60.108 239.639 58.641 239.639 56.85C239.639 55.041 238.244 53.592 236.3 53.592C234.356 53.592 232.943 55.059 232.943 56.85C232.943 58.659 234.338 60.108 236.282 60.108ZM236.3 58.83C235.184 58.83 234.392 57.93 234.392 56.85C234.392 55.752 235.166 54.87 236.282 54.87C237.398 54.87 238.19 55.77 238.19 56.85C238.19 57.948 237.416 58.83 236.3 58.83ZM243.82 60.108C245.035 60.108 245.755 59.73 246.403 59.037L245.521 58.092C245.026 58.542 244.585 58.83 243.865 58.83C242.785 58.83 242.038 57.93 242.038 56.85C242.038 55.752 242.803 54.87 243.865 54.87C244.585 54.87 244.999 55.131 245.485 55.572L246.313 54.618C245.728 54.042 245.062 53.592 243.874 53.592C241.939 53.592 240.589 55.059 240.589 56.85C240.589 58.677 241.966 60.108 243.82 60.108ZM249.545 61.314H250.796L250.886 60H254.828V61.314H255.989L256.169 58.749H255.413V53.7H250.832V54.438C250.832 56.589 250.607 57.66 250.139 58.749H249.545V61.314ZM254.027 54.951V58.749H251.597C251.957 57.876 252.164 56.922 252.164 55.59V54.951H254.027ZM260.089 60.108C261.304 60.108 262.024 59.73 262.672 59.037L261.79 58.092C261.295 58.542 260.854 58.83 260.134 58.83C259.054 58.83 258.307 57.93 258.307 56.85C258.307 55.752 259.072 54.87 260.134 54.87C260.854 54.87 261.268 55.131 261.754 55.572L262.582 54.618C261.997 54.042 261.331 53.592 260.143 53.592C258.208 53.592 256.858 55.059 256.858 56.85C256.858 58.677 258.235 60.108 260.089 60.108ZM267.326 60H268.694V53.655H267.749L265.94 54.195L266.228 55.329L267.326 55.059V60ZM272.975 60H274.361V58.11H275.414C276.827 58.11 277.961 57.354 277.961 55.896C277.961 54.591 277.052 53.7 275.549 53.7H272.975V60ZM274.361 56.877V54.951H275.432C276.125 54.951 276.557 55.284 276.557 55.905C276.557 56.463 276.152 56.877 275.459 56.877H274.361ZM278.446 60H279.859L280.435 58.587H283.099L283.675 60H285.124L282.424 53.655H281.146L278.446 60ZM280.93 57.363L281.767 55.32L282.604 57.363H280.93ZM288.338 53.592C287.141 53.592 286.385 54.015 285.8 54.627L286.529 55.509C286.952 55.077 287.456 54.816 288.23 54.816C288.833 54.816 289.247 55.077 289.247 55.518C289.247 55.995 288.851 56.247 288.122 56.247H287.411V57.399H288.14C288.86 57.399 289.391 57.615 289.391 58.137C289.391 58.623 288.914 58.893 288.329 58.893C287.51 58.893 286.835 58.596 286.322 58.092L285.584 59.055C286.259 59.739 287.06 60.108 288.383 60.108C289.85 60.108 290.777 59.307 290.777 58.218C290.777 57.417 290.273 56.949 289.598 56.733C290.156 56.49 290.615 56.067 290.615 55.284C290.615 54.303 289.688 53.592 288.338 53.592ZM290.977 61.152H292.138L296.125 52.818H294.964L290.977 61.152ZM298.225 60H299.611V54.978H301.528V53.7H296.308V54.978H298.225V60ZM308.021 53.7H306.734L303.962 57.831V53.7H302.594V60H303.899L306.653 55.869V60H308.021V53.7ZM314.505 60V58.326L315.333 57.426L317.115 60H318.771L316.278 56.427L318.681 53.7H317.034L314.505 56.643V53.7H313.128V56.643L310.599 53.7H308.952L311.355 56.427L308.862 60H310.518L312.291 57.426L313.128 58.326V60H314.505ZM318.944 61.314H320.195L320.285 60H324.227V61.314H325.388L325.568 58.749H324.812V53.7H320.231V54.438C320.231 56.589 320.006 57.66 319.538 58.749H318.944V61.314ZM323.426 54.951V58.749H320.996C321.356 57.876 321.563 56.922 321.563 55.59V54.951H323.426ZM326.535 60H331.332V58.767H327.912V57.444H330.882V56.211H327.912V54.933H331.287V53.7H326.535V60ZM332.565 60H333.951V57.471H336.507V60H337.893V53.7H336.507V56.193H333.951V53.7H332.565V60ZM339.402 60H342.039C343.515 60 344.433 59.181 344.433 57.885C344.433 56.652 343.587 55.842 342.129 55.842H340.788V53.7H339.402V60ZM342.012 57.03C342.705 57.03 343.056 57.336 343.056 57.867C343.056 58.452 342.705 58.749 342.021 58.749H340.788V57.03H342.012Z" fill="#2B9230"/>
<path d="M199.459 72H200.845V66.951H203.329V72H204.715V65.7H199.459V72ZM206.226 72H207.612V70.11H208.665C210.078 70.11 211.212 69.354 211.212 67.896C211.212 66.591 210.303 65.7 208.8 65.7H206.226V72ZM207.612 68.877V66.951H208.683C209.376 66.951 209.808 67.284 209.808 67.905C209.808 68.463 209.403 68.877 208.71 68.877H207.612ZM215.298 72.108C217.242 72.108 218.655 70.641 218.655 68.85C218.655 67.041 217.26 65.592 215.316 65.592C213.372 65.592 211.959 67.059 211.959 68.85C211.959 70.659 213.354 72.108 215.298 72.108ZM215.316 70.83C214.2 70.83 213.408 69.93 213.408 68.85C213.408 67.752 214.182 66.87 215.298 66.87C216.414 66.87 217.206 67.77 217.206 68.85C217.206 69.948 216.432 70.83 215.316 70.83ZM221.351 72H222.737V66.978H224.654V65.7H219.434V66.978H221.351V72ZM231.147 65.7H229.86L227.088 69.831V65.7H225.72V72H227.025L229.779 67.869V72H231.147V65.7ZM243.651 65.7H242.265V70.749H240.015V65.7H238.629V70.749H236.388V65.7H235.002V72H243.651V65.7ZM244.622 72H246.035L246.611 70.587H249.275L249.851 72H251.3L248.6 65.655H247.322L244.622 72ZM247.106 69.363L247.943 67.32L248.78 69.363H247.106ZM252.272 72H253.631V67.914L255.386 70.578H255.422L257.195 67.887V72H258.572V65.7H257.078L255.422 68.364L253.766 65.7H252.272V72ZM260.086 72H261.472V66.951H263.956V72H265.342V65.7H260.086V72ZM269.517 69.03L267.807 65.7H266.259L268.779 70.416C268.527 70.803 268.239 70.92 267.987 70.92C267.744 70.92 267.492 70.866 267.24 70.713L266.7 71.73C267.096 71.955 267.519 72.099 268.059 72.099C268.941 72.099 269.571 71.667 270.12 70.569L272.541 65.7H271.038L269.517 69.03ZM273.463 72H274.849V69.471H277.405V72H278.791V65.7H277.405V68.193H274.849V65.7H273.463V72ZM285.574 72.108C287.383 72.108 288.652 70.659 288.652 68.85C288.652 67.023 287.392 65.592 285.592 65.592C283.999 65.592 282.82 66.717 282.559 68.211H281.686V65.7H280.3V72H281.686V69.453H282.55C282.793 70.983 283.963 72.108 285.574 72.108ZM285.592 70.848C284.611 70.848 283.945 69.966 283.945 68.85C283.945 67.716 284.602 66.861 285.574 66.861C286.546 66.861 287.221 67.743 287.221 68.85C287.221 69.984 286.564 70.848 285.592 70.848ZM292.588 72H293.974V66.951H296.458V72H297.844V65.7H292.588V72ZM302.415 72.108C304.359 72.108 305.772 70.641 305.772 68.85C305.772 67.041 304.377 65.592 302.433 65.592C300.489 65.592 299.076 67.059 299.076 68.85C299.076 70.659 300.471 72.108 302.415 72.108ZM302.433 70.83C301.317 70.83 300.525 69.93 300.525 68.85C300.525 67.752 301.299 66.87 302.415 66.87C303.531 66.87 304.323 67.77 304.323 68.85C304.323 69.948 303.549 70.83 302.433 70.83ZM307.002 72H308.388V70.11H309.441C310.854 70.11 311.988 69.354 311.988 67.896C311.988 66.591 311.079 65.7 309.576 65.7H307.002V72ZM308.388 68.877V66.951H309.459C310.152 66.951 310.584 67.284 310.584 67.905C310.584 68.463 310.179 68.877 309.486 68.877H308.388ZM313.076 72H314.462V65.7H313.076V72ZM316.037 72H319.034C320.456 72 321.392 71.424 321.392 70.272C321.392 69.408 320.942 68.985 320.213 68.706C320.663 68.454 321.041 68.058 321.041 67.347C321.041 66.897 320.897 66.546 320.609 66.258C320.249 65.898 319.682 65.7 318.962 65.7H316.037V72ZM317.387 68.247V66.915H318.755C319.34 66.915 319.664 67.149 319.664 67.563C319.664 68.049 319.277 68.247 318.665 68.247H317.387ZM317.387 70.785V69.399H318.989C319.7 69.399 320.015 69.66 320.015 70.083C320.015 70.569 319.646 70.785 319.034 70.785H317.387ZM322.532 72H323.918V69.471H326.474V72H327.86V65.7H326.474V68.193H323.918V65.7H322.532V72ZM334.356 65.7H331.476C330 65.7 329.1 66.474 329.1 67.779C329.1 68.814 329.649 69.453 330.45 69.75L328.911 72H330.531L331.881 69.984H332.97V72H334.356V65.7ZM331.566 68.76C330.891 68.76 330.504 68.4 330.504 67.869C330.504 67.257 330.918 66.951 331.593 66.951H332.97V68.76H331.566ZM335.874 72H337.26V69.471H339.816V72H341.202V65.7H339.816V68.193H337.26V65.7H335.874V72ZM342.712 72H344.098V69.471H346.654V72H348.04V65.7H346.654V68.193H344.098V65.7H342.712V72ZM354.535 65.7H351.655C350.179 65.7 349.279 66.474 349.279 67.779C349.279 68.814 349.828 69.453 350.629 69.75L349.09 72H350.71L352.06 69.984H353.149V72H354.535V65.7ZM351.745 68.76C351.07 68.76 350.683 68.4 350.683 67.869C350.683 67.257 351.097 66.951 351.772 66.951H353.149V68.76H351.745Z" fill="black"/>
<path d="M67.5062 60H68.8922V54.978H70.8092V53.7H65.5892V54.978H67.5062V60ZM74.9351 60.108C76.8791 60.108 78.2921 58.641 78.2921 56.85C78.2921 55.041 76.8971 53.592 74.9531 53.592C73.0091 53.592 71.5961 55.059 71.5961 56.85C71.5961 58.659 72.9911 60.108 74.9351 60.108ZM74.9531 58.83C73.8371 58.83 73.0451 57.93 73.0451 56.85C73.0451 55.752 73.8191 54.87 74.9351 54.87C76.0511 54.87 76.8431 55.77 76.8431 56.85C76.8431 57.948 76.0691 58.83 74.9531 58.83ZM79.5216 60H80.9076V54.951H83.3916V60H84.7776V53.7H79.5216V60ZM86.3522 60H87.7382V53.7H86.3522V60ZM92.9666 60H94.3526V53.7H92.9666V56.418C92.6786 56.643 92.1476 56.823 91.5896 56.823C90.8786 56.823 90.5726 56.382 90.5726 55.599V53.7H89.1866V56.004C89.1866 57.462 90.0506 58.119 91.3016 58.119C91.9406 58.119 92.5436 57.858 92.9666 57.651V60ZM95.8605 60H97.2465V57.471H99.8025V60H101.188V53.7H99.8025V56.193H97.2465V53.7H95.8605V60ZM102.761 60H104.147V53.7H102.761V60ZM109.806 54.951H112.821V53.7H108.42V60H109.806V54.951ZM113.799 60H115.185V58.074L115.914 57.318L117.867 60H119.532L116.85 56.373L119.415 53.7H117.741L115.185 56.454V53.7H113.799V60ZM123.325 60.108C124.54 60.108 125.26 59.73 125.908 59.037L125.026 58.092C124.531 58.542 124.09 58.83 123.37 58.83C122.29 58.83 121.543 57.93 121.543 56.85C121.543 55.752 122.308 54.87 123.37 54.87C124.09 54.87 124.504 55.131 124.99 55.572L125.818 54.618C125.233 54.042 124.567 53.592 123.379 53.592C121.444 53.592 120.094 55.059 120.094 56.85C120.094 58.677 121.471 60.108 123.325 60.108ZM131.201 59.073H132.479V57.453H134.108V56.211H132.479V54.591H131.201V56.211H129.572V57.453H131.201V59.073ZM45.7353 72.108C46.9503 72.108 47.6703 71.73 48.3183 71.037L47.4363 70.092C46.9413 70.542 46.5003 70.83 45.7803 70.83C44.7003 70.83 43.9533 69.93 43.9533 68.85C43.9533 67.752 44.7183 66.87 45.7803 66.87C46.5003 66.87 46.9143 67.131 47.4003 67.572L48.2283 66.618C47.6433 66.042 46.9773 65.592 45.7893 65.592C43.8543 65.592 42.5043 67.059 42.5043 68.85C42.5043 70.677 43.8813 72.108 45.7353 72.108ZM48.8879 72H50.3009L50.8769 70.587H53.5409L54.1169 72H55.5659L52.8659 65.655H51.5879L48.8879 72ZM51.3719 69.363L52.2089 67.32L53.0459 69.363H51.3719ZM57.3752 65.7V67.005C57.3752 70.398 56.9522 70.875 56.2052 70.875C56.1152 70.875 56.0522 70.866 55.9892 70.857L55.8992 72C56.0702 72.045 56.4032 72.081 56.6282 72.081C58.0682 72.081 58.6712 71.136 58.6712 67.428V66.951H60.4892V72H61.8752V65.7H57.3752ZM63.4479 72H64.8339V65.7H63.4479V72ZM71.0793 73.314H72.2313L72.4113 70.749H71.6643V65.7H70.2783V70.749H67.7943V65.7H66.4083V72H71.0793V73.314ZM78.8139 65.7H77.5269L74.7549 69.831V65.7H73.3869V72H74.6919L77.4459 67.869V72H78.8139V65.7ZM81.1672 65.7V67.005C81.1672 70.398 80.7442 70.875 79.9972 70.875C79.9072 70.875 79.8442 70.866 79.7812 70.857L79.6912 72C79.8622 72.045 80.1952 72.081 80.4202 72.081C81.8602 72.081 82.4632 71.136 82.4632 67.428V66.951H84.2812V72H85.6672V65.7H81.1672ZM90.2369 72.108C92.1809 72.108 93.5939 70.641 93.5939 68.85C93.5939 67.041 92.1989 65.592 90.2549 65.592C88.3109 65.592 86.8979 67.059 86.8979 68.85C86.8979 70.659 88.2929 72.108 90.2369 72.108ZM90.2549 70.83C89.1389 70.83 88.3469 69.93 88.3469 68.85C88.3469 67.752 89.1209 66.87 90.2369 66.87C91.3529 66.87 92.1449 67.77 92.1449 68.85C92.1449 69.948 91.3709 70.83 90.2549 70.83ZM94.8234 72H97.8204C99.2424 72 100.178 71.424 100.178 70.272C100.178 69.408 99.7284 68.985 98.9994 68.706C99.4494 68.454 99.8274 68.058 99.8274 67.347C99.8274 66.897 99.6834 66.546 99.3954 66.258C99.0354 65.898 98.4684 65.7 97.7484 65.7H94.8234V72ZM96.1734 68.247V66.915H97.5414C98.1264 66.915 98.4504 67.149 98.4504 67.563C98.4504 68.049 98.0634 68.247 97.4514 68.247H96.1734ZM96.1734 70.785V69.399H97.7754C98.4864 69.399 98.8014 69.66 98.8014 70.083C98.8014 70.569 98.4324 70.785 97.8204 70.785H96.1734ZM100.779 72H102.192L102.768 70.587H105.432L106.008 72H107.457L104.757 65.655H103.479L100.779 72ZM103.263 69.363L104.1 67.32L104.937 69.363H103.263ZM111.127 72H112.513V70.074L113.242 69.318L115.195 72H116.86L114.178 68.373L116.743 65.7H115.069L112.513 68.454V65.7H111.127V72ZM123.128 65.7H121.841L119.069 69.831V65.7H117.701V72H119.006L121.76 67.869V72H123.128V65.7ZM127.597 72.108C128.812 72.108 129.532 71.73 130.18 71.037L129.298 70.092C128.803 70.542 128.362 70.83 127.642 70.83C126.562 70.83 125.815 69.93 125.815 68.85C125.815 67.752 126.58 66.87 127.642 66.87C128.362 66.87 128.776 67.131 129.262 67.572L130.09 66.618C129.505 66.042 128.839 65.592 127.651 65.592C125.716 65.592 124.366 67.059 124.366 68.85C124.366 70.677 125.743 72.108 127.597 72.108ZM132.126 65.7V67.005C132.126 70.398 131.703 70.875 130.956 70.875C130.866 70.875 130.803 70.866 130.74 70.857L130.65 72C130.821 72.045 131.154 72.081 131.379 72.081C132.819 72.081 133.422 71.136 133.422 67.428V66.951H135.24V72H136.626V65.7H132.126ZM141.196 72.108C143.14 72.108 144.553 70.641 144.553 68.85C144.553 67.041 143.158 65.592 141.214 65.592C139.27 65.592 137.857 67.059 137.857 68.85C137.857 70.659 139.252 72.108 141.196 72.108ZM141.214 70.83C140.098 70.83 139.306 69.93 139.306 68.85C139.306 67.752 140.08 66.87 141.196 66.87C142.312 66.87 143.104 67.77 143.104 68.85C143.104 69.948 142.33 70.83 141.214 70.83ZM147.249 72H148.635V66.978H150.552V65.7H145.332V66.978H147.249V72ZM151.078 72H152.491L153.067 70.587H155.731L156.307 72H157.756L155.056 65.655H153.778L151.078 72ZM153.562 69.363L154.399 67.32L155.236 69.363H153.562Z" fill="black"/>
<path d="M48.3339 11.896C46.0729 11.896 44.6449 12.695 43.5399 13.851L44.9169 15.517C45.7159 14.701 46.6679 14.208 48.1299 14.208C49.2689 14.208 50.0509 14.701 50.0509 15.534C50.0509 16.435 49.3029 16.911 47.9259 16.911H46.5829V19.087H47.9599C49.3199 19.087 50.3229 19.495 50.3229 20.481C50.3229 21.399 49.4219 21.909 48.3169 21.909C46.7699 21.909 45.4949 21.348 44.5259 20.396L43.1319 22.215C44.4069 23.507 45.9199 24.204 48.4189 24.204C51.1899 24.204 52.9409 22.691 52.9409 20.634C52.9409 19.121 51.9889 18.237 50.7139 17.829C51.7679 17.37 52.6349 16.571 52.6349 15.092C52.6349 13.239 50.8839 11.896 48.3339 11.896ZM55.2239 24H57.7909V16.282L61.1059 21.314H61.1739L64.5229 16.231V24H67.1239V12.1H64.3019L61.1739 17.132L58.0459 12.1H55.2239V24ZM69.9827 24H79.0437V21.671H72.5837V19.172H78.1937V16.843H72.5837V14.429H78.9587V12.1H69.9827V24ZM81.3714 24H83.9894V19.223H88.8174V24H91.4354V12.1H88.8174V16.809H83.9894V12.1H81.3714V24ZM110.624 12.1H108.006V21.637H103.756V12.1H101.138V21.637H96.9054V12.1H94.2874V24H110.624V12.1ZM118.511 18.39L115.281 12.1H112.357L117.117 21.008C116.641 21.739 116.097 21.96 115.621 21.96C115.162 21.96 114.686 21.858 114.21 21.569L113.19 23.49C113.938 23.915 114.737 24.187 115.757 24.187C117.423 24.187 118.613 23.371 119.65 21.297L124.223 12.1H121.384L118.511 18.39ZM133.12 16.911H128.258C128.683 15.364 129.975 14.242 131.624 14.242C132.814 14.242 133.834 14.701 134.735 15.5L136.18 13.698C135.109 12.695 133.783 11.896 131.641 11.896C127.986 11.896 125.436 14.667 125.436 18.05C125.436 21.501 128.037 24.204 131.539 24.204C133.834 24.204 135.279 23.507 136.503 22.198L134.888 20.447C133.936 21.314 133.018 21.858 131.624 21.858C129.907 21.858 128.632 20.685 128.241 19.087H133.12V16.911ZM143.528 24H146.146V20.362L147.523 18.934L151.212 24H154.357L149.291 17.149L154.136 12.1H150.974L146.146 17.302V12.1H143.528V24ZM157.527 12.1V14.565C157.527 20.974 156.728 21.875 155.317 21.875C155.147 21.875 155.028 21.858 154.909 21.841L154.739 24C155.062 24.085 155.691 24.153 156.116 24.153C158.836 24.153 159.975 22.368 159.975 15.364V14.463H163.409V24H166.027V12.1H157.527ZM168.997 24H171.615V12.1H168.997V24ZM174.589 24H177.207V19.223H182.035V24H184.653V12.1H182.035V16.809H177.207V12.1H174.589V24ZM187.624 24H190.242V12.1H187.624V24ZM200.118 24H202.736V12.1H200.118V17.234C199.574 17.659 198.571 17.999 197.517 17.999C196.174 17.999 195.596 17.166 195.596 15.687V12.1H192.978V16.452C192.978 19.206 194.61 20.447 196.973 20.447C198.18 20.447 199.319 19.954 200.118 19.563V24ZM205.584 24H208.202V19.223H213.03V24H215.648V12.1H213.03V16.809H208.202V12.1H205.584V24ZM218.619 24H221.237V12.1H218.619V24ZM229.308 24H231.926V14.463H236.618V24H239.236V12.1H229.308V24ZM242.091 24H244.709V20.43H246.698C249.367 20.43 251.509 19.002 251.509 16.248C251.509 13.783 249.792 12.1 246.953 12.1H242.091V24ZM244.709 18.101V14.463H246.732C248.041 14.463 248.857 15.092 248.857 16.265C248.857 17.319 248.092 18.101 246.783 18.101H244.709ZM259.227 24.204C262.899 24.204 265.568 21.433 265.568 18.05C265.568 14.633 262.933 11.896 259.261 11.896C255.589 11.896 252.92 14.667 252.92 18.05C252.92 21.467 255.555 24.204 259.227 24.204ZM259.261 21.79C257.153 21.79 255.657 20.09 255.657 18.05C255.657 15.976 257.119 14.31 259.227 14.31C261.335 14.31 262.831 16.01 262.831 18.05C262.831 20.124 261.369 21.79 259.261 21.79ZM277.308 12.1H271.868C269.08 12.1 267.38 13.562 267.38 16.027C267.38 17.982 268.417 19.189 269.93 19.75L267.023 24H270.083L272.633 20.192H274.69V24H277.308V12.1ZM272.038 17.88C270.763 17.88 270.032 17.2 270.032 16.197C270.032 15.041 270.814 14.463 272.089 14.463H274.69V17.88H272.038ZM280.175 24H285.836C288.522 24 290.29 22.912 290.29 20.736C290.29 19.104 289.44 18.305 288.063 17.778C288.913 17.302 289.627 16.554 289.627 15.211C289.627 14.361 289.355 13.698 288.811 13.154C288.131 12.474 287.06 12.1 285.7 12.1H280.175V24ZM282.725 16.911V14.395H285.309C286.414 14.395 287.026 14.837 287.026 15.619C287.026 16.537 286.295 16.911 285.139 16.911H282.725ZM282.725 21.705V19.087H285.751C287.094 19.087 287.689 19.58 287.689 20.379C287.689 21.297 286.992 21.705 285.836 21.705H282.725ZM302.695 12.1H300.264L295.028 19.903V12.1H292.444V24H294.909L300.111 16.197V24H302.695V12.1ZM313.427 24H316.045V14.514H319.666V12.1H309.806V14.514H313.427V24ZM320.659 24H323.328L324.416 21.331H329.448L330.536 24H333.273L328.173 12.015H325.759L320.659 24ZM325.351 19.019L326.932 15.16L328.513 19.019H325.351ZM345.782 24.204C348.077 24.204 349.437 23.49 350.661 22.181L348.995 20.396C348.06 21.246 347.227 21.79 345.867 21.79C343.827 21.79 342.416 20.09 342.416 18.05C342.416 15.976 343.861 14.31 345.867 14.31C347.227 14.31 348.009 14.803 348.927 15.636L350.491 13.834C349.386 12.746 348.128 11.896 345.884 11.896C342.229 11.896 339.679 14.667 339.679 18.05C339.679 21.501 342.28 24.204 345.782 24.204ZM363.008 12.1H360.577L355.341 19.903V12.1H352.757V24H355.222L360.424 16.197V24H363.008V12.1ZM365.872 24H368.439V16.282L371.754 21.314H371.822L375.171 16.231V24H377.772V12.1H374.95L371.822 17.132L368.694 12.1H365.872V24ZM380.631 24H383.249V14.463H387.941V24H390.559V12.1H380.631V24ZM396.185 24H398.803V14.514H402.424V12.1H392.564V14.514H396.185V24ZM410.218 24.204C413.89 24.204 416.559 21.433 416.559 18.05C416.559 14.633 413.924 11.896 410.252 11.896C406.58 11.896 403.911 14.667 403.911 18.05C403.911 21.467 406.546 24.204 410.218 24.204ZM410.252 21.79C408.144 21.79 406.648 20.09 406.648 18.05C406.648 15.976 408.11 14.31 410.218 14.31C412.326 14.31 413.822 16.01 413.822 18.05C413.822 20.124 412.36 21.79 410.252 21.79ZM418.881 24H421.448V16.282L424.763 21.314H424.831L428.18 16.231V24H430.781V12.1H427.959L424.831 17.132L421.703 12.1H418.881V24ZM443.891 12.1H441.46L436.224 19.903V12.1H433.64V24H436.105L441.307 16.197V24H443.891V12.1Z" fill="white"/>
</svg>
