<svg width="619" height="349" viewBox="0 0 619 349" fill="none" xmlns="http://www.w3.org/2000/svg">
<line x1="76" y1="310" x2="55" y2="310" stroke="black" stroke-width="2"/>
<line x1="303" y1="296" x2="282" y2="296" stroke="#949494" stroke-width="2"/>
<line x1="303" y1="312" x2="282" y2="312" stroke="#2B9230" stroke-width="2"/>
<rect x="271.5" y="60.5" width="321" height="265" fill="white" stroke="#2B9230" stroke-dasharray="4 4"/>
<rect x="46.5" y="60.5" width="220" height="265" stroke="black" stroke-opacity="0.61"/>
<rect x="271.5" y="0.5" width="321" height="55" fill="white" fill-opacity="0.61" stroke="#2B9230" stroke-dasharray="4 4"/>
<rect x="46" width="221" height="56" fill="#505050" fill-opacity="0.61"/>
<path d="M267.5 257.5L433 256.5L513 246.5L591.5 249.5" stroke="#949494" stroke-width="2" stroke-linecap="round"/>
<circle cx="513.5" cy="246.5" r="3.5" fill="#949494"/>
<circle cx="592.5" cy="249.5" r="3.5" fill="#949494"/>
<circle cx="434.5" cy="256.5" r="3.5" fill="#949494"/>
<circle cx="265.5" cy="258.5" r="3.5" fill="#949494"/>
<circle cx="47.5" cy="168.5" r="3.5" fill="black"/>
<circle cx="203.5" cy="243.5" r="3.5" fill="black"/>
<path d="M47 168.5L148 220.5L207.5 245L264.5 258.5" stroke="black" stroke-width="2" stroke-linecap="round"/>
<circle cx="148.5" cy="221.5" r="3.5" fill="black"/>
<path d="M267.555 258.501C267.003 258.471 266.532 258.894 266.501 259.445C266.471 259.997 266.894 260.468 267.445 260.499L267.555 258.501ZM432 268.5L432.367 267.57L432.217 267.51L432.055 267.501L432 268.5ZM513 300.5L512.633 301.43L512.868 301.523L513.12 301.493L513 300.5ZM267.445 260.499L431.945 269.499L432.055 267.501L267.555 258.501L267.445 260.499ZM431.633 269.43L512.633 301.43L513.367 299.57L432.367 267.57L431.633 269.43ZM513.12 301.493L591.62 291.993L591.38 290.007L512.88 299.507L513.12 301.493Z" fill="#2B9230"/>
<circle cx="434.5" cy="268.5" r="3.5" fill="#2B9230"/>
<circle cx="513.5" cy="300.5" r="3.5" fill="#2B9230"/>
<circle cx="592.5" cy="291.5" r="3.5" fill="#2B9230"/>
<path fill-rule="evenodd" clip-rule="evenodd" d="M290 196H242V228H258.494L266 241L273.506 228H290V196Z" fill="#949494"/>
<path d="M561.101 238H561.948V234.744C561.948 233.677 562.674 232.962 563.653 232.962C564.654 232.962 565.226 233.622 565.226 234.678V238H566.073V234.469C566.073 233.116 565.27 232.192 563.895 232.192C562.916 232.192 562.322 232.687 561.948 233.303V232.313H561.101V238ZM567.924 233.248H572.984V232.434H567.924V233.248ZM567.924 235.822H572.984V235.008H567.924V235.822ZM577.391 238.132C578.821 238.132 579.965 237.186 579.965 235.811C579.965 234.381 578.766 233.732 577.424 233.622L579.844 230.938V230.3H574.927V231.081H578.689L576.258 233.82L576.434 234.337H576.929C578.194 234.337 579.085 234.865 579.085 235.822C579.085 236.746 578.337 237.34 577.402 237.34C576.456 237.34 575.741 236.922 575.147 236.196L574.52 236.757C575.147 237.571 576.104 238.132 577.391 238.132ZM581.954 238H582.922L586.42 230.949V230.3H581.195V231.092H585.43L581.954 238Z" fill="#505050"/>
<path d="M561.101 238H561.948V234.744C561.948 233.677 562.674 232.962 563.653 232.962C564.654 232.962 565.226 233.622 565.226 234.678V238H566.073V234.469C566.073 233.116 565.27 232.192 563.895 232.192C562.916 232.192 562.322 232.687 561.948 233.303V232.313H561.101V238ZM567.924 233.248H572.984V232.434H567.924V233.248ZM567.924 235.822H572.984V235.008H567.924V235.822ZM577.391 238.132C578.821 238.132 579.965 237.186 579.965 235.811C579.965 234.381 578.766 233.732 577.424 233.622L579.844 230.938V230.3H574.927V231.081H578.689L576.258 233.82L576.434 234.337H576.929C578.194 234.337 579.085 234.865 579.085 235.822C579.085 236.746 578.337 237.34 577.402 237.34C576.456 237.34 575.741 236.922 575.147 236.196L574.52 236.757C575.147 237.571 576.104 238.132 577.391 238.132ZM581.954 238H582.922L586.42 230.949V230.3H581.195V231.092H585.43L581.954 238Z" fill="#505050"/>
<path d="M563.443 283H564.29V279.744C564.29 278.677 565.016 277.962 565.995 277.962C566.996 277.962 567.568 278.622 567.568 279.678V283H568.415V279.469C568.415 278.116 567.612 277.192 566.237 277.192C565.258 277.192 564.664 277.687 564.29 278.303V277.313H563.443V283ZM570.265 278.248H575.325V277.434H570.265V278.248ZM570.265 280.822H575.325V280.008H570.265V280.822ZM579.733 283.132C581.163 283.132 582.307 282.186 582.307 280.811C582.307 279.381 581.108 278.732 579.766 278.622L582.186 275.938V275.3H577.269V276.081H581.031L578.6 278.82L578.776 279.337H579.271C580.536 279.337 581.427 279.865 581.427 280.822C581.427 281.746 580.679 282.34 579.744 282.34C578.798 282.34 578.083 281.922 577.489 281.196L576.862 281.757C577.489 282.571 578.446 283.132 579.733 283.132ZM585.027 283H585.885V275.245H585.247L583.366 275.894L583.575 276.598L585.027 276.147V283Z" fill="#505050"/>
<path d="M259.353 218H261.971V214.192H263.994L266.578 218H269.638L266.731 213.75C268.244 213.189 269.281 211.982 269.281 210.061C269.281 208.905 268.924 207.97 268.261 207.307C267.479 206.525 266.306 206.1 264.793 206.1H259.353V218ZM261.971 211.88V208.463H264.572C265.847 208.463 266.629 209.041 266.629 210.163C266.629 211.2 265.898 211.88 264.623 211.88H261.971ZM271.264 218H274.018V215.28H271.264V218Z" fill="white"/>
<path d="M587.352 203.633H587.924L587.814 202.258L588.947 203.061L589.244 202.544L587.968 201.961L589.244 201.367L588.947 200.861L587.814 201.653L587.924 200.278H587.352L587.462 201.653L586.329 200.861L586.032 201.367L587.308 201.961L586.032 202.544L586.329 203.061L587.462 202.258L587.352 203.633Z" fill="#505050"/>
<path d="M514.352 204.633H514.924L514.814 203.258L515.947 204.061L516.244 203.544L514.968 202.961L516.244 202.367L515.947 201.861L514.814 202.653L514.924 201.278H514.352L514.462 202.653L513.329 201.861L513.032 202.367L514.308 202.961L513.032 203.544L513.329 204.061L514.462 203.258L514.352 204.633Z" fill="#505050"/>
<path d="M584.352 213.633H584.924L584.814 212.258L585.947 213.061L586.244 212.544L584.968 211.961L586.244 211.367L585.947 210.861L584.814 211.653L584.924 210.278H584.352L584.462 211.653L583.329 210.861L583.032 211.367L584.308 211.961L583.032 212.544L583.329 213.061L584.462 212.258L584.352 213.633Z" fill="#505050"/>
<path d="M26.2822 66H27.9542V58.245H26.7992L24.5882 58.905L24.9402 60.291L26.2822 59.961V66ZM32.9688 66.132C35.0258 66.132 36.4008 64.383 36.4008 62.15C36.4008 59.895 35.0258 58.168 32.9908 58.168C30.9448 58.168 29.5588 59.917 29.5588 62.15C29.5588 64.405 30.9118 66.132 32.9688 66.132ZM32.9908 64.603C31.9678 64.603 31.2968 63.558 31.2968 62.15C31.2968 60.72 31.9568 59.697 32.9688 59.697C33.9808 59.697 34.6628 60.753 34.6628 62.15C34.6628 63.569 34.0138 64.603 32.9908 64.603ZM33.0388 92.132C35.2278 92.132 36.4048 90.427 36.4048 87.93C36.4048 86.39 36.0418 85.554 35.4918 85.004C34.9088 84.421 34.3038 84.168 33.2698 84.168C31.5318 84.168 30.3328 85.312 30.3328 86.863C30.3328 88.447 31.4108 89.371 33.0828 89.371C33.7538 89.371 34.2708 89.162 34.6448 88.843C34.5348 89.877 34.0288 90.592 33.0828 90.592C32.4338 90.592 31.9608 90.383 31.3998 89.932L30.5088 91.219C31.1578 91.758 31.9168 92.132 33.0388 92.132ZM33.3578 87.963C32.5218 87.963 32.0158 87.49 32.0158 86.808C32.0158 86.104 32.4888 85.62 33.3248 85.62C34.1718 85.62 34.6778 86.115 34.6778 86.797C34.6778 87.479 34.1938 87.963 33.3578 87.963ZM33.5363 118.11C35.2413 118.11 36.5063 117.274 36.5063 115.844C36.5063 114.909 36.0443 114.414 35.2633 114.007C35.8573 113.644 36.2423 113.149 36.2423 112.324C36.2423 111.114 35.1643 110.19 33.5363 110.19C31.9083 110.19 30.8303 111.125 30.8303 112.302C30.8303 113.149 31.2153 113.644 31.8093 114.007C30.9953 114.381 30.5663 114.931 30.5663 115.866C30.5663 117.23 31.8313 118.11 33.5363 118.11ZM33.5363 113.446C32.8653 113.446 32.4363 113.039 32.4363 112.5C32.4363 112.005 32.8433 111.587 33.5363 111.587C34.2293 111.587 34.6363 112.016 34.6363 112.489C34.6363 113.05 34.2073 113.446 33.5363 113.446ZM33.5363 116.713C32.7003 116.713 32.2053 116.284 32.2053 115.756C32.2053 115.14 32.7663 114.788 33.5363 114.788C34.3063 114.788 34.8673 115.14 34.8673 115.734C34.8673 116.295 34.3723 116.713 33.5363 116.713ZM31.1135 144H33.0275L36.4815 137.576V136.3H30.9375V137.763H34.5565L31.1135 144ZM33.4458 170.132C35.1178 170.132 36.3828 169.043 36.3828 167.47C36.3828 165.842 35.2058 164.995 33.6768 164.995C32.9178 164.995 32.4668 165.237 32.0818 165.49C32.1918 164.478 32.6758 163.708 33.6328 163.708C34.2928 163.708 34.6998 163.939 35.2058 164.324L36.0968 163.015C35.4148 162.476 34.7328 162.168 33.6878 162.168C31.3888 162.168 30.3108 163.994 30.3108 166.37C30.3108 167.921 30.6628 168.746 31.2238 169.307C31.7628 169.846 32.4448 170.132 33.4458 170.132ZM33.3798 168.68C32.5438 168.68 32.0378 168.185 32.0378 167.536C32.0378 166.865 32.5218 166.403 33.3578 166.403C34.1938 166.403 34.6998 166.876 34.6998 167.525C34.6998 168.207 34.2158 168.68 33.3798 168.68ZM33.4263 196.132C35.1973 196.132 36.3523 195.098 36.3523 193.47C36.3523 191.71 35.1533 190.984 33.6573 190.984C33.2283 190.984 32.9533 191.039 32.6453 191.116L32.7333 189.785H36.0113V188.3H31.2813L31.0613 192.095L32.0403 192.744C32.4033 192.59 32.8433 192.458 33.3273 192.458C34.1303 192.458 34.6913 192.843 34.6913 193.503C34.6913 194.207 34.1963 194.592 33.4043 194.592C32.7223 194.592 32.1503 194.284 31.5673 193.756L30.5443 194.977C31.2923 195.692 32.1943 196.132 33.4263 196.132ZM33.794 222H35.411V220.339H36.445V218.964H35.411V214.245H33.981L29.757 219.14L30.032 220.339H33.794V222ZM31.748 218.964L33.794 216.566V218.964H31.748ZM33.589 248.132C35.305 248.132 36.361 247.065 36.361 245.613C36.361 244.161 35.338 243.611 34.293 243.435L36.24 241.576V240.3H31.037V241.752H34.062L32.225 243.6L32.489 244.678H33.193C34.139 244.678 34.7 245.03 34.7 245.657C34.7 246.251 34.249 246.614 33.611 246.614C32.83 246.614 32.28 246.284 31.752 245.69L30.586 246.801C31.246 247.582 32.203 248.132 33.589 248.132ZM30.6855 274H36.3835V272.537H33.0285L34.2825 271.569C35.6465 270.513 36.3065 269.875 36.3065 268.588C36.3065 267.125 35.2505 266.19 33.6555 266.19C32.2805 266.19 31.5435 266.751 30.7845 267.785L31.9725 268.742C32.5445 268.038 32.9515 267.708 33.5455 267.708C34.1505 267.708 34.5795 268.06 34.5795 268.709C34.5795 269.347 34.2055 269.765 33.2485 270.557L30.6855 272.658V274ZM34.3174 300H35.9894V292.245H34.8344L32.6234 292.905L32.9754 294.291L34.3174 293.961V300ZM32.9688 326.132C35.0258 326.132 36.4008 324.383 36.4008 322.15C36.4008 319.895 35.0258 318.168 32.9908 318.168C30.9448 318.168 29.5588 319.917 29.5588 322.15C29.5588 324.405 30.9118 326.132 32.9688 326.132ZM32.9908 324.603C31.9678 324.603 31.2968 323.558 31.2968 322.15C31.2968 320.72 31.9568 319.697 32.9688 319.697C33.9808 319.697 34.6628 320.753 34.6628 322.15C34.6628 323.569 34.0138 324.603 32.9908 324.603Z" fill="#505050"/>
<path d="M11.132 245.336C11.132 242.993 9.273 241.398 7.15 241.398C5.005 241.398 3.168 242.971 3.168 245.314C3.168 247.657 5.027 249.252 7.15 249.252C9.295 249.252 11.132 247.679 11.132 245.336ZM10.329 245.314C10.329 247.074 8.899 248.35 7.15 248.35C5.379 248.35 3.971 247.096 3.971 245.336C3.971 243.576 5.401 242.3 7.15 242.3C8.921 242.3 10.329 243.554 10.329 245.314ZM12.716 233.284L12.716 232.558L10.208 232.426L10.208 233.427L3.3 233.427L3.3 234.296L10.208 234.296L10.208 238.696L3.3 238.696L3.3 239.565L11 239.565L11 233.284L12.716 233.284ZM11 231.077L11 230.208L3.3 230.208L3.3 231.077L11 231.077ZM11 227.953L11 227.084L7.535 227.084L7.535 222.64L11 222.64L11 221.771L3.3 221.771L3.3 222.64L6.721 222.64L6.721 227.084L3.3 227.084L3.3 227.953L11 227.953ZM11 219.596L11 218.727L8.932 218.727L7.271 217.088L11 214.129L11 213.04L6.666 216.483L3.3 213.183L3.3 214.305L7.898 218.727L3.3 218.727L3.3 219.596L11 219.596ZM11 212.349L11 211.458L8.965 210.545L8.965 206.354L11 205.452L11 204.517L3.245 208.026L3.245 208.84L11 212.349ZM8.184 210.204L4.257 208.444L8.184 206.695L8.184 210.204ZM11.088 199.844C11.088 198.656 10.329 197.556 4.928 197.556L4.092 197.556L4.092 194.278L11 194.278L11 193.409L3.3 193.409L3.3 198.392L4.697 198.392C9.944 198.392 10.307 199.393 10.307 199.987C10.307 200.229 10.252 200.548 10.197 200.669L10.901 200.845C10.978 200.647 11.088 200.185 11.088 199.844ZM11.132 190.103C11.132 189.19 10.648 188.376 9.383 187.749L3.3 184.702L3.3 185.648L8.327 188.101L3.3 190.939L3.3 191.929L9.196 188.541C10.054 188.992 10.351 189.553 10.351 190.081C10.351 190.488 10.285 190.752 10.12 191.06L10.813 191.401C11.022 190.994 11.132 190.609 11.132 190.103ZM12.716 173.125L12.716 172.399L10.208 172.267L10.208 173.268L3.3 173.268L3.3 174.137L10.208 174.137L10.208 177.811L3.3 177.811L3.3 178.68L10.208 178.68L10.208 182.354L3.3 182.354L3.3 183.223L11 183.223L11 173.125L12.716 173.125ZM11 170.987L11 165.366L10.208 165.366L10.208 170.118L7.513 170.118L7.513 165.916L6.721 165.916L6.721 170.118L4.092 170.118L4.092 165.421L3.3 165.421L3.3 170.987L11 170.987ZM11 163.618L11 162.749L7.535 162.749L7.535 158.305L11 158.305L11 157.436L3.3 157.436L3.3 158.305L6.721 158.305L6.721 162.749L3.3 162.749L3.3 163.618L11 163.618ZM11 155.261L11 154.392L7.535 154.392L7.535 149.948L11 149.948L11 149.079L3.3 149.079L3.3 149.948L6.721 149.948L6.721 154.392L3.3 154.392L3.3 155.261L11 155.261ZM11 147.53L11 146.474L8.052 144.186L8.052 141.975L11 141.975L11 141.106L3.29999 141.106L3.29999 144.395C3.29999 145.385 3.60799 146.166 4.081 146.639C4.455 147.024 5.027 147.222 5.621 147.222C6.908 147.222 7.689 146.353 7.909 145.121L11 147.53ZM7.315 144.34C7.315 145.517 6.688 146.353 5.687 146.353C4.708 146.353 4.081 145.605 4.081 144.34L4.081 141.975L7.315 141.975L7.315 144.34Z" fill="#505050"/>
<path d="M565.11 347.716H565.847L566.001 346H572.249V347.716H572.975L573.107 345.208H572.106V338.3H567.068V339.642C567.068 342.139 566.639 344.031 565.902 345.208H565.11V347.716ZM566.881 345.208C567.519 344.152 567.904 342.084 567.904 340.093V339.092H571.237V345.208H566.881ZM574.382 346H580.003V345.208H575.251V342.513H579.453V341.721H575.251V339.092H579.948V338.3H574.382V346ZM581.751 346H582.62V342.535H587.064V346H587.933V338.3H587.064V341.721H582.62V338.3H581.751V346ZM590.109 346H593.057C594.806 346 595.917 345.054 595.917 343.547C595.917 341.941 594.575 341.281 592.925 341.281H590.978V338.3H590.109V346ZM590.978 345.208V342.062H592.98C594.256 342.062 595.048 342.568 595.048 343.569C595.048 344.658 594.267 345.208 593.035 345.208H590.978ZM603.173 346.11C604.812 346.11 606.066 345.23 606.066 343.921C606.066 342.986 605.395 342.359 604.482 342.018C605.197 341.688 605.802 341.138 605.802 340.247C605.802 339.037 604.581 338.19 603.173 338.19C601.765 338.19 600.544 339.037 600.544 340.225C600.544 341.138 601.149 341.688 601.864 342.018C600.94 342.348 600.28 342.997 600.28 343.91C600.28 345.219 601.534 346.11 603.173 346.11ZM603.173 341.71C602.194 341.71 601.413 341.138 601.413 340.302C601.413 339.51 602.172 338.949 603.173 338.949C604.174 338.949 604.933 339.521 604.933 340.28C604.933 341.138 604.152 341.71 603.173 341.71ZM603.173 345.351C601.908 345.351 601.16 344.691 601.16 343.91C601.16 343.03 602.051 342.425 603.173 342.425C604.295 342.425 605.186 343.03 605.186 343.888C605.186 344.691 604.438 345.351 603.173 345.351ZM611.389 346H612.225V344.174H613.424V343.448H612.225V338.245H611.466L607.11 343.547L607.33 344.174H611.389V346ZM608.155 343.448L611.389 339.477V343.448H608.155Z" fill="#505050"/>
<path d="M487.11 347.716H487.847L488.001 346H494.249V347.716H494.975L495.107 345.208H494.106V338.3H489.068V339.642C489.068 342.139 488.639 344.031 487.902 345.208H487.11V347.716ZM488.881 345.208C489.519 344.152 489.904 342.084 489.904 340.093V339.092H493.237V345.208H488.881ZM496.382 346H502.003V345.208H497.251V342.513H501.453V341.721H497.251V339.092H501.948V338.3H496.382V346ZM503.751 346H504.62V342.535H509.064V346H509.933V338.3H509.064V341.721H504.62V338.3H503.751V346ZM512.109 346H515.057C516.806 346 517.917 345.054 517.917 343.547C517.917 341.941 516.575 341.281 514.925 341.281H512.978V338.3H512.109V346ZM512.978 345.208V342.062H514.98C516.256 342.062 517.048 342.568 517.048 343.569C517.048 344.658 516.267 345.208 515.035 345.208H512.978ZM523.215 346H524.183L527.681 338.949V338.3H522.456V339.092H526.691L523.215 346ZM532.188 346.132C534.168 346.132 535.444 344.306 535.444 342.15C535.444 339.972 534.19 338.168 532.21 338.168C530.23 338.168 528.943 339.994 528.943 342.15C528.943 344.328 530.197 346.132 532.188 346.132ZM532.21 345.34C530.769 345.34 529.845 343.833 529.845 342.15C529.845 340.434 530.747 338.96 532.188 338.96C533.618 338.96 534.542 340.467 534.542 342.15C534.542 343.855 533.651 345.34 532.21 345.34Z" fill="#505050"/>
<path d="M409.11 347.716H409.847L410.001 346H416.249V347.716H416.975L417.107 345.208H416.106V338.3H411.068V339.642C411.068 342.139 410.639 344.031 409.902 345.208H409.11V347.716ZM410.881 345.208C411.519 344.152 411.904 342.084 411.904 340.093V339.092H415.237V345.208H410.881ZM418.382 346H424.003V345.208H419.251V342.513H423.453V341.721H419.251V339.092H423.948V338.3H418.382V346ZM425.751 346H426.62V342.535H431.064V346H431.933V338.3H431.064V341.721H426.62V338.3H425.751V346ZM434.109 346H437.057C438.806 346 439.917 345.054 439.917 343.547C439.917 341.941 438.575 341.281 436.925 341.281H434.978V338.3H434.109V346ZM434.978 345.208V342.062H436.98C438.256 342.062 439.048 342.568 439.048 343.569C439.048 344.658 438.267 345.208 437.035 345.208H434.978ZM447.041 346.132C448.647 346.132 449.791 345.109 449.791 343.602C449.791 342.117 448.625 341.226 447.129 341.226C446.491 341.226 446.062 341.369 445.611 341.567L445.776 339.103H449.45V338.3H445.017L444.797 342.051L445.38 342.436C445.831 342.194 446.348 341.996 446.997 341.996C448.119 341.996 448.911 342.656 448.911 343.613C448.911 344.614 448.152 345.34 447.052 345.34C446.271 345.34 445.534 344.933 444.863 344.284L444.291 344.911C444.984 345.604 445.941 346.132 447.041 346.132ZM454.106 346.132C455.668 346.132 456.867 345.054 456.867 343.569C456.867 342.106 455.635 341.182 454.205 341.182C453.083 341.182 452.434 341.743 452.016 342.359V342.326C452.016 340.357 452.885 338.96 454.271 338.96C454.975 338.96 455.514 339.235 456.086 339.719L456.592 339.048C455.921 338.498 455.239 338.168 454.315 338.168C452.302 338.168 451.114 340.005 451.114 342.348C451.114 345.087 452.379 346.132 454.106 346.132ZM454.117 345.362C452.984 345.362 452.17 344.614 452.17 343.635C452.17 342.755 452.94 341.93 454.095 341.93C455.206 341.93 455.976 342.634 455.976 343.58C455.976 344.581 455.25 345.362 454.117 345.362Z" fill="#505050"/>
<path d="M236.11 347.716H236.847L237.001 346H243.249V347.716H243.975L244.107 345.208H243.106V338.3H238.068V339.642C238.068 342.139 237.639 344.031 236.902 345.208H236.11V347.716ZM237.881 345.208C238.519 344.152 238.904 342.084 238.904 340.093V339.092H242.237V345.208H237.881ZM245.382 346H251.003V345.208H246.251V342.513H250.453V341.721H246.251V339.092H250.948V338.3H245.382V346ZM252.751 346H253.62V342.535H258.064V346H258.933V338.3H258.064V341.721H253.62V338.3H252.751V346ZM261.109 346H264.057C265.806 346 266.917 345.054 266.917 343.547C266.917 341.941 265.575 341.281 263.925 341.281H261.978V338.3H261.109V346ZM261.978 345.208V342.062H263.98C265.256 342.062 266.048 342.568 266.048 343.569C266.048 344.658 265.267 345.208 264.035 345.208H261.978ZM271.236 346H276.615V345.208H272.534L274.591 343.382C275.933 342.194 276.538 341.512 276.538 340.39C276.538 339.114 275.537 338.19 274.151 338.19C272.798 338.19 272.072 338.795 271.379 339.829L272.017 340.291C272.633 339.433 273.205 338.971 274.085 338.971C274.921 338.971 275.636 339.543 275.636 340.445C275.636 341.215 275.218 341.82 274.03 342.865L271.236 345.329V346ZM280.758 346.11C282.397 346.11 283.651 345.23 283.651 343.921C283.651 342.986 282.98 342.359 282.067 342.018C282.782 341.688 283.387 341.138 283.387 340.247C283.387 339.037 282.166 338.19 280.758 338.19C279.35 338.19 278.129 339.037 278.129 340.225C278.129 341.138 278.734 341.688 279.449 342.018C278.525 342.348 277.865 342.997 277.865 343.91C277.865 345.219 279.119 346.11 280.758 346.11ZM280.758 341.71C279.779 341.71 278.998 341.138 278.998 340.302C278.998 339.51 279.757 338.949 280.758 338.949C281.759 338.949 282.518 339.521 282.518 340.28C282.518 341.138 281.737 341.71 280.758 341.71ZM280.758 345.351C279.493 345.351 278.745 344.691 278.745 343.91C278.745 343.03 279.636 342.425 280.758 342.425C281.88 342.425 282.771 343.03 282.771 343.888C282.771 344.691 282.023 345.351 280.758 345.351Z" fill="#505050"/>
<path d="M29.11 347.716H29.847L30.001 346H36.249V347.716H36.975L37.107 345.208H36.106V338.3H31.068V339.642C31.068 342.139 30.639 344.031 29.902 345.208H29.11L29.11 347.716ZM30.881 345.208C31.519 344.152 31.904 342.084 31.904 340.093V339.092H35.237V345.208H30.881ZM38.382 346H44.003V345.208H39.251V342.513H43.453V341.721H39.251V339.092H43.948V338.3H38.382V346ZM45.7511 346H46.6201V342.535H51.0641V346H51.9331V338.3H51.0641V341.721H46.6201V338.3H45.7511V346ZM54.1085 346H57.0565C58.8055 346 59.9165 345.054 59.9165 343.547C59.9165 341.941 58.5745 341.281 56.9245 341.281H54.9775V338.3H54.1085V346ZM54.9775 345.208V342.062H56.9795C58.2555 342.062 59.0475 342.568 59.0475 343.569C59.0475 344.658 58.2665 345.208 57.0345 345.208H54.9775ZM67.635 346.132C69.615 346.132 70.891 344.306 70.891 342.15C70.891 339.972 69.637 338.168 67.657 338.168C65.677 338.168 64.39 339.994 64.39 342.15C64.39 344.328 65.644 346.132 67.635 346.132ZM67.657 345.34C66.216 345.34 65.292 343.833 65.292 342.15C65.292 340.434 66.194 338.96 67.635 338.96C69.065 338.96 69.989 340.467 69.989 342.15C69.989 343.855 69.098 345.34 67.657 345.34Z" fill="#505050"/>
<path d="M84.089 314H84.958V311.932L86.597 310.271L89.556 314H90.645L87.202 309.666L90.502 306.3H89.38L84.958 310.898V306.3H84.089V314ZM91.9953 314H97.6163V313.208H92.8643V310.513H97.0663V309.721H92.8643V307.092H97.5613V306.3H91.9953V314ZM101.399 314H102.279V307.092H104.864V306.3H98.8144V307.092H101.399V314ZM110.072 314.132C112.415 314.132 114.01 312.273 114.01 310.15C114.01 308.005 112.437 306.168 110.094 306.168C107.751 306.168 106.156 308.027 106.156 310.15C106.156 312.295 107.729 314.132 110.072 314.132ZM110.094 313.329C108.334 313.329 107.058 311.899 107.058 310.15C107.058 308.379 108.312 306.971 110.072 306.971C111.832 306.971 113.108 308.401 113.108 310.15C113.108 311.921 111.854 313.329 110.094 313.329ZM115.843 314H116.712V311.932L118.351 310.271L121.31 314H122.399L118.956 309.666L122.256 306.3H121.134L116.712 310.898V306.3H115.843V314ZM127.324 314.132C129.667 314.132 131.262 312.273 131.262 310.15C131.262 308.005 129.689 306.168 127.346 306.168C125.003 306.168 123.408 308.027 123.408 310.15C123.408 312.295 124.981 314.132 127.324 314.132ZM127.346 313.329C125.586 313.329 124.31 311.899 124.31 310.15C124.31 308.379 125.564 306.971 127.324 306.971C129.084 306.971 130.36 308.401 130.36 310.15C130.36 311.921 129.106 313.329 127.346 313.329ZM133.095 314H133.964V310.535H138.408V314H139.277V306.3H138.408V309.721H133.964V306.3H133.095V314ZM140.792 314H141.683L142.596 311.965H146.787L147.689 314H148.624L145.115 306.245H144.301L140.792 314ZM142.937 311.184L144.697 307.257L146.446 311.184H142.937ZM152.695 314.132C154.301 314.132 155.39 313.164 155.39 311.943C155.39 310.92 154.686 310.326 153.773 310.051C154.477 309.798 155.181 309.27 155.181 308.236C155.181 307.048 154.114 306.179 152.585 306.179C151.364 306.179 150.561 306.542 149.791 307.202L150.297 307.807C150.968 307.202 151.694 306.938 152.563 306.938C153.575 306.938 154.301 307.521 154.301 308.313C154.301 309.226 153.52 309.765 152.42 309.765H151.573V310.48H152.42C153.597 310.48 154.499 310.898 154.499 311.899C154.499 312.812 153.652 313.384 152.706 313.384C151.595 313.384 150.781 313.021 150 312.284L149.483 312.889C150.385 313.714 151.364 314.132 152.695 314.132ZM160.711 314.132C163.054 314.132 164.649 312.273 164.649 310.15C164.649 308.005 163.076 306.168 160.733 306.168C158.39 306.168 156.795 308.027 156.795 310.15C156.795 312.295 158.368 314.132 160.711 314.132ZM160.733 313.329C158.973 313.329 157.697 311.899 157.697 310.15C157.697 308.379 158.951 306.971 160.711 306.971C162.471 306.971 163.747 308.401 163.747 310.15C163.747 311.921 162.493 313.329 160.733 313.329ZM166.339 314.088C167.527 314.088 168.627 313.329 168.627 307.928V307.092H171.905V314H172.774V306.3H167.791V307.697C167.791 312.944 166.79 313.307 166.196 313.307C165.954 313.307 165.635 313.252 165.514 313.197L165.338 313.901C165.536 313.978 165.998 314.088 166.339 314.088Z" fill="#505050"/>
<path d="M313.089 300H323.044V292.3H322.175V299.208H318.501V292.3H317.632V299.208H313.958V292.3H313.089V300ZM324.557 300H325.448L326.361 297.965H330.552L331.454 300H332.389L328.88 292.245H328.066L324.557 300ZM326.702 297.184L328.462 293.257L330.211 297.184H326.702ZM333.907 300H334.754V293.774L337.559 297.888H337.603L340.408 293.763V300H341.277V292.3H340.397L337.592 296.502L334.787 292.3H333.907V300ZM343.457 300H344.326V293.092H348.66V300H349.529V292.3H343.457V300ZM352.84 300.132C353.753 300.132 354.567 299.648 355.194 298.383L358.241 292.3H357.295L354.842 297.327L352.004 292.3H351.014L354.402 298.196C353.951 299.054 353.39 299.351 352.862 299.351C352.455 299.351 352.191 299.285 351.883 299.12L351.542 299.813C351.949 300.022 352.334 300.132 352.84 300.132ZM359.721 300H360.59V296.535H365.034V300H365.903V292.3H365.034V295.721H360.59V292.3H359.721V300ZM368.078 300H371.026C372.775 300 373.886 299.054 373.886 297.547C373.886 295.941 372.544 295.281 370.894 295.281H368.947V292.3H368.078V300ZM368.947 299.208V296.062H370.949C372.225 296.062 373.017 296.568 373.017 297.569C373.017 298.658 372.236 299.208 371.004 299.208H368.947ZM377.788 301.716H378.525L378.679 300H384.927V301.716H385.653L385.785 299.208H384.784V292.3H379.746V293.642C379.746 296.139 379.317 298.031 378.58 299.208H377.788V301.716ZM379.559 299.208C380.197 298.152 380.582 296.084 380.582 294.093V293.092H383.915V299.208H379.559ZM387.06 300H392.681V299.208H387.929V296.513H392.131V295.721H387.929V293.092H392.626V292.3H387.06V300ZM394.429 300H395.298V297.283H397.168C398.807 297.283 400.193 296.425 400.193 294.764C400.193 293.224 399.049 292.3 397.311 292.3H394.429V300ZM395.298 296.491V293.103H397.245C398.488 293.103 399.313 293.675 399.313 294.775C399.313 295.809 398.477 296.491 397.201 296.491H395.298ZM401.777 300H402.646V297.932L404.285 296.271L407.244 300H408.333L404.89 295.666L408.19 292.3H407.068L402.646 296.898V292.3H401.777V300ZM413.258 300.132C415.601 300.132 417.196 298.273 417.196 296.15C417.196 294.005 415.623 292.168 413.28 292.168C410.937 292.168 409.342 294.027 409.342 296.15C409.342 298.295 410.915 300.132 413.258 300.132ZM413.28 299.329C411.52 299.329 410.244 297.899 410.244 296.15C410.244 294.379 411.498 292.971 413.258 292.971C415.018 292.971 416.294 294.401 416.294 296.15C416.294 297.921 415.04 299.329 413.28 299.329ZM422.548 300.132C423.945 300.132 424.825 299.637 425.628 298.823L425.056 298.218C424.319 298.922 423.626 299.329 422.57 299.329C420.876 299.329 419.589 297.932 419.589 296.15C419.589 294.357 420.865 292.971 422.57 292.971C423.615 292.971 424.341 293.411 424.99 294.027L425.562 293.411C424.792 292.685 423.978 292.168 422.581 292.168C420.315 292.168 418.687 293.972 418.687 296.15C418.687 298.383 420.326 300.132 422.548 300.132ZM429.468 301.716H430.205L430.359 300H436.607V301.716H437.333L437.465 299.208H436.464V292.3H431.426V293.642C431.426 296.139 430.997 298.031 430.26 299.208H429.468V301.716ZM431.239 299.208C431.877 298.152 432.262 296.084 432.262 294.093V293.092H435.595V299.208H431.239ZM442.26 300.132C443.657 300.132 444.537 299.637 445.34 298.823L444.768 298.218C444.031 298.922 443.338 299.329 442.282 299.329C440.588 299.329 439.301 297.932 439.301 296.15C439.301 294.357 440.577 292.971 442.282 292.971C443.327 292.971 444.053 293.411 444.702 294.027L445.274 293.411C444.504 292.685 443.69 292.168 442.293 292.168C440.027 292.168 438.399 293.972 438.399 296.15C438.399 298.383 440.038 300.132 442.26 300.132ZM313.089 315H323.044V307.3H322.175V314.208H318.501V307.3H317.632V314.208H313.958V307.3H313.089V315ZM324.557 315H325.448L326.361 312.965H330.552L331.454 315H332.389L328.88 307.245H328.066L324.557 315ZM326.702 312.184L328.462 308.257L330.211 312.184H326.702ZM333.907 315H334.754V308.774L337.559 312.888H337.603L340.408 308.763V315H341.277V307.3H340.397L337.592 311.502L334.787 307.3H333.907V315ZM343.457 315H344.326V308.092H348.66V315H349.529V307.3H343.457V315ZM352.84 315.132C353.753 315.132 354.567 314.648 355.194 313.383L358.241 307.3H357.295L354.842 312.327L352.004 307.3H351.014L354.402 313.196C353.951 314.054 353.39 314.351 352.862 314.351C352.455 314.351 352.191 314.285 351.883 314.12L351.542 314.813C351.949 315.022 352.334 315.132 352.84 315.132ZM359.721 315H360.59V311.535H365.034V315H365.903V307.3H365.034V310.721H360.59V307.3H359.721V315ZM368.078 315H371.026C372.775 315 373.886 314.054 373.886 312.547C373.886 310.941 372.544 310.281 370.894 310.281H368.947V307.3H368.078V315ZM368.947 314.208V311.062H370.949C372.225 311.062 373.017 311.568 373.017 312.569C373.017 313.658 372.236 314.208 371.004 314.208H368.947ZM378.767 315H379.636V308.092H383.97V315H384.839V307.3H378.767V315ZM390.592 315.132C392.935 315.132 394.53 313.273 394.53 311.15C394.53 309.005 392.957 307.168 390.614 307.168C388.271 307.168 386.676 309.027 386.676 311.15C386.676 313.295 388.249 315.132 390.592 315.132ZM390.614 314.329C388.854 314.329 387.578 312.899 387.578 311.15C387.578 309.379 388.832 307.971 390.592 307.971C392.352 307.971 393.628 309.401 393.628 311.15C393.628 312.921 392.374 314.329 390.614 314.329ZM396.362 315H397.231V312.283H399.101C400.74 312.283 402.126 311.425 402.126 309.764C402.126 308.224 400.982 307.3 399.244 307.3H396.362V315ZM397.231 311.491V308.103H399.178C400.421 308.103 401.246 308.675 401.246 309.775C401.246 310.809 400.41 311.491 399.134 311.491H397.231ZM403.787 315H404.656V307.3H403.787V315ZM406.911 315H410.332C412.015 315 413.126 314.219 413.126 312.899C413.126 311.821 412.389 311.293 411.476 311.018C412.081 310.754 412.697 310.237 412.697 309.236C412.697 308.719 412.521 308.312 412.202 307.982C411.773 307.542 411.069 307.3 410.189 307.3H406.911V315ZM407.769 314.219V311.502H410.2C411.542 311.502 412.246 311.986 412.246 312.822C412.246 313.702 411.52 314.219 410.354 314.219H407.769ZM407.769 310.732V308.081H410.112C411.212 308.081 411.817 308.576 411.817 309.335C411.817 310.259 411.091 310.732 410.046 310.732H407.769ZM414.85 315H415.719V311.535H420.163V315H421.032V307.3H420.163V310.721H415.719V307.3H414.85V315ZM422.58 315H423.636L425.924 312.052H428.135V315H429.004V307.3H425.715C424.725 307.3 423.944 307.608 423.471 308.081C423.086 308.455 422.888 309.027 422.888 309.621C422.888 310.908 423.757 311.689 424.989 311.909L422.58 315ZM425.77 311.315C424.593 311.315 423.757 310.688 423.757 309.687C423.757 308.708 424.505 308.081 425.77 308.081H428.135V311.315H425.77ZM431.178 315H432.047V311.535H436.491V315H437.36V307.3H436.491V310.721H432.047V307.3H431.178V315ZM439.535 315H440.404V311.535H444.848V315H445.717V307.3H444.848V310.721H440.404V307.3H439.535V315ZM447.266 315H448.322L450.61 312.052H452.821V315H453.69V307.3H450.401C449.411 307.3 448.63 307.608 448.157 308.081C447.772 308.455 447.574 309.027 447.574 309.621C447.574 310.908 448.443 311.689 449.675 311.909L447.266 315ZM450.456 311.315C449.279 311.315 448.443 310.688 448.443 309.687C448.443 308.708 449.191 308.081 450.456 308.081H452.821V311.315H450.456Z" fill="#505050"/>
<path d="M346.099 125.744C344.37 125.744 343.278 126.355 342.433 127.239L343.486 128.513C344.097 127.889 344.825 127.512 345.943 127.512C346.814 127.512 347.412 127.889 347.412 128.526C347.412 129.215 346.84 129.579 345.787 129.579H344.76V131.243H345.813C346.853 131.243 347.62 131.555 347.62 132.309C347.62 133.011 346.931 133.401 346.086 133.401C344.903 133.401 343.928 132.972 343.187 132.244L342.121 133.635C343.096 134.623 344.253 135.156 346.164 135.156C348.283 135.156 349.622 133.999 349.622 132.426C349.622 131.269 348.894 130.593 347.919 130.281C348.725 129.93 349.388 129.319 349.388 128.188C349.388 126.771 348.049 125.744 346.099 125.744ZM351.368 135H353.331V129.098L355.866 132.946H355.918L358.479 129.059V135H360.468V125.9H358.31L355.918 129.748L353.526 125.9H351.368V135ZM362.654 135H369.583V133.219H364.643V131.308H368.933V129.527H364.643V127.681H369.518V125.9H362.654V135ZM371.363 135H373.365V131.347H377.057V135H379.059V125.9H377.057V129.501H373.365V125.9H371.363V135ZM393.733 125.9H391.731V133.193H388.481V125.9H386.479V133.193H383.242V125.9H381.24V135H393.733V125.9ZM395.916 135H402.845V133.219H397.905V131.308H402.195V129.527H397.905V127.681H402.78V125.9H395.916V135ZM404.625 135H406.627V131.347H410.319V135H412.321V125.9H410.319V129.501H406.627V125.9H404.625V135ZM414.502 135H416.504V131.347H420.196V135H422.198V125.9H420.196V129.501H416.504V125.9H414.502V135ZM431.581 125.9H427.421C425.289 125.9 423.989 127.018 423.989 128.903C423.989 130.398 424.782 131.321 425.939 131.75L423.716 135H426.056L428.006 132.088H429.579V135H431.581V125.9ZM427.551 130.32C426.576 130.32 426.017 129.8 426.017 129.033C426.017 128.149 426.615 127.707 427.59 127.707H429.579V130.32H427.551ZM438.88 125.9V127.785C438.88 132.686 438.269 133.375 437.19 133.375C437.06 133.375 436.969 133.362 436.878 133.349L436.748 135C436.995 135.065 437.476 135.117 437.801 135.117C439.881 135.117 440.752 133.752 440.752 128.396V127.707H443.378V135H445.38V125.9H438.88ZM451.408 130.71L448.938 125.9H446.702L450.342 132.712C449.978 133.271 449.562 133.44 449.198 133.44C448.847 133.44 448.483 133.362 448.119 133.141L447.339 134.61C447.911 134.935 448.522 135.143 449.302 135.143C450.576 135.143 451.486 134.519 452.279 132.933L455.776 125.9H453.605L451.408 130.71ZM468.755 136.898H470.419L470.679 133.193H469.6V125.9H467.598V133.193H464.348V125.9H462.346V133.193H459.109V125.9H457.107V135H468.755V136.898ZM472.088 135H479.017V133.219H474.077V131.308H478.367V129.527H474.077V127.681H478.952V125.9H472.088V135ZM480.797 135H482.799V131.347H486.491V135H488.493V125.9H486.491V129.501H482.799V125.9H480.797V135ZM490.674 135H492.676V131.347H496.368V135H498.37V125.9H496.368V129.501H492.676V125.9H490.674V135ZM507.752 125.9H503.592C501.46 125.9 500.16 127.018 500.16 128.903C500.16 130.398 500.953 131.321 502.11 131.75L499.887 135H502.227L504.177 132.088H505.75V135H507.752V125.9ZM503.722 130.32C502.747 130.32 502.188 129.8 502.188 129.033C502.188 128.149 502.786 127.707 503.761 127.707H505.75V130.32H503.722ZM423.187 151.043H425.885V147.623H429.324V145.001H425.885V141.581H423.187V145.001H419.748V147.623H423.187V151.043ZM362.787 167H364.789V159.707H368.377V167H370.379V157.9H362.787V167ZM372.654 167H374.656V157.9H372.654V167ZM375.968 168.898H377.775L377.905 167H383.599V168.898H385.276L385.536 165.193H384.444V157.9H377.827V158.966C377.827 162.073 377.502 163.62 376.826 165.193H375.968V168.898ZM382.442 159.707V165.193H378.932C379.452 163.932 379.751 162.554 379.751 160.63V159.707H382.442ZM389.053 167H391.055V159.746H393.824V157.9H386.284V159.746H389.053V167ZM395.363 167H397.365V164.27H398.886C400.927 164.27 402.565 163.178 402.565 161.072C402.565 159.187 401.252 157.9 399.081 157.9H395.363V167ZM397.365 162.489V159.707H398.912C399.913 159.707 400.537 160.188 400.537 161.085C400.537 161.891 399.952 162.489 398.951 162.489H397.365ZM411.886 157.9H410.027L406.023 163.867V157.9H404.047V167H405.932L409.91 161.033V167H411.886V157.9ZM414.076 167H416.039V161.098L418.574 164.946H418.626L421.187 161.059V167H423.176V157.9H421.018L418.626 161.748L416.234 157.9H414.076V167ZM429.211 162.71L426.741 157.9H424.505L428.145 164.712C427.781 165.271 427.365 165.44 427.001 165.44C426.65 165.44 426.286 165.362 425.922 165.141L425.142 166.61C425.714 166.935 426.325 167.143 427.105 167.143C428.379 167.143 429.289 166.519 430.082 164.933L433.579 157.9H431.408L429.211 162.71ZM434.909 167H439.238C441.292 167 442.644 166.168 442.644 164.504C442.644 163.256 441.994 162.645 440.941 162.242C441.591 161.878 442.137 161.306 442.137 160.279C442.137 159.629 441.929 159.122 441.513 158.706C440.993 158.186 440.174 157.9 439.134 157.9H434.909V167ZM436.859 161.579V159.655H438.835C439.68 159.655 440.148 159.993 440.148 160.591C440.148 161.293 439.589 161.579 438.705 161.579H436.859ZM436.859 165.245V163.243H439.173C440.2 163.243 440.655 163.62 440.655 164.231C440.655 164.933 440.122 165.245 439.238 165.245H436.859ZM443.511 167H445.552L446.384 164.959H450.232L451.064 167H453.157L449.257 157.835H447.411L443.511 167ZM447.099 163.191L448.308 160.24L449.517 163.191H447.099ZM455.771 157.9V159.785C455.771 164.686 455.16 165.375 454.081 165.375C453.951 165.375 453.86 165.362 453.769 165.349L453.639 167C453.886 167.065 454.367 167.117 454.692 167.117C456.772 167.117 457.643 165.752 457.643 160.396V159.707H460.269V167H462.271V157.9H455.771ZM464.451 167H468.26C470.392 167 471.718 165.817 471.718 163.945C471.718 162.164 470.496 160.994 468.39 160.994H466.453V157.9H464.451V167ZM468.221 162.71C469.222 162.71 469.729 163.152 469.729 163.919C469.729 164.764 469.222 165.193 468.234 165.193H466.453V162.71H468.221ZM473.249 167H475.251V163.347H478.943V167H480.945V157.9H478.943V161.501H475.251V157.9H473.249V167ZM482.346 167H484.387L485.219 164.959H489.067L489.899 167H491.992L488.092 157.835H486.246L482.346 167ZM485.934 163.191L487.143 160.24L488.352 163.191H485.934ZM374.124 183H381.053V181.219H376.113V179.308H380.403V177.527H376.113V175.681H380.988V173.9H374.124V183ZM388.8 176.162C390.269 176.162 391.244 177.033 391.244 178.372C391.244 179.737 390.269 180.595 388.8 180.595V176.162ZM388.8 183.364V182.376C391.608 182.376 393.311 180.634 393.311 178.346C393.311 176.058 391.582 174.381 388.8 174.381V173.549H386.798V174.381C384.003 174.381 382.287 176.058 382.287 178.333C382.287 180.634 383.99 182.376 386.798 182.376V183.364H388.8ZM386.798 180.595C385.329 180.595 384.341 179.737 384.341 178.372C384.341 177.033 385.329 176.162 386.798 176.162V180.595ZM394.945 183H401.874V181.219H396.934V179.308H401.224V177.527H396.934V175.681H401.809V173.9H394.945V183ZM403.654 183H405.656V180.218L406.709 179.126L409.53 183H411.935L408.061 177.761L411.766 173.9H409.348L405.656 177.878V173.9H403.654V183ZM415.269 183H417.271V175.746H420.04V173.9H412.5V175.746H415.269V183ZM429.418 173.9H427.559L423.555 179.867V173.9H421.579V183H423.464L427.442 177.033V183H429.418V173.9ZM431.609 183H435.938C437.992 183 439.344 182.168 439.344 180.504C439.344 179.256 438.694 178.645 437.641 178.242C438.291 177.878 438.837 177.306 438.837 176.279C438.837 175.629 438.629 175.122 438.213 174.706C437.693 174.186 436.874 173.9 435.834 173.9H431.609V183ZM433.559 177.579V175.655H435.535C436.38 175.655 436.848 175.993 436.848 176.591C436.848 177.293 436.289 177.579 435.405 177.579H433.559ZM433.559 181.245V179.243H435.873C436.9 179.243 437.355 179.62 437.355 180.231C437.355 180.933 436.822 181.245 435.938 181.245H433.559ZM440.99 183H442.992V179.347H446.684V183H448.686V173.9H446.684V177.501H442.992V173.9H440.99V183ZM450.958 183H452.96V173.9H450.958V183ZM459.499 183.156C461.254 183.156 462.294 182.61 463.23 181.609L461.956 180.244C461.241 180.894 460.604 181.31 459.564 181.31C458.004 181.31 456.925 180.01 456.925 178.45C456.925 176.864 458.03 175.59 459.564 175.59C460.604 175.59 461.202 175.967 461.904 176.604L463.1 175.226C462.255 174.394 461.293 173.744 459.577 173.744C456.782 173.744 454.832 175.863 454.832 178.45C454.832 181.089 456.821 183.156 459.499 183.156ZM466.951 183H468.953V175.746H471.722V173.9H464.182V175.746H466.951V183ZM473.262 183H477.071C479.203 183 480.529 181.817 480.529 179.945C480.529 178.164 479.307 176.994 477.201 176.994H475.264V173.9H473.262V183ZM477.032 178.71C478.033 178.71 478.54 179.152 478.54 179.919C478.54 180.764 478.033 181.193 477.045 181.193H475.264V178.71H477.032Z" fill="black"/>
<path d="M343.358 36.716H344.095L344.249 35H350.497V36.716H351.223L351.355 34.208H350.354V27.3H345.316V28.642C345.316 31.139 344.887 33.031 344.15 34.208H343.358V36.716ZM345.129 34.208C345.767 33.152 346.152 31.084 346.152 29.093V28.092H349.485V34.208H345.129ZM352.63 35L358.251 35V34.208L353.499 34.208V31.513H357.701V30.721H353.499V28.092H358.196V27.3H352.63V35ZM359.999 35H360.868V32.283H362.738C364.377 32.283 365.763 31.425 365.763 29.764C365.763 28.224 364.619 27.3 362.881 27.3L359.999 27.3V35ZM360.868 31.491V28.103H362.815C364.058 28.103 364.883 28.675 364.883 29.775C364.883 30.809 364.047 31.491 362.771 31.491H360.868ZM367.347 35H368.216V32.932L369.855 31.271L372.814 35H373.903L370.46 30.666L373.76 27.3H372.638L368.216 31.898V27.3H367.347V35ZM378.828 35.132C381.171 35.132 382.766 33.273 382.766 31.15C382.766 29.005 381.193 27.168 378.85 27.168C376.507 27.168 374.912 29.027 374.912 31.15C374.912 33.295 376.485 35.132 378.828 35.132ZM378.85 34.329C377.09 34.329 375.814 32.899 375.814 31.15C375.814 29.379 377.068 27.971 378.828 27.971C380.588 27.971 381.864 29.401 381.864 31.15C381.864 32.921 380.61 34.329 378.85 34.329ZM388.119 35.132C389.516 35.132 390.396 34.637 391.199 33.823L390.627 33.218C389.89 33.922 389.197 34.329 388.141 34.329C386.447 34.329 385.16 32.932 385.16 31.15C385.16 29.357 386.436 27.971 388.141 27.971C389.186 27.971 389.912 28.411 390.561 29.027L391.133 28.411C390.363 27.685 389.549 27.168 388.152 27.168C385.886 27.168 384.258 28.972 384.258 31.15C384.258 33.383 385.897 35.132 388.119 35.132ZM395.039 36.716H395.776L395.93 35H402.178V36.716H402.904L403.036 34.208H402.035V27.3H396.997V28.642C396.997 31.139 396.568 33.031 395.831 34.208H395.039V36.716ZM396.81 34.208C397.448 33.152 397.833 31.084 397.833 29.093V28.092H401.166V34.208H396.81ZM407.831 35.132C409.228 35.132 410.108 34.637 410.911 33.823L410.339 33.218C409.602 33.922 408.909 34.329 407.853 34.329C406.159 34.329 404.872 32.932 404.872 31.15C404.872 29.357 406.148 27.971 407.853 27.971C408.898 27.971 409.624 28.411 410.273 29.027L410.845 28.411C410.075 27.685 409.261 27.168 407.864 27.168C405.598 27.168 403.97 28.972 403.97 31.15C403.97 33.383 405.609 35.132 407.831 35.132ZM418.062 35.132C419.492 35.132 420.636 34.186 420.636 32.811C420.636 31.381 419.437 30.732 418.095 30.622L420.515 27.938V27.3H415.598V28.081H419.36L416.929 30.82L417.105 31.337H417.6C418.865 31.337 419.756 31.865 419.756 32.822C419.756 33.746 419.008 34.34 418.073 34.34C417.127 34.34 416.412 33.922 415.818 33.196L415.191 33.757C415.818 34.571 416.775 35.132 418.062 35.132ZM425.774 35H426.643V32.283H428.513C430.152 32.283 431.538 31.425 431.538 29.764C431.538 28.224 430.394 27.3 428.656 27.3L425.774 27.3V35ZM426.643 31.491V28.103H428.59C429.833 28.103 430.658 28.675 430.658 29.775C430.658 30.809 429.822 31.491 428.546 31.491H426.643ZM432.461 35H433.352L434.265 32.965H438.456L439.358 35H440.293L436.784 27.245H435.97L432.461 35ZM434.606 32.184L436.366 28.257L438.115 32.184H434.606ZM444.364 35.132C445.97 35.132 447.059 34.164 447.059 32.943C447.059 31.92 446.355 31.326 445.442 31.051C446.146 30.798 446.85 30.27 446.85 29.236C446.85 28.048 445.783 27.179 444.254 27.179C443.033 27.179 442.23 27.542 441.46 28.202L441.966 28.807C442.637 28.202 443.363 27.938 444.232 27.938C445.244 27.938 445.97 28.521 445.97 29.313C445.97 30.226 445.189 30.765 444.089 30.765H443.242V31.48H444.089C445.266 31.48 446.168 31.898 446.168 32.899C446.168 33.812 445.321 34.384 444.375 34.384C443.264 34.384 442.45 34.021 441.669 33.284L441.152 33.889C442.054 34.714 443.033 35.132 444.364 35.132ZM448.805 35H449.652L454.239 28.609V35H455.097V27.3H454.272L449.674 33.691V27.3L448.805 27.3V35ZM455.95 36.408H456.731L461.835 26.222H461.054L455.95 36.408ZM464.891 35H465.771V28.092H468.356V27.3H462.306V28.092H464.891V35ZM469.988 35H470.835L475.422 28.609V35H476.28V27.3H475.455L470.857 33.691V27.3H469.988V35ZM477.628 35H478.706L481.39 31.249L482.919 32.932V35H483.788V32.932L485.306 31.249L488.001 35H489.079L485.911 30.6L488.881 27.3H487.803L483.788 31.843V27.3H482.919V31.843L478.904 27.3H477.826L480.796 30.6L477.628 35ZM489.452 36.716H490.189L490.343 35H496.591V36.716H497.317L497.449 34.208H496.448V27.3L491.41 27.3V28.642C491.41 31.139 490.981 33.031 490.244 34.208H489.452V36.716ZM491.223 34.208C491.861 33.152 492.246 31.084 492.246 29.093V28.092L495.579 28.092V34.208H491.223ZM498.724 35H504.345V34.208H499.593V31.513H503.795V30.721H499.593V28.092H504.29V27.3H498.724V35ZM506.093 35H506.962V31.535H511.406V35H512.275V27.3H511.406V30.721H506.962V27.3H506.093V35ZM514.45 35H517.398C519.147 35 520.258 34.054 520.258 32.547C520.258 30.941 518.916 30.281 517.266 30.281H515.319V27.3H514.45V35ZM515.319 34.208V31.062H517.321C518.597 31.062 519.389 31.568 519.389 32.569C519.389 33.658 518.608 34.208 517.376 34.208H515.319ZM337.704 48H338.573V41.092H342.907V48H343.776V40.3H337.704V48ZM345.954 48H346.823V45.283H348.693C350.332 45.283 351.718 44.425 351.718 42.764C351.718 41.224 350.574 40.3 348.836 40.3H345.954V48ZM346.823 44.491V41.103H348.77C350.013 41.103 350.838 41.675 350.838 42.775C350.838 43.809 350.002 44.491 348.726 44.491H346.823ZM356.876 48.132C359.219 48.132 360.814 46.273 360.814 44.15C360.814 42.005 359.241 40.168 356.898 40.168C354.555 40.168 352.96 42.027 352.96 44.15C352.96 46.295 354.533 48.132 356.876 48.132ZM356.898 47.329C355.138 47.329 353.862 45.899 353.862 44.15C353.862 42.379 355.116 40.971 356.876 40.971C358.636 40.971 359.912 42.401 359.912 44.15C359.912 45.921 358.658 47.329 356.898 47.329ZM364.682 48H365.562V41.092H368.147V40.3H362.097V41.092H364.682V48ZM369.78 48H370.627L375.214 41.609V48H376.072V40.3H375.247L370.649 46.691V40.3H369.78V48ZM381.543 48L391.498 48V40.3H390.629V47.208H386.955V40.3H386.086V47.208L382.412 47.208V40.3H381.543V48ZM393.011 48H393.902L394.815 45.965H399.006L399.908 48H400.843L397.334 40.245H396.52L393.011 48ZM395.156 45.184L396.916 41.257L398.665 45.184H395.156ZM402.361 48H403.208V41.774L406.013 45.888H406.057L408.862 41.763V48H409.731V40.3H408.851L406.046 44.502L403.241 40.3H402.361V48ZM411.911 48H412.78V41.092H417.114V48H417.983V40.3H411.911V48ZM421.294 48.132C422.207 48.132 423.021 47.648 423.648 46.383L426.695 40.3H425.749L423.296 45.327L420.458 40.3H419.468L422.856 46.196C422.405 47.054 421.844 47.351 421.316 47.351C420.909 47.351 420.645 47.285 420.337 47.12L419.996 47.813C420.403 48.022 420.788 48.132 421.294 48.132ZM428.174 48H429.043V44.535H433.487V48H434.356V40.3H433.487V43.721H429.043V40.3H428.174V48ZM442.582 48.132C444.76 48.132 446.245 46.372 446.245 44.139C446.245 41.906 444.782 40.168 442.604 40.168C440.569 40.168 439.139 41.719 438.963 43.732H437.401V40.3H436.532V48H437.401V44.524H438.963C439.117 46.581 440.525 48.132 442.582 48.132ZM442.604 47.34C440.998 47.34 439.843 45.943 439.843 44.15C439.843 42.335 440.976 40.96 442.582 40.96C444.188 40.96 445.354 42.357 445.354 44.15C445.354 45.965 444.21 47.34 442.604 47.34ZM451.378 48H452.247V41.092H456.581V48H457.45V40.3H451.378V48ZM463.203 48.132C465.546 48.132 467.141 46.273 467.141 44.15C467.141 42.005 465.568 40.168 463.225 40.168C460.882 40.168 459.287 42.027 459.287 44.15C459.287 46.295 460.86 48.132 463.203 48.132ZM463.225 47.329C461.465 47.329 460.189 45.899 460.189 44.15C460.189 42.379 461.443 40.971 463.203 40.971C464.963 40.971 466.239 42.401 466.239 44.15C466.239 45.921 464.985 47.329 463.225 47.329ZM468.973 48H469.842V45.283L471.712 45.283C473.351 45.283 474.737 44.425 474.737 42.764C474.737 41.224 473.593 40.3 471.855 40.3H468.973V48ZM469.842 44.491V41.103H471.789C473.032 41.103 473.857 41.675 473.857 42.775C473.857 43.809 473.021 44.491 471.745 44.491L469.842 44.491ZM476.398 48H477.267V40.3L476.398 40.3V48ZM479.522 48H482.943C484.626 48 485.737 47.219 485.737 45.899C485.737 44.821 485 44.293 484.087 44.018C484.692 43.754 485.308 43.237 485.308 42.236C485.308 41.719 485.132 41.312 484.813 40.982C484.384 40.542 483.68 40.3 482.8 40.3H479.522V48ZM480.38 47.219V44.502H482.811C484.153 44.502 484.857 44.986 484.857 45.822C484.857 46.702 484.131 47.219 482.965 47.219H480.38ZM480.38 43.732V41.081H482.723C483.823 41.081 484.428 41.576 484.428 42.335C484.428 43.259 483.702 43.732 482.657 43.732H480.38ZM487.461 48H488.33V44.535H492.774V48H493.643V40.3H492.774V43.721H488.33V40.3H487.461V48ZM495.191 48H496.247L498.535 45.052H500.746V48H501.615V40.3H498.326C497.336 40.3 496.555 40.608 496.082 41.081C495.697 41.455 495.499 42.027 495.499 42.621C495.499 43.908 496.368 44.689 497.6 44.909L495.191 48ZM498.381 44.315C497.204 44.315 496.368 43.688 496.368 42.687C496.368 41.708 497.116 41.081 498.381 41.081H500.746V44.315H498.381ZM503.789 48H504.658V44.535H509.102V48H509.971V40.3H509.102V43.721H504.658V40.3H503.789V48ZM512.146 48H513.015V44.535H517.459V48H518.328V40.3H517.459V43.721H513.015V40.3H512.146V48ZM519.877 48H520.933L523.221 45.052H525.432V48H526.301V40.3H523.012C522.022 40.3 521.241 40.608 520.768 41.081C520.383 41.455 520.185 42.027 520.185 42.621C520.185 43.908 521.054 44.689 522.286 44.909L519.877 48ZM523.067 44.315C521.89 44.315 521.054 43.688 521.054 42.687C521.054 41.708 521.802 41.081 523.067 41.081H525.432V44.315H523.067Z" fill="#505050"/>
<path d="M349.567 22H352.185V12.463H356.877V22H359.495V10.1H349.567V22ZM362.469 22H365.087V10.1H362.469V22ZM373.637 22.204C375.932 22.204 377.292 21.49 378.516 20.181L376.85 18.396C375.915 19.246 375.082 19.79 373.722 19.79C371.682 19.79 370.271 18.09 370.271 16.05C370.271 13.976 371.716 12.31 373.722 12.31C375.082 12.31 375.864 12.803 376.782 13.636L378.346 11.834C377.241 10.746 375.983 9.896 373.739 9.896C370.084 9.896 367.534 12.667 367.534 16.05C367.534 19.501 370.135 22.204 373.637 22.204ZM382.193 10.1V12.565C382.193 18.974 381.394 19.875 379.983 19.875C379.813 19.875 379.694 19.858 379.575 19.841L379.405 22C379.728 22.085 380.357 22.153 380.782 22.153C383.502 22.153 384.641 20.368 384.641 13.364V12.463H388.075V22H390.693V10.1H382.193ZM402.963 10.1H397.523C394.735 10.1 393.035 11.562 393.035 14.027C393.035 15.982 394.072 17.189 395.585 17.75L392.678 22H395.738L398.288 18.192H400.345V22H402.963V10.1ZM397.693 15.88C396.418 15.88 395.687 15.2 395.687 14.197C395.687 13.041 396.469 12.463 397.744 12.463H400.345V15.88H397.693ZM412.508 10.1V12.565C412.508 18.974 411.709 19.875 410.298 19.875C410.128 19.875 410.009 19.858 409.89 19.841L409.72 22C410.043 22.085 410.672 22.153 411.097 22.153C413.817 22.153 414.956 20.368 414.956 13.364V12.463H418.39V22H421.008V10.1H412.508ZM423.978 22H426.596V10.1H423.978V22ZM429.57 22H432.188V18.362L433.565 16.934L437.254 22H440.399L435.333 15.149L440.178 10.1H437.016L432.188 15.302V10.1H429.57V22ZM447.02 16.39L443.79 10.1H440.866L445.626 19.008C445.15 19.739 444.606 19.96 444.13 19.96C443.671 19.96 443.195 19.858 442.719 19.569L441.699 21.49C442.447 21.915 443.246 22.187 444.266 22.187C445.932 22.187 447.122 21.371 448.159 19.297L452.732 10.1H449.893L447.02 16.39ZM454.472 22H460.133C462.819 22 464.587 20.912 464.587 18.736C464.587 17.104 463.737 16.305 462.36 15.778C463.21 15.302 463.924 14.554 463.924 13.211C463.924 12.361 463.652 11.698 463.108 11.154C462.428 10.474 461.357 10.1 459.997 10.1H454.472V22ZM457.022 14.911V12.395H459.606C460.711 12.395 461.323 12.837 461.323 13.619C461.323 14.537 460.592 14.911 459.436 14.911H457.022ZM457.022 19.705V17.087H460.048C461.391 17.087 461.986 17.58 461.986 18.379C461.986 19.297 461.289 19.705 460.133 19.705H457.022ZM465.721 22H468.39L469.478 19.331H474.51L475.598 22H478.335L473.235 10.015H470.821L465.721 22ZM470.413 17.019L471.994 13.16L473.575 17.019H470.413ZM480.172 22H482.79V17.223H487.618V22H490.236V10.1H487.618V14.809H482.79V10.1H480.172V22ZM493.088 22H495.706V17.223H500.534V22H503.152V10.1H500.534V14.809H495.706V10.1H493.088V22ZM515.422 10.1H509.982C507.194 10.1 505.494 11.562 505.494 14.027C505.494 15.982 506.531 17.189 508.044 17.75L505.137 22H508.197L510.747 18.192H512.804V22H515.422V10.1ZM510.152 15.88C508.877 15.88 508.146 15.2 508.146 14.197C508.146 13.041 508.928 12.463 510.203 12.463H512.804V15.88H510.152Z" fill="black"/>
<path d="M86.7855 12.896C84.5245 12.896 83.0965 13.695 81.9915 14.851L83.3685 16.517C84.1675 15.701 85.1195 15.208 86.5815 15.208C87.7205 15.208 88.5025 15.701 88.5025 16.534C88.5025 17.435 87.7545 17.911 86.3775 17.911H85.0345V20.087H86.4115C87.7715 20.087 88.7745 20.495 88.7745 21.481C88.7745 22.399 87.8735 22.909 86.7685 22.909C85.2215 22.909 83.9465 22.348 82.9775 21.396L81.5835 23.215C82.8585 24.507 84.3715 25.204 86.8705 25.204C89.6415 25.204 91.3925 23.691 91.3925 21.634C91.3925 20.121 90.4405 19.237 89.1655 18.829C90.2195 18.37 91.0865 17.571 91.0865 16.092C91.0865 14.239 89.3355 12.896 86.7855 12.896ZM92.6556 25H95.3246L96.4126 22.331H101.445L102.533 25H105.27L100.17 13.015H97.7556L92.6556 25ZM97.3476 20.019L98.9286 16.16L100.51 20.019H97.3476ZM112.682 25.204C114.977 25.204 116.337 24.49 117.561 23.181L115.895 21.396C114.96 22.246 114.127 22.79 112.767 22.79C110.727 22.79 109.316 21.09 109.316 19.05C109.316 16.976 110.761 15.31 112.767 15.31C114.127 15.31 114.909 15.803 115.827 16.636L117.391 14.834C116.286 13.746 115.028 12.896 112.784 12.896C109.129 12.896 106.579 15.667 106.579 19.05C106.579 22.501 109.18 25.204 112.682 25.204ZM122.428 25H125.046V15.514H128.667V13.1H118.807V15.514H122.428V25ZM136.46 25.204C140.132 25.204 142.801 22.433 142.801 19.05C142.801 15.633 140.166 12.896 136.494 12.896C132.822 12.896 130.153 15.667 130.153 19.05C130.153 22.467 132.788 25.204 136.46 25.204ZM136.494 22.79C134.386 22.79 132.89 21.09 132.89 19.05C132.89 16.976 134.352 15.31 136.46 15.31C138.568 15.31 140.064 17.01 140.064 19.05C140.064 21.124 138.602 22.79 136.494 22.79ZM150.7 25.204C152.995 25.204 154.355 24.49 155.579 23.181L153.913 21.396C152.978 22.246 152.145 22.79 150.785 22.79C148.745 22.79 147.334 21.09 147.334 19.05C147.334 16.976 148.779 15.31 150.785 15.31C152.145 15.31 152.927 15.803 153.845 16.636L155.409 14.834C154.304 13.746 153.046 12.896 150.802 12.896C147.147 12.896 144.597 15.667 144.597 19.05C144.597 22.501 147.198 25.204 150.7 25.204ZM162.707 19.39L159.477 13.1H156.553L161.313 22.008C160.837 22.739 160.293 22.96 159.817 22.96C159.358 22.96 158.882 22.858 158.406 22.569L157.386 24.49C158.134 24.915 158.933 25.187 159.953 25.187C161.619 25.187 162.809 24.371 163.846 22.297L168.419 13.1H165.58L162.707 19.39ZM170.159 25H175.82C178.506 25 180.274 23.912 180.274 21.736C180.274 20.104 179.424 19.305 178.047 18.778C178.897 18.302 179.611 17.554 179.611 16.211C179.611 15.361 179.339 14.698 178.795 14.154C178.115 13.474 177.044 13.1 175.684 13.1H170.159V25ZM172.709 17.911V15.395H175.293C176.398 15.395 177.01 15.837 177.01 16.619C177.01 17.537 176.279 17.911 175.123 17.911H172.709ZM172.709 22.705V20.087H175.735C177.078 20.087 177.673 20.58 177.673 21.379C177.673 22.297 176.976 22.705 175.82 22.705H172.709ZM181.408 25H184.077L185.165 22.331H190.197L191.285 25H194.022L188.922 13.015H186.508L181.408 25ZM186.1 20.019L187.681 16.16L189.262 20.019H186.1ZM195.858 25H198.476V20.223H203.304V25H205.922V13.1H203.304V17.809H198.476V13.1H195.858V25ZM208.774 25H211.392V20.223H216.22V25H218.838V13.1H216.22V17.809H211.392V13.1H208.774V25ZM231.108 13.1H225.668C222.88 13.1 221.18 14.562 221.18 17.027C221.18 18.982 222.217 20.189 223.73 20.75L220.823 25H223.883L226.433 21.192H228.49V25H231.108V13.1ZM225.838 18.88C224.563 18.88 223.832 18.2 223.832 17.197C223.832 16.041 224.614 15.463 225.889 15.463H228.49V18.88H225.838ZM81.5315 44H84.1495V40.362L85.5265 38.934L89.2155 44H92.3605L87.2945 37.149L92.1395 32.1H88.9775L84.1495 37.302V32.1H81.5315V44ZM93.9495 44H103.01V41.671H96.5505V39.172H102.16V36.843H96.5505V34.429H102.925V32.1H93.9495V44ZM108.109 44H110.727V34.514H114.348V32.1H104.488V34.514H108.109V44ZM122.142 44.204C125.814 44.204 128.483 41.433 128.483 38.05C128.483 34.633 125.848 31.896 122.176 31.896C118.504 31.896 115.835 34.667 115.835 38.05C115.835 41.467 118.47 44.204 122.142 44.204ZM122.176 41.79C120.068 41.79 118.572 40.09 118.572 38.05C118.572 35.976 120.034 34.31 122.142 34.31C124.25 34.31 125.746 36.01 125.746 38.05C125.746 40.124 124.284 41.79 122.176 41.79ZM130.805 44H133.423V40.362L134.8 38.934L138.489 44H141.634L136.568 37.149L141.413 32.1H138.251L133.423 37.302V32.1H130.805V44ZM149.003 44.204C152.675 44.204 155.344 41.433 155.344 38.05C155.344 34.633 152.709 31.896 149.037 31.896C145.365 31.896 142.696 34.667 142.696 38.05C142.696 41.467 145.331 44.204 149.003 44.204ZM149.037 41.79C146.929 41.79 145.433 40.09 145.433 38.05C145.433 35.976 146.895 34.31 149.003 34.31C151.111 34.31 152.607 36.01 152.607 38.05C152.607 40.124 151.145 41.79 149.037 41.79ZM157.666 44H160.284V39.223H165.112V44H167.73V32.1H165.112V36.809H160.284V32.1H157.666V44ZM169.562 44H172.231L173.319 41.331H178.351L179.439 44H182.176L177.076 32.015H174.662L169.562 44ZM174.254 39.019L175.835 35.16L177.416 39.019H174.254ZM188.246 31.896C185.985 31.896 184.557 32.695 183.452 33.851L184.829 35.517C185.628 34.701 186.58 34.208 188.042 34.208C189.181 34.208 189.963 34.701 189.963 35.534C189.963 36.435 189.215 36.911 187.838 36.911H186.495V39.087H187.872C189.232 39.087 190.235 39.495 190.235 40.481C190.235 41.399 189.334 41.909 188.229 41.909C186.682 41.909 185.407 41.348 184.438 40.396L183.044 42.215C184.319 43.507 185.832 44.204 188.331 44.204C191.102 44.204 192.853 42.691 192.853 40.634C192.853 39.121 191.901 38.237 190.626 37.829C191.68 37.37 192.547 36.571 192.547 35.092C192.547 33.239 190.796 31.896 188.246 31.896ZM200.916 44.204C204.588 44.204 207.257 41.433 207.257 38.05C207.257 34.633 204.622 31.896 200.95 31.896C197.278 31.896 194.609 34.667 194.609 38.05C194.609 41.467 197.244 44.204 200.916 44.204ZM200.95 41.79C198.842 41.79 197.346 40.09 197.346 38.05C197.346 35.976 198.808 34.31 200.916 34.31C203.024 34.31 204.52 36.01 204.52 38.05C204.52 40.124 203.058 41.79 200.95 41.79ZM211.16 32.1V34.565C211.16 40.974 210.361 41.875 208.95 41.875C208.78 41.875 208.661 41.858 208.542 41.841L208.372 44C208.695 44.085 209.324 44.153 209.749 44.153C212.469 44.153 213.608 42.368 213.608 35.364V34.463H217.042V44H219.66V32.1H211.16ZM227.544 38.39L224.314 32.1H221.39L226.15 41.008C225.674 41.739 225.13 41.96 224.654 41.96C224.195 41.96 223.719 41.858 223.243 41.569L222.223 43.49C222.971 43.915 223.77 44.187 224.79 44.187C226.456 44.187 227.646 43.371 228.683 41.297L233.256 32.1H230.417L227.544 38.39Z" fill="white"/>
</svg>
