<svg width="444" height="432" viewBox="0 0 444 432" fill="none" xmlns="http://www.w3.org/2000/svg">
<line x1="81" y1="93.5" x2="422" y2="93.5" stroke="#949494"/>
<line x1="81" y1="143.333" x2="422" y2="143.333" stroke="#949494"/>
<line x1="81" y1="193.167" x2="422" y2="193.167" stroke="#949494"/>
<line x1="81" y1="243" x2="422" y2="243" stroke="#949494"/>
<line x1="81" y1="292.833" x2="422" y2="292.833" stroke="#949494"/>
<line x1="81" y1="342.667" x2="422" y2="342.667" stroke="#949494"/>
<line x1="81" y1="392.5" x2="422" y2="392.5" stroke="#949494"/>
<rect x="272" y="307" width="106" height="86" fill="#2B9230"/>
<rect x="117" y="121" width="106" height="272" fill="#BFBFBF"/>
<path d="M321.155 285.692C321.537 286.091 322.17 286.104 322.569 285.722L329.066 279.494C329.465 279.112 329.478 278.479 329.096 278.08C328.714 277.681 328.081 277.668 327.682 278.05L321.907 283.586L316.371 277.811C315.989 277.412 315.356 277.399 314.957 277.781C314.558 278.163 314.545 278.796 314.927 279.195L321.155 285.692ZM173.405 115.484C199.528 103.926 237.369 97.9954 268.126 118.899C298.867 139.792 322.935 187.768 320.877 284.979L322.877 285.021C324.94 187.58 300.842 138.716 269.25 117.245C237.675 95.7846 199.016 101.965 172.595 113.655L173.405 115.484Z" fill="#2B9230"/>
<rect x="253.5" y="159.5" width="144" height="65" fill="white" stroke="#2B9230"/>
<path d="M290.326 414.606H291.855L291.965 413H296.783V414.606H298.202L298.422 411.471H297.498V405.3H291.899V406.202C291.899 408.831 291.624 410.14 291.052 411.471H290.326V414.606ZM295.804 406.829V411.471H292.834C293.274 410.404 293.527 409.238 293.527 407.61V406.829H295.804ZM299.605 413H305.468V411.493H301.288V409.876H304.918V408.369H301.288V406.807H305.413V405.3H299.605V413ZM306.974 413H308.668V410.69H309.955C311.682 410.69 313.068 409.766 313.068 407.984C313.068 406.389 311.957 405.3 310.12 405.3H306.974V413ZM308.668 409.183V406.829H309.977C310.824 406.829 311.352 407.236 311.352 407.995C311.352 408.677 310.857 409.183 310.01 409.183H308.668ZM314.322 413H316.016V410.646L316.907 409.722L319.294 413H321.329L318.051 408.567L321.186 405.3H319.14L316.016 408.666V405.3H314.322V413ZM326.097 413.132C328.473 413.132 330.2 411.339 330.2 409.15C330.2 406.939 328.495 405.168 326.119 405.168C323.743 405.168 322.016 406.961 322.016 409.15C322.016 411.361 323.721 413.132 326.097 413.132ZM326.119 411.57C324.755 411.57 323.787 410.47 323.787 409.15C323.787 407.808 324.733 406.73 326.097 406.73C327.461 406.73 328.429 407.83 328.429 409.15C328.429 410.492 327.483 411.57 326.119 411.57ZM335.311 413.132C336.796 413.132 337.676 412.67 338.468 411.823L337.39 410.668C336.785 411.218 336.246 411.57 335.366 411.57C334.046 411.57 333.133 410.47 333.133 409.15C333.133 407.808 334.068 406.73 335.366 406.73C336.246 406.73 336.752 407.049 337.346 407.588L338.358 406.422C337.643 405.718 336.829 405.168 335.377 405.168C333.012 405.168 331.362 406.961 331.362 409.15C331.362 411.383 333.045 413.132 335.311 413.132ZM342.308 414.606H343.837L343.947 413H348.765V414.606H350.184L350.404 411.471H349.48V405.3H343.881V406.202C343.881 408.831 343.606 410.14 343.034 411.471H342.308V414.606ZM347.786 406.829V411.471H344.816C345.256 410.404 345.509 409.238 345.509 407.61V406.829H347.786ZM355.195 413.132C356.68 413.132 357.56 412.67 358.352 411.823L357.274 410.668C356.669 411.218 356.13 411.57 355.25 411.57C353.93 411.57 353.017 410.47 353.017 409.15C353.017 407.808 353.952 406.73 355.25 406.73C356.13 406.73 356.636 407.049 357.23 407.588L358.242 406.422C357.527 405.718 356.713 405.168 355.261 405.168C352.896 405.168 351.246 406.961 351.246 409.15C351.246 411.383 352.929 413.132 355.195 413.132Z" fill="#2B9230"/>
<path d="M149.59 405.3H147.896V411.471H145.146V405.3H143.452V411.471H140.713V405.3H139.019V413H149.59V405.3ZM150.777 413H152.504L153.208 411.273H156.464L157.168 413H158.939L155.639 405.245H154.077L150.777 413ZM153.813 409.777L154.836 407.28L155.859 409.777H153.813ZM160.128 413H161.789V408.006L163.934 411.262H163.978L166.145 407.973V413H167.828V405.3H166.002L163.978 408.556L161.954 405.3H160.128V413ZM169.677 413H171.371V406.829H174.407V413H176.101V405.3H169.677V413ZM181.205 409.37L179.115 405.3H177.223L180.303 411.064C179.995 411.537 179.643 411.68 179.335 411.68C179.038 411.68 178.73 411.614 178.422 411.427L177.762 412.67C178.246 412.945 178.763 413.121 179.423 413.121C180.501 413.121 181.271 412.593 181.942 411.251L184.901 405.3H183.064L181.205 409.37ZM186.027 413H187.721V409.909H190.845V413H192.539V405.3H190.845V408.347H187.721V405.3H186.027V413ZM194.384 413H197.607C199.411 413 200.533 411.999 200.533 410.415C200.533 408.908 199.499 407.918 197.717 407.918H196.078V405.3H194.384V413ZM197.574 409.37C198.421 409.37 198.85 409.744 198.85 410.393C198.85 411.108 198.421 411.471 197.585 411.471H196.078V409.37H197.574Z" fill="#BFBFBF"/>
<path d="M131.639 427H133.333V420.829H136.369V427H138.063V419.3H131.639V427ZM143.651 427.132C146.027 427.132 147.754 425.339 147.754 423.15C147.754 420.939 146.049 419.168 143.673 419.168C141.297 419.168 139.57 420.961 139.57 423.15C139.57 425.361 141.275 427.132 143.651 427.132ZM143.673 425.57C142.309 425.57 141.341 424.47 141.341 423.15C141.341 421.808 142.287 420.73 143.651 420.73C145.015 420.73 145.983 421.83 145.983 423.15C145.983 424.492 145.037 425.57 143.673 425.57ZM149.257 427H150.951V424.69H152.238C153.965 424.69 155.351 423.766 155.351 421.984C155.351 420.389 154.24 419.3 152.403 419.3H149.257V427ZM150.951 423.183V420.829H152.26C153.107 420.829 153.635 421.236 153.635 421.995C153.635 422.677 153.14 423.183 152.293 423.183H150.951ZM156.681 427H158.375V419.3H156.681V427ZM160.299 427H163.962C165.7 427 166.844 426.296 166.844 424.888C166.844 423.832 166.294 423.315 165.403 422.974C165.953 422.666 166.415 422.182 166.415 421.313C166.415 420.763 166.239 420.334 165.887 419.982C165.447 419.542 164.754 419.3 163.874 419.3H160.299V427ZM161.949 422.413V420.785H163.621C164.336 420.785 164.732 421.071 164.732 421.577C164.732 422.171 164.259 422.413 163.511 422.413H161.949ZM161.949 425.515V423.821H163.907C164.776 423.821 165.161 424.14 165.161 424.657C165.161 425.251 164.71 425.515 163.962 425.515H161.949ZM168.238 427H169.932V423.909H173.056V427H174.75V419.3H173.056V422.347H169.932V419.3H168.238V427ZM182.689 419.3H179.169C177.365 419.3 176.265 420.246 176.265 421.841C176.265 423.106 176.936 423.887 177.915 424.25L176.034 427H178.014L179.664 424.536H180.995V427H182.689V419.3ZM179.279 423.04C178.454 423.04 177.981 422.6 177.981 421.951C177.981 421.203 178.487 420.829 179.312 420.829H180.995V423.04H179.279ZM184.545 427H186.239V423.909H189.363V427H191.057V419.3H189.363V422.347H186.239V419.3H184.545V427ZM192.902 427H194.596V423.909H197.72V427H199.414V419.3H197.72V422.347H194.596V419.3H192.902V427ZM207.353 419.3H203.833C202.029 419.3 200.929 420.246 200.929 421.841C200.929 423.106 201.6 423.887 202.579 424.25L200.698 427H202.678L204.328 424.536H205.659V427H207.353V419.3ZM203.943 423.04C203.118 423.04 202.645 422.6 202.645 421.951C202.645 421.203 203.151 420.829 203.976 420.829H205.659V423.04H203.943Z" fill="black"/>
<path d="M303.97 330H306.554V318.015H304.769L301.352 319.035L301.896 321.177L303.97 320.667V330ZM313.879 330.204C316.463 330.204 318.418 328.521 318.418 326.09C318.418 323.574 316.599 322.265 314.236 322.265C313.063 322.265 312.366 322.639 311.771 323.03C311.941 321.466 312.689 320.276 314.168 320.276C315.188 320.276 315.817 320.633 316.599 321.228L317.976 319.205C316.922 318.372 315.868 317.896 314.253 317.896C310.7 317.896 309.034 320.718 309.034 324.39C309.034 326.787 309.578 328.062 310.445 328.929C311.278 329.762 312.332 330.204 313.879 330.204ZM313.777 327.96C312.485 327.96 311.703 327.195 311.703 326.192C311.703 325.155 312.451 324.441 313.743 324.441C315.035 324.441 315.817 325.172 315.817 326.175C315.817 327.229 315.069 327.96 313.777 327.96ZM320.035 332.754C322.058 332.72 323.18 331.819 323.18 329.575V327.28H320.426V330H321.48V330.187C321.48 331.054 320.919 331.564 319.814 331.683L320.035 332.754ZM325.332 330H328.29L333.628 320.072V318.1H325.06V320.361H330.653L325.332 330ZM338.068 324.05C339.802 324.05 340.975 322.673 340.975 321.007C340.975 319.307 339.819 317.964 338.102 317.964C336.368 317.964 335.195 319.324 335.195 321.007C335.195 322.707 336.351 324.05 338.068 324.05ZM336.385 330H338.408L347.095 318.1H345.072L336.385 330ZM345.378 330.136C347.112 330.136 348.285 328.759 348.285 327.093C348.285 325.393 347.129 324.05 345.412 324.05C343.678 324.05 342.505 325.41 342.505 327.093C342.505 328.793 343.661 330.136 345.378 330.136ZM338.102 322.503C337.422 322.503 336.98 321.806 336.98 321.007C336.98 320.191 337.354 319.511 338.068 319.511C338.748 319.511 339.19 320.208 339.19 321.007C339.19 321.806 338.816 322.503 338.102 322.503ZM345.412 328.589C344.732 328.589 344.29 327.892 344.29 327.093C344.29 326.277 344.664 325.597 345.378 325.597C346.058 325.597 346.5 326.294 346.5 327.093C346.5 327.892 346.126 328.589 345.412 328.589Z" fill="white"/>
<path d="M269.839 212H270.686V205.774L273.491 209.888H273.535L276.34 205.763V212H277.209V204.3H276.329L273.524 208.502L270.719 204.3H269.839V212ZM279.389 212H285.01V211.208H280.258V208.513H284.46V207.721H280.258V205.092H284.955V204.3H279.389V212ZM286.758 212H287.627V208.535H292.071V212H292.94V204.3H292.071V207.721H287.627V204.3H286.758V212ZM295.115 212H305.07V204.3H304.201V211.208H300.527V204.3H299.658V211.208H295.984V204.3H295.115V212ZM307.243 212H312.864V211.208H308.112V208.513H312.314V207.721H308.112V205.092H312.809V204.3H307.243V212ZM317.91 212H318.779V209.283H320.649C322.288 209.283 323.674 208.425 323.674 206.764C323.674 205.224 322.53 204.3 320.792 204.3H317.91V212ZM318.779 208.491V205.103H320.726C321.969 205.103 322.794 205.675 322.794 206.775C322.794 207.809 321.958 208.491 320.682 208.491H318.779ZM325.258 212H330.879V211.208H326.127V208.513H330.329V207.721H326.127V205.092H330.824V204.3H325.258V212ZM338.908 213.716H339.634L339.766 211.208H338.765V204.3H337.896V211.208H333.496V204.3H332.627V212H338.908V213.716ZM341.038 212H341.885L346.472 205.609V212H347.33V204.3H346.505L341.907 210.691V204.3H341.038V212ZM348.524 213.716H349.261L349.415 212H355.663V213.716H356.389L356.521 211.208H355.52V204.3H350.482V205.642C350.482 208.139 350.053 210.031 349.316 211.208H348.524V213.716ZM350.295 211.208C350.933 210.152 351.318 208.084 351.318 206.093V205.092H354.651V211.208H350.295ZM357.796 212H358.643L363.23 205.609V212H364.088V204.3H363.263L358.665 210.691V204.3H357.796V212ZM366.261 212H369.682C371.365 212 372.476 211.219 372.476 209.899C372.476 208.821 371.739 208.293 370.826 208.018C371.431 207.754 372.047 207.237 372.047 206.236C372.047 205.719 371.871 205.312 371.552 204.982C371.123 204.542 370.419 204.3 369.539 204.3H366.261V212ZM367.119 211.219V208.502H369.55C370.892 208.502 371.596 208.986 371.596 209.822C371.596 210.702 370.87 211.219 369.704 211.219H367.119ZM367.119 207.732V205.081H369.462C370.562 205.081 371.167 205.576 371.167 206.335C371.167 207.259 370.441 207.732 369.396 207.732H367.119ZM374.276 212H375.145V204.3H374.276V212ZM377.401 212H380.822C382.505 212 383.616 211.219 383.616 209.899C383.616 208.821 382.879 208.293 381.966 208.018C382.571 207.754 383.187 207.237 383.187 206.236C383.187 205.719 383.011 205.312 382.692 204.982C382.263 204.542 381.559 204.3 380.679 204.3H377.401V212ZM378.259 211.219V208.502H380.69C382.032 208.502 382.736 208.986 382.736 209.822C382.736 210.702 382.01 211.219 380.844 211.219H378.259ZM378.259 207.732V205.081H380.602C381.702 205.081 382.307 205.576 382.307 206.335C382.307 207.259 381.581 207.732 380.536 207.732H378.259Z" fill="#2B9230"/>
<path d="M314.36 197H319.358V191.866H322.554V187.616H319.358V173.03H314.938L301.882 188.16L302.732 191.866H314.36V197ZM308.036 187.616L314.36 180.204V187.616H308.036ZM325.324 197H331.274L336.646 188.84L341.984 197H348.104L339.808 184.828L347.764 173.2H341.814L336.782 180.918L331.784 173.2H325.664L333.62 184.896L325.324 197Z" fill="#2B9230"/>
<path d="M148.93 146.204C151.667 146.204 153.452 144.606 153.452 142.09C153.452 139.37 151.599 138.248 149.287 138.248C148.624 138.248 148.199 138.333 147.723 138.452L147.859 136.395H152.925V134.1H145.615L145.275 139.965L146.788 140.968C147.349 140.73 148.029 140.526 148.777 140.526C150.018 140.526 150.885 141.121 150.885 142.141C150.885 143.229 150.12 143.824 148.896 143.824C147.842 143.824 146.958 143.348 146.057 142.532L144.476 144.419C145.632 145.524 147.026 146.204 148.93 146.204ZM161.219 146H163.718V143.433H165.316V141.308H163.718V134.015H161.508L154.98 141.58L155.405 143.433H161.219V146ZM158.057 141.308L161.219 137.602V141.308H158.057ZM166.836 148.754C168.859 148.72 169.981 147.819 169.981 145.575V143.28H167.227V146H168.281V146.187C168.281 147.054 167.72 147.564 166.615 147.683L166.836 148.754ZM171.871 146H180.677V143.739H175.492L177.43 142.243C179.538 140.611 180.558 139.625 180.558 137.636C180.558 135.375 178.926 133.93 176.461 133.93C174.336 133.93 173.197 134.797 172.024 136.395L173.86 137.874C174.744 136.786 175.373 136.276 176.291 136.276C177.226 136.276 177.889 136.82 177.889 137.823C177.889 138.809 177.311 139.455 175.832 140.679L171.871 143.926V146ZM185.267 140.05C187.001 140.05 188.174 138.673 188.174 137.007C188.174 135.307 187.018 133.964 185.301 133.964C183.567 133.964 182.394 135.324 182.394 137.007C182.394 138.707 183.55 140.05 185.267 140.05ZM183.584 146H185.607L194.294 134.1H192.271L183.584 146ZM192.577 146.136C194.311 146.136 195.484 144.759 195.484 143.093C195.484 141.393 194.328 140.05 192.611 140.05C190.877 140.05 189.704 141.41 189.704 143.093C189.704 144.793 190.86 146.136 192.577 146.136ZM185.301 138.503C184.621 138.503 184.179 137.806 184.179 137.007C184.179 136.191 184.553 135.511 185.267 135.511C185.947 135.511 186.389 136.208 186.389 137.007C186.389 137.806 186.015 138.503 185.301 138.503ZM192.611 144.589C191.931 144.589 191.489 143.892 191.489 143.093C191.489 142.277 191.863 141.597 192.577 141.597C193.257 141.597 193.699 142.294 193.699 143.093C193.699 143.892 193.325 144.589 192.611 144.589Z" fill="white"/>
<path d="M55.4106 96.132C57.0826 96.132 58.3476 95.043 58.3476 93.47C58.3476 91.842 57.1706 90.995 55.6416 90.995C54.8826 90.995 54.4316 91.237 54.0466 91.49C54.1566 90.478 54.6406 89.708 55.5976 89.708C56.2576 89.708 56.6646 89.939 57.1706 90.324L58.0616 89.015C57.3796 88.476 56.6976 88.168 55.6526 88.168C53.3536 88.168 52.2756 89.994 52.2756 92.37C52.2756 93.921 52.6276 94.746 53.1886 95.307C53.7276 95.846 54.4096 96.132 55.4106 96.132ZM55.3446 94.68C54.5086 94.68 54.0026 94.185 54.0026 93.536C54.0026 92.865 54.4866 92.403 55.3226 92.403C56.1586 92.403 56.6646 92.876 56.6646 93.525C56.6646 94.207 56.1806 94.68 55.3446 94.68ZM62.9688 96.132C65.0258 96.132 66.4008 94.383 66.4008 92.15C66.4008 89.895 65.0258 88.168 62.9908 88.168C60.9448 88.168 59.5588 89.917 59.5588 92.15C59.5588 94.405 60.9118 96.132 62.9688 96.132ZM62.9908 94.603C61.9678 94.603 61.2968 93.558 61.2968 92.15C61.2968 90.72 61.9568 89.697 62.9688 89.697C63.9808 89.697 64.6628 90.753 64.6628 92.15C64.6628 93.569 64.0138 94.603 62.9908 94.603ZM55.3911 146.132C57.1621 146.132 58.3171 145.098 58.3171 143.47C58.3171 141.71 57.1181 140.984 55.6221 140.984C55.1931 140.984 54.9181 141.039 54.6101 141.116L54.6981 139.785H57.9761V138.3H53.2461L53.0261 142.095L54.0051 142.744C54.3681 142.59 54.8081 142.458 55.2921 142.458C56.0951 142.458 56.6561 142.843 56.6561 143.503C56.6561 144.207 56.1611 144.592 55.3691 144.592C54.6871 144.592 54.1151 144.284 53.5321 143.756L52.5091 144.977C53.2571 145.692 54.1591 146.132 55.3911 146.132ZM62.9688 146.132C65.0258 146.132 66.4008 144.383 66.4008 142.15C66.4008 139.895 65.0258 138.168 62.9908 138.168C60.9448 138.168 59.5588 139.917 59.5588 142.15C59.5588 144.405 60.9118 146.132 62.9688 146.132ZM62.9908 144.603C61.9678 144.603 61.2968 143.558 61.2968 142.15C61.2968 140.72 61.9568 139.697 62.9688 139.697C63.9808 139.697 64.6628 140.753 64.6628 142.15C64.6628 143.569 64.0138 144.603 62.9908 144.603ZM55.7589 195H57.3759V193.339H58.4099V191.964H57.3759V187.245H55.9459L51.7219 192.14L51.9969 193.339H55.7589V195ZM53.7129 191.964L55.7589 189.566V191.964H53.7129ZM62.9688 195.132C65.0258 195.132 66.4008 193.383 66.4008 191.15C66.4008 188.895 65.0258 187.168 62.9908 187.168C60.9448 187.168 59.5588 188.917 59.5588 191.15C59.5588 193.405 60.9118 195.132 62.9688 195.132ZM62.9908 193.603C61.9678 193.603 61.2968 192.558 61.2968 191.15C61.2968 189.72 61.9568 188.697 62.9688 188.697C63.9808 188.697 64.6628 189.753 64.6628 191.15C64.6628 192.569 64.0138 193.603 62.9908 193.603ZM55.5538 245.132C57.2698 245.132 58.3258 244.065 58.3258 242.613C58.3258 241.161 57.3028 240.611 56.2578 240.435L58.2048 238.576V237.3H53.0018V238.752H56.0268L54.1898 240.6L54.4538 241.678H55.1578C56.1038 241.678 56.6648 242.03 56.6648 242.657C56.6648 243.251 56.2138 243.614 55.5758 243.614C54.7948 243.614 54.2448 243.284 53.7168 242.69L52.5508 243.801C53.2108 244.582 54.1678 245.132 55.5538 245.132ZM62.9688 245.132C65.0258 245.132 66.4008 243.383 66.4008 241.15C66.4008 238.895 65.0258 237.168 62.9908 237.168C60.9448 237.168 59.5588 238.917 59.5588 241.15C59.5588 243.405 60.9118 245.132 62.9688 245.132ZM62.9908 243.603C61.9678 243.603 61.2968 242.558 61.2968 241.15C61.2968 239.72 61.9568 238.697 62.9688 238.697C63.9808 238.697 64.6628 239.753 64.6628 241.15C64.6628 242.569 64.0138 243.603 62.9908 243.603ZM52.6503 294H58.3483V292.537H54.9933L56.2473 291.569C57.6113 290.513 58.2713 289.875 58.2713 288.588C58.2713 287.125 57.2153 286.19 55.6203 286.19C54.2453 286.19 53.5083 286.751 52.7493 287.785L53.9373 288.742C54.5093 288.038 54.9163 287.708 55.5103 287.708C56.1153 287.708 56.5443 288.06 56.5443 288.709C56.5443 289.347 56.1703 289.765 55.2133 290.557L52.6503 292.658V294ZM62.9688 294.132C65.0258 294.132 66.4008 292.383 66.4008 290.15C66.4008 287.895 65.0258 286.168 62.9908 286.168C60.9448 286.168 59.5588 287.917 59.5588 290.15C59.5588 292.405 60.9118 294.132 62.9688 294.132ZM62.9908 292.603C61.9678 292.603 61.2968 291.558 61.2968 290.15C61.2968 288.72 61.9568 287.697 62.9688 287.697C63.9808 287.697 64.6628 288.753 64.6628 290.15C64.6628 291.569 64.0138 292.603 62.9908 292.603ZM56.2822 344H57.9542V336.245H56.7992L54.5882 336.905L54.9402 338.291L56.2822 337.961V344ZM62.9688 344.132C65.0258 344.132 66.4008 342.383 66.4008 340.15C66.4008 337.895 65.0258 336.168 62.9908 336.168C60.9448 336.168 59.5588 337.917 59.5588 340.15C59.5588 342.405 60.9118 344.132 62.9688 344.132ZM62.9908 342.603C61.9678 342.603 61.2968 341.558 61.2968 340.15C61.2968 338.72 61.9568 337.697 62.9688 337.697C63.9808 337.697 64.6628 338.753 64.6628 340.15C64.6628 341.569 64.0138 342.603 62.9908 342.603ZM62.9688 393.132C65.0258 393.132 66.4008 391.383 66.4008 389.15C66.4008 386.895 65.0258 385.168 62.9908 385.168C60.9448 385.168 59.5588 386.917 59.5588 389.15C59.5588 391.405 60.9118 393.132 62.9688 393.132ZM62.9908 391.603C61.9678 391.603 61.2968 390.558 61.2968 389.15C61.2968 387.72 61.9568 386.697 62.9688 386.697C63.9808 386.697 64.6628 387.753 64.6628 389.15C64.6628 390.569 64.0138 391.603 62.9908 391.603Z" fill="#505050"/>
<path d="M11.15 329.404C11.15 328.359 10.226 327.655 9.181 327.655C8.125 327.655 7.212 328.348 7.212 329.382C7.212 330.438 8.136 331.142 9.181 331.142C10.237 331.142 11.15 330.449 11.15 329.404ZM15 330.35L15 329.558L7.3 323.915L7.3 324.696L15 330.35ZM15.088 324.872C15.088 323.816 14.164 323.123 13.119 323.123C12.063 323.123 11.15 323.805 11.15 324.85C11.15 325.895 12.074 326.599 13.119 326.599C14.175 326.599 15.088 325.906 15.088 324.872ZM10.534 329.382C10.534 329.954 9.951 330.405 9.181 330.405C8.433 330.405 7.828 330.009 7.828 329.404C7.828 328.843 8.411 328.381 9.181 328.381C9.94 328.381 10.534 328.788 10.534 329.382ZM14.472 324.85C14.472 325.422 13.889 325.873 13.119 325.873C12.371 325.873 11.766 325.466 11.766 324.872C11.766 324.3 12.349 323.849 13.119 323.849C13.878 323.849 14.472 324.245 14.472 324.85ZM15 318.153L15 317.284L8.092 317.284L8.092 312.95L15 312.95L15 312.081L7.3 312.081L7.3 318.153L15 318.153ZM15 310.563L15 309.672L12.965 308.759L12.965 304.568L15 303.666L15 302.731L7.245 306.24L7.245 307.054L15 310.563ZM12.184 308.418L8.257 306.658L12.184 304.909L12.184 308.418ZM16.716 294.932L16.716 294.206L14.208 294.074L14.208 295.075L7.3 295.075L7.3 295.944L14.208 295.944L14.208 300.344L7.3 300.344L7.3 301.213L15 301.213L15 294.932L16.716 294.932ZM15 292.725L15 291.856L7.3 291.856L7.3 292.725L15 292.725ZM15.132 286.08C15.132 284.683 14.593 283.781 13.779 282.978L13.207 283.616C13.911 284.353 14.34 285.002 14.34 286.058C14.34 287.631 13.119 288.852 11.513 289.017L11.513 285.134L10.721 285.134L10.721 289.006C9.13699 288.819 7.95999 287.62 7.95999 286.058C7.95999 285.013 8.41099 284.287 9.02699 283.638L8.433 283.088C7.70699 283.858 7.168 284.65 7.168 286.047C7.168 288.313 8.972 289.941 11.15 289.941C13.383 289.941 15.132 288.302 15.132 286.08ZM15 281.469L15 280.6L11.535 280.6L11.535 276.156L15 276.156L15 275.287L7.29999 275.287L7.29999 276.156L10.721 276.156L10.721 280.6L7.29999 280.6L7.29999 281.469L15 281.469ZM15 271.076L15 270.196L8.09199 270.196L8.09199 267.611L7.29999 267.611L7.29999 273.661L8.09199 273.661L8.09199 271.076L15 271.076ZM15 265.901L15 265.032L7.29999 265.032L7.29999 265.901L15 265.901ZM15 262.777L15 259.356C15 257.673 14.219 256.562 12.899 256.562C11.821 256.562 11.293 257.299 11.018 258.212C10.754 257.607 10.237 256.991 9.23599 256.991C8.71899 256.991 8.31199 257.167 7.98199 257.486C7.54199 257.915 7.29999 258.619 7.29999 259.499L7.29999 262.777L15 262.777ZM14.219 261.919L11.502 261.919L11.502 259.488C11.502 258.146 11.986 257.442 12.822 257.442C13.702 257.442 14.219 258.168 14.219 259.334L14.219 261.919ZM10.732 261.919L8.08099 261.919L8.08099 259.576C8.08099 258.476 8.57599 257.871 9.33499 257.871C10.259 257.871 10.732 258.597 10.732 259.642L10.732 261.919ZM15 251.464L15 250.595L7.29999 250.595L7.29999 251.464L15 251.464ZM15.132 245.788C15.132 244.182 14.164 243.093 12.943 243.093C11.92 243.093 11.326 243.797 11.051 244.71C10.798 244.006 10.27 243.302 9.23599 243.302C8.04799 243.302 7.17899 244.369 7.17899 245.898C7.17899 247.119 7.54199 247.922 8.20199 248.692L8.80699 248.186C8.20199 247.515 7.93799 246.789 7.93799 245.92C7.93799 244.908 8.52099 244.182 9.31299 244.182C10.226 244.182 10.765 244.963 10.765 246.063L10.765 246.91L11.48 246.91L11.48 246.063C11.48 244.886 11.898 243.984 12.899 243.984C13.812 243.984 14.384 244.831 14.384 245.777C14.384 246.888 14.021 247.702 13.284 248.483L13.889 249C14.714 248.098 15.132 247.119 15.132 245.788ZM15 238.049L15 237.18L12.283 237.18L12.283 235.31C12.283 233.671 11.425 232.285 9.76399 232.285C8.22399 232.285 7.29999 233.429 7.29999 235.167L7.29999 238.049L15 238.049ZM11.491 237.18L8.10299 237.18L8.10299 235.233C8.10299 233.99 8.67499 233.165 9.77499 233.165C10.809 233.165 11.491 234.001 11.491 235.277L11.491 237.18ZM15 230.701L15 225.08L14.208 225.08L14.208 229.832L11.513 229.832L11.513 225.63L10.721 225.63L10.721 229.832L8.09199 229.832L8.09199 225.135L7.29999 225.135L7.29999 230.701L15 230.701ZM16.716 217.051L16.716 216.325L14.208 216.193L14.208 217.194L7.29999 217.194L7.29999 218.063L14.208 218.063L14.208 222.463L7.29999 222.463L7.29999 223.332L15 223.332L15 217.051L16.716 217.051ZM15 214.921L15 214.074L8.60899 209.487L15 209.487L15 208.629L7.29999 208.629L7.29999 209.454L13.691 214.052L7.29999 214.052L7.29999 214.921L15 214.921ZM16.716 207.435L16.716 206.698L15 206.544L15 200.296L16.716 200.296L16.716 199.57L14.208 199.438L14.208 200.439L7.29999 200.439L7.29999 205.477L8.64199 205.477C11.139 205.477 13.031 205.906 14.208 206.643L14.208 207.435L16.716 207.435ZM14.208 205.664C13.152 205.026 11.084 204.641 9.09299 204.641L8.09199 204.641L8.09199 201.308L14.208 201.308L14.208 205.664ZM15 198.163L15 197.316L8.60899 192.729L15 192.729L15 191.871L7.29999 191.871L7.29999 192.696L13.691 197.294L7.29999 197.294L7.29999 198.163L15 198.163ZM15 189.698L15 186.277C15 184.594 14.219 183.483 12.899 183.483C11.821 183.483 11.293 184.22 11.018 185.133C10.754 184.528 10.237 183.912 9.23599 183.912C8.71899 183.912 8.31199 184.088 7.98199 184.407C7.54199 184.836 7.29999 185.54 7.29999 186.42L7.29999 189.698L15 189.698ZM14.219 188.84L11.502 188.84L11.502 186.409C11.502 185.067 11.986 184.363 12.822 184.363C13.702 184.363 14.219 185.089 14.219 186.255L14.219 188.84ZM10.732 188.84L8.08099 188.84L8.08099 186.497C8.08099 185.397 8.57599 184.792 9.33499 184.792C10.259 184.792 10.732 185.518 10.732 186.563L10.732 188.84ZM15 182.42L15 181.529L12.965 180.616L12.965 176.425L15 175.523L15 174.588L7.24499 178.097L7.24499 178.911L15 182.42ZM12.184 180.275L8.25699 178.515L12.184 176.766L12.184 180.275ZM15 173.069L15 172.222L8.77399 172.222L12.888 169.417L12.888 169.373L8.76299 166.568L15 166.568L15 165.699L7.29999 165.699L7.29999 166.579L11.502 169.384L7.29999 172.189L7.29999 173.069L15 173.069ZM15 163.519L15 162.672L8.60899 158.085L15 158.085L15 157.227L7.29999 157.227L7.29999 158.052L13.691 162.65L7.29999 162.65L7.29999 163.519L15 163.519ZM28 369.262L28 368.415L23.061 368.415L23.061 365.181L28 365.181L28 364.334L22.313 364.334L22.313 369.262L28 369.262ZM29.76 362.441L29.76 361.594L26.911 361.594C27.549 361.154 28.121 360.472 28.121 359.416C28.121 358.041 27.021 356.699 25.162 356.699C23.27 356.699 22.192 358.052 22.192 359.416C22.192 360.461 22.775 361.132 23.457 361.594L22.313 361.594L22.313 362.441L29.76 362.441ZM27.362 359.57C27.362 360.626 26.482 361.627 25.162 361.627C23.842 361.627 22.951 360.626 22.951 359.57C22.951 358.492 23.809 357.568 25.151 357.568C26.548 357.568 27.362 358.47 27.362 359.57ZM28.132 352.541C28.132 350.825 26.768 349.56 25.162 349.56C23.534 349.56 22.192 350.814 22.192 352.519C22.192 354.235 23.556 355.489 25.162 355.489C26.79 355.489 28.132 354.246 28.132 352.541ZM27.373 352.519C27.373 353.718 26.383 354.62 25.162 354.62C23.941 354.62 22.94 353.773 22.94 352.541C22.94 351.342 23.941 350.429 25.162 350.429C26.383 350.429 27.373 351.287 27.373 352.519ZM28 346.65L28 345.792L23.061 345.792L23.061 343.757L22.313 343.757L22.313 348.685L23.061 348.685L23.061 346.65L28 346.65ZM28 343.031L28 341.986C27.318 341.458 26.625 340.941 25.932 340.413L25.932 338.84L28 338.84L28 337.993L22.313 337.993L22.313 340.666C22.313 342.019 23.039 342.811 24.084 342.811C25.008 342.811 25.602 342.14 25.8 341.293L28 343.031ZM25.217 340.6C25.217 341.392 24.81 341.964 24.117 341.964C23.468 341.964 23.061 341.469 23.061 340.622L23.061 338.84L25.217 338.84L25.217 340.6ZM28 336.101L28 335.254L23.061 335.254L23.061 332.24L22.313 332.24L22.313 336.101L28 336.101ZM28.132 328.414C28.132 326.698 26.768 325.433 25.162 325.433C23.534 325.433 22.192 326.687 22.192 328.392C22.192 330.108 23.556 331.362 25.162 331.362C26.79 331.362 28.132 330.119 28.132 328.414ZM27.373 328.392C27.373 329.591 26.383 330.493 25.162 330.493C23.941 330.493 22.94 329.646 22.94 328.414C22.94 327.215 23.941 326.302 25.162 326.302C26.383 326.302 27.373 327.16 27.373 328.392ZM28 323.898L28 323.073L23.666 323.073L26.548 320.994L23.666 318.893L28 318.893L28 318.035L22.313 318.035L22.313 318.849L25.305 320.972L22.313 323.095L22.313 323.898L28 323.898ZM28.11 310.326C28.11 308.687 27.23 307.433 25.921 307.433C24.986 307.433 24.359 308.104 24.018 309.017C23.688 308.302 23.138 307.697 22.247 307.697C21.037 307.697 20.19 308.918 20.19 310.326C20.19 311.734 21.037 312.955 22.225 312.955C23.138 312.955 23.688 312.35 24.018 311.635C24.348 312.559 24.997 313.219 25.91 313.219C27.219 313.219 28.11 311.965 28.11 310.326ZM23.71 310.326C23.71 311.305 23.138 312.086 22.302 312.086C21.51 312.086 20.949 311.327 20.949 310.326C20.949 309.325 21.521 308.566 22.28 308.566C23.138 308.566 23.71 309.347 23.71 310.326ZM27.351 310.326C27.351 311.591 26.691 312.339 25.91 312.339C25.03 312.339 24.425 311.448 24.425 310.326C24.425 309.204 25.03 308.313 25.888 308.313C26.691 308.313 27.351 309.061 27.351 310.326ZM28 301.243L28 300.385L23.061 300.385L23.061 298.35L22.313 298.35L22.313 303.278L23.061 303.278L23.061 301.243L28 301.243ZM28 297.118L28 296.304L23.501 292.916L28 292.916L28 292.069L22.313 292.069L22.313 292.894L26.812 296.271L22.313 296.271L22.313 297.118L28 297.118ZM28 290.905L28 289.915L25.349 288.023L26.614 286.868L28 286.868L28 286.021L26.614 286.021L25.349 284.866L28 282.974L28 281.984L24.744 284.316L22.313 282.105L22.313 283.128L25.613 286.021L22.313 286.021L22.313 286.868L25.613 286.868L22.313 289.761L22.313 290.784L24.744 288.573L28 290.905ZM28 280.822L28 279.975L25.514 279.975L25.514 276.697L28 276.697L28 275.85L22.313 275.85L22.313 276.697L24.766 276.697L24.766 279.975L22.313 279.975L22.313 280.822L28 280.822ZM28 273.881L28 273.034L22.313 273.034L22.313 273.881L28 273.881ZM21.07 273.936L21.07 272.968L20.135 272.968L20.135 273.936L21.07 273.936ZM28 271.068L28 268.219C28 266.965 27.406 266.151 26.449 266.151C25.646 266.151 25.228 266.723 25.041 267.405C24.843 266.932 24.48 266.459 23.732 266.459C22.874 266.459 22.313 267.185 22.313 268.318L22.313 271.068L28 271.068ZM27.274 270.221L25.437 270.221L25.437 268.439C25.437 267.515 25.767 267.02 26.317 267.02C26.911 267.02 27.274 267.515 27.274 268.329L27.274 270.221ZM24.755 270.221L23.039 270.221L23.039 268.45C23.039 267.713 23.369 267.317 23.842 267.317C24.436 267.317 24.755 267.79 24.755 268.472L24.755 270.221ZM29.551 258.916L28.99 258.553C27.923 260.225 26.603 261.105 24.843 261.105C23.083 261.105 21.763 260.225 20.696 258.553L20.135 258.916C21.235 260.874 22.819 261.963 24.843 261.963C26.867 261.963 28.451 260.874 29.551 258.916ZM28 256.996L28 256.149L23.061 256.149L23.061 252.915L28 252.915L28 252.068L22.313 252.068L22.313 256.996L28 256.996ZM28 250.098L28 249.251L22.313 249.251L22.313 250.098L28 250.098ZM21.07 250.153L21.07 249.185L20.135 249.185L20.135 250.153L21.07 250.153ZM29.419 248.121L29.419 247.428L28 247.274L28 242.676L29.419 242.676L29.419 241.972L27.252 241.84L27.252 242.698L22.313 242.698L22.313 246.746L23.303 246.746C25.217 246.746 26.405 247.043 27.252 247.505L27.252 248.121L29.419 248.121ZM27.252 246.603C26.515 246.207 25.261 245.932 23.853 245.932L23.061 245.932L23.061 243.545L27.252 243.545L27.252 246.603ZM28 239.304L28 238.446L23.061 238.446L23.061 236.411L22.313 236.411L22.313 241.339L23.061 241.339L23.061 239.304L28 239.304ZM29.76 235.179L29.76 234.332L26.911 234.332C27.549 233.892 28.121 233.21 28.121 232.154C28.121 230.779 27.021 229.437 25.162 229.437C23.27 229.437 22.192 230.79 22.192 232.154C22.192 233.199 22.775 233.87 23.457 234.332L22.313 234.332L22.313 235.179L29.76 235.179ZM27.362 232.308C27.362 233.364 26.482 234.365 25.162 234.365C23.842 234.365 22.951 233.364 22.951 232.308C22.951 231.23 23.809 230.306 25.151 230.306C26.548 230.306 27.362 231.208 27.362 232.308ZM28 227.874L28 227.06L23.501 223.672L28 223.672L28 222.825L22.313 222.825L22.313 223.65L26.812 227.027L22.313 227.027L22.313 227.874L28 227.874ZM28 220.934L28 220.109L23.666 220.109L26.548 218.03L23.666 215.929L28 215.929L28 215.071L22.313 215.071L22.313 215.885L25.305 218.008L22.313 220.131L22.313 220.934L28 220.934ZM29.793 212.299C29.793 211.441 29.364 210.891 28.187 210.407L22.313 208.02L22.313 208.922L27.054 210.748L22.313 212.816L22.313 213.751L27.978 211.166C28.781 211.507 29.045 211.826 29.045 212.332C29.045 212.695 28.979 212.948 28.836 213.223L29.507 213.509C29.694 213.124 29.793 212.772 29.793 212.299ZM28 206.679L28 203.83C28 202.576 27.406 201.762 26.449 201.762C25.646 201.762 25.228 202.334 25.041 203.016C24.843 202.543 24.48 202.07 23.732 202.07C22.874 202.07 22.313 202.796 22.313 203.929L22.313 206.679L28 206.679ZM27.274 205.832L25.437 205.832L25.437 204.05C25.437 203.126 25.767 202.631 26.317 202.631C26.911 202.631 27.274 203.126 27.274 203.94L27.274 205.832ZM24.755 205.832L23.039 205.832L23.039 204.061C23.039 203.324 23.369 202.928 23.842 202.928C24.436 202.928 24.755 203.401 24.755 204.083L24.755 205.832ZM28.121 198.54C28.121 197.539 27.659 196.89 27.153 196.494L28 196.494L28 195.658L24.524 195.658C23.798 195.658 23.248 195.856 22.852 196.252C22.445 196.659 22.225 197.286 22.225 198.089C22.225 198.925 22.423 199.53 22.709 200.157L23.402 199.904C23.16 199.376 22.995 198.848 22.995 198.177C22.995 197.11 23.523 196.494 24.535 196.494L24.711 196.494C24.568 197 24.469 197.506 24.469 198.232C24.469 199.673 25.107 200.663 26.328 200.663C27.516 200.663 28.121 199.607 28.121 198.54ZM27.439 198.375C27.439 199.145 27.021 199.805 26.306 199.805C25.602 199.805 25.14 199.2 25.14 198.144C25.14 197.451 25.261 196.901 25.382 196.483L25.91 196.483C26.812 196.483 27.439 197.33 27.439 198.375ZM28.088 194.139C28.088 193.061 27.626 192.258 23.193 192.258L23.061 192.258L23.061 189.882L28 189.882L28 189.035L22.313 189.035L22.313 193.061L22.786 193.061C27.054 193.061 27.351 193.633 27.351 194.315C27.351 194.414 27.307 194.612 27.274 194.722L28 194.821C28.044 194.645 28.088 194.326 28.088 194.139ZM28 187.139L28 184.675C28 183.377 27.285 182.53 26.152 182.53C24.953 182.53 24.447 183.542 24.447 184.774L24.447 186.292L22.313 186.292L22.313 187.139L28 187.139ZM27.252 186.292L25.173 186.292L25.173 184.785C25.173 183.916 25.514 183.388 26.174 183.388C26.889 183.388 27.252 183.905 27.252 184.752L27.252 186.292ZM28 181.221L28 180.374L25.514 180.374L25.514 177.096L28 177.096L28 176.249L22.313 176.249L22.313 177.096L24.766 177.096L24.766 180.374L22.313 180.374L22.313 181.221L28 181.221ZM28 174.356L28 173.542L23.501 170.154L28 170.154L28 169.307L22.313 169.307L22.313 170.132L26.812 173.509L22.313 173.509L22.313 174.356L28 174.356ZM28 167.417L28 166.603L23.501 163.215L28 163.215L28 162.368L22.313 162.368L22.313 163.193L26.812 166.57L22.313 166.57L22.313 167.417L28 167.417ZM21.499 164.92C21.499 164.095 20.938 163.501 20.157 163.369L20.036 163.952C20.509 164.084 20.806 164.381 20.806 164.92C20.806 165.459 20.509 165.756 20.036 165.888L20.157 166.471C20.938 166.339 21.499 165.745 21.499 164.92ZM29.419 158.015L29.419 157.322L28 157.168L28 152.57L29.419 152.57L29.419 151.866L27.252 151.734L27.252 152.592L22.313 152.592L22.313 156.64L23.303 156.64C25.217 156.64 26.405 156.937 27.252 157.399L27.252 158.015L29.419 158.015ZM27.252 156.497C26.515 156.101 25.261 155.826 23.853 155.826L23.061 155.826L23.061 153.439L27.252 153.439L27.252 156.497ZM28.132 147.977C28.132 146.261 26.768 144.996 25.162 144.996C23.534 144.996 22.192 146.25 22.192 147.955C22.192 149.671 23.556 150.925 25.162 150.925C26.79 150.925 28.132 149.682 28.132 147.977ZM27.373 147.955C27.373 149.154 26.383 150.056 25.162 150.056C23.941 150.056 22.94 149.209 22.94 147.977C22.94 146.778 23.941 145.865 25.162 145.865C26.383 145.865 27.373 146.723 27.373 147.955ZM28 143.462L28 142.615L23.061 142.615L23.061 139.601L22.313 139.601L22.313 143.462L28 143.462ZM28.088 138.645C28.088 137.567 27.626 136.764 23.193 136.764L23.061 136.764L23.061 134.388L28 134.388L28 133.541L22.313 133.541L22.313 137.567L22.786 137.567C27.054 137.567 27.351 138.139 27.351 138.821C27.351 138.92 27.307 139.118 27.274 139.228L28 139.327C28.044 139.151 28.088 138.832 28.088 138.645ZM28 132.151L28 131.106C27.318 130.578 26.625 130.061 25.932 129.533L25.932 127.96L28 127.96L28 127.113L22.313 127.113L22.313 129.786C22.313 131.139 23.039 131.931 24.084 131.931C25.008 131.931 25.602 131.26 25.8 130.413L28 132.151ZM25.217 129.72C25.217 130.512 24.81 131.084 24.117 131.084C23.468 131.084 23.061 130.589 23.061 129.742L23.061 127.96L25.217 127.96L25.217 129.72ZM29.419 126.057L29.419 125.364L28 125.21L28 120.612L29.419 120.612L29.419 119.908L27.252 119.776L27.252 120.634L22.313 120.634L22.313 124.682L23.303 124.682C25.217 124.682 26.405 124.979 27.252 125.441L27.252 126.057L29.419 126.057ZM27.252 124.539C26.515 124.143 25.261 123.868 23.853 123.868L23.061 123.868L23.061 121.481L27.252 121.481L27.252 124.539ZM29.551 118.582C28.451 116.624 26.867 115.535 24.843 115.535C22.819 115.535 21.235 116.624 20.135 118.582L20.696 118.945C21.763 117.273 23.083 116.393 24.843 116.393C26.603 116.393 27.923 117.273 28.99 118.945L29.551 118.582Z" fill="#505050"/>
<rect x="4" width="436" height="35" fill="#2B9230"/>
<path d="M40.2211 11.896C37.9601 11.896 36.5321 12.695 35.4271 13.851L36.8041 15.517C37.6031 14.701 38.5551 14.208 40.0171 14.208C41.1561 14.208 41.9381 14.701 41.9381 15.534C41.9381 16.435 41.1901 16.911 39.8131 16.911H38.4701V19.087H39.8471C41.2071 19.087 42.2101 19.495 42.2101 20.481C42.2101 21.399 41.3091 21.909 40.2041 21.909C38.6571 21.909 37.3821 21.348 36.4131 20.396L35.0191 22.215C36.2941 23.507 37.8071 24.204 40.3061 24.204C43.0771 24.204 44.8281 22.691 44.8281 20.634C44.8281 19.121 43.8761 18.237 42.6011 17.829C43.6551 17.37 44.5221 16.571 44.5221 15.092C44.5221 13.239 42.7711 11.896 40.2211 11.896ZM47.1111 24H49.7291V19.223H54.5571V24H57.1751V12.1H54.5571V16.809H49.7291V12.1H47.1111V24ZM59.0071 24H61.6761L62.7641 21.331H67.7961L68.8841 24H71.6211L66.5211 12.015H64.1071L59.0071 24ZM63.6991 19.019L65.2801 15.16L66.8611 19.019H63.6991ZM80.3598 24H82.9778V12.1H80.3598V17.234C79.8158 17.659 78.8128 17.999 77.7588 17.999C76.4158 17.999 75.8378 17.166 75.8378 15.687V12.1H73.2198V16.452C73.2198 19.206 74.8518 20.447 77.2148 20.447C78.4218 20.447 79.5608 19.954 80.3598 19.563V24ZM85.8259 24H88.4439V19.223H93.2719V24H95.89V12.1H93.2719V16.809H88.4439V12.1H85.8259V24ZM104.522 24.204C108.194 24.204 110.863 21.433 110.863 18.05C110.863 14.633 108.228 11.896 104.556 11.896C100.884 11.896 98.215 14.667 98.215 18.05C98.215 21.467 100.85 24.204 104.522 24.204ZM104.556 21.79C102.448 21.79 100.952 20.09 100.952 18.05C100.952 15.976 102.414 14.31 104.522 14.31C106.63 14.31 108.126 16.01 108.126 18.05C108.126 20.124 106.664 21.79 104.556 21.79ZM122.515 11.896C120.254 11.896 118.826 12.695 117.721 13.851L119.098 15.517C119.897 14.701 120.849 14.208 122.311 14.208C123.45 14.208 124.232 14.701 124.232 15.534C124.232 16.435 123.484 16.911 122.107 16.911H120.764V19.087H122.141C123.501 19.087 124.504 19.495 124.504 20.481C124.504 21.399 123.603 21.909 122.498 21.909C120.951 21.909 119.676 21.348 118.707 20.396L117.313 22.215C118.588 23.507 120.101 24.204 122.6 24.204C125.371 24.204 127.122 22.691 127.122 20.634C127.122 19.121 126.17 18.237 124.895 17.829C125.949 17.37 126.816 16.571 126.816 15.092C126.816 13.239 125.065 11.896 122.515 11.896ZM129.405 24H132.023V19.223H136.851V24H139.469V12.1H136.851V16.809H132.023V12.1H129.405V24ZM152.572 12.1H150.141L144.905 19.903V12.1H142.321V24H144.786L149.988 16.197V24H152.572V12.1ZM164.82 24V20.838L166.384 19.138L169.75 24H172.878L168.169 17.251L172.708 12.1H169.597L164.82 17.659V12.1H162.219V17.659L157.442 12.1H154.331L158.87 17.251L154.161 24H157.289L160.638 19.138L162.219 20.838V24H164.82ZM179.494 18.39L176.264 12.1H173.34L178.1 21.008C177.624 21.739 177.08 21.96 176.604 21.96C176.145 21.96 175.669 21.858 175.193 21.569L174.173 23.49C174.921 23.915 175.72 24.187 176.74 24.187C178.406 24.187 179.596 23.371 180.633 21.297L185.206 12.1H182.367L179.494 18.39ZM194.103 16.911H189.241C189.666 15.364 190.958 14.242 192.607 14.242C193.797 14.242 194.817 14.701 195.718 15.5L197.163 13.698C196.092 12.695 194.766 11.896 192.624 11.896C188.969 11.896 186.419 14.667 186.419 18.05C186.419 21.501 189.02 24.204 192.522 24.204C194.817 24.204 196.262 23.507 197.486 22.198L195.871 20.447C194.919 21.314 194.001 21.858 192.607 21.858C190.89 21.858 189.615 20.685 189.224 19.087H194.103V16.911ZM204.511 24H207.129V20.362L208.506 18.934L212.195 24H215.34L210.274 17.149L215.119 12.1H211.957L207.129 17.302V12.1H204.511V24ZM217.047 24H219.665V12.1H217.047V24ZM224.22 12.1V14.565C224.22 20.974 223.421 21.875 222.01 21.875C221.84 21.875 221.721 21.858 221.602 21.841L221.432 24C221.755 24.085 222.384 24.153 222.809 24.153C225.529 24.153 226.668 22.368 226.668 15.364V14.463H230.102V24H232.72V12.1H224.22ZM235.572 24H240.553C243.341 24 245.075 22.453 245.075 20.005C245.075 17.676 243.477 16.146 240.723 16.146H238.19V12.1H235.572V24ZM240.502 18.39C241.811 18.39 242.474 18.968 242.474 19.971C242.474 21.076 241.811 21.637 240.519 21.637H238.19V18.39H240.502ZM247.077 24H249.695V20.362L251.072 18.934L254.761 24H257.906L252.84 17.149L257.685 12.1H254.523L249.695 17.302V12.1H247.077V24ZM259.614 24H262.232V12.1H259.614V24ZM270.782 24.204C273.077 24.204 274.437 23.49 275.661 22.181L273.995 20.396C273.06 21.246 272.227 21.79 270.867 21.79C268.827 21.79 267.416 20.09 267.416 18.05C267.416 15.976 268.861 14.31 270.867 14.31C272.227 14.31 273.009 14.803 273.927 15.636L275.491 13.834C274.386 12.746 273.128 11.896 270.884 11.896C267.229 11.896 264.679 14.667 264.679 18.05C264.679 21.501 267.28 24.204 270.782 24.204ZM280.528 24H283.146V14.514H286.767V12.1H276.907V14.514H280.528V24ZM288.78 24H293.761C296.549 24 298.283 22.453 298.283 20.005C298.283 17.676 296.685 16.146 293.931 16.146H291.398V12.1H288.78V24ZM293.71 18.39C295.019 18.39 295.682 18.968 295.682 19.971C295.682 21.076 295.019 21.637 293.727 21.637H291.398V18.39H293.71ZM305.382 24H308V20.43H309.989C312.658 20.43 314.8 19.002 314.8 16.248C314.8 13.783 313.083 12.1 310.244 12.1H305.382V24ZM308 18.101V14.463H310.023C311.332 14.463 312.148 15.092 312.148 16.265C312.148 17.319 311.383 18.101 310.074 18.101H308ZM316.737 24H325.798V21.671H319.338V19.172H324.948V16.843H319.338V14.429H325.713V12.1H316.737V24ZM336.949 26.482H339.125L339.465 21.637H338.054V12.1H335.436V21.637H330.744V12.1H328.126V24H336.949V26.482ZM351.558 12.1H349.127L343.891 19.903V12.1H341.307V24H343.772L348.974 16.197V24H351.558V12.1ZM353.165 26.482H355.528L355.698 24H363.144V26.482H365.337L365.677 21.637H364.249V12.1H355.596V13.494C355.596 17.557 355.171 19.58 354.287 21.637H353.165V26.482ZM361.631 14.463V21.637H357.041C357.721 19.988 358.112 18.186 358.112 15.67V14.463H361.631ZM377.756 12.1H375.325L370.089 19.903V12.1H367.505V24H369.97L375.172 16.197V24H377.756V12.1ZM380.62 24H386.281C388.967 24 390.735 22.912 390.735 20.736C390.735 19.104 389.885 18.305 388.508 17.778C389.358 17.302 390.072 16.554 390.072 15.211C390.072 14.361 389.8 13.698 389.256 13.154C388.576 12.474 387.505 12.1 386.145 12.1H380.62V24ZM383.17 16.911V14.395H385.754C386.859 14.395 387.471 14.837 387.471 15.619C387.471 16.537 386.74 16.911 385.584 16.911H383.17ZM383.17 21.705V19.087H386.196C387.539 19.087 388.134 19.58 388.134 20.379C388.134 21.297 387.437 21.705 386.281 21.705H383.17ZM393.007 24H395.625V12.1H393.007V24ZM398.599 24H404.26C406.946 24 408.714 22.912 408.714 20.736C408.714 19.104 407.864 18.305 406.487 17.778C407.337 17.302 408.051 16.554 408.051 15.211C408.051 14.361 407.779 13.698 407.235 13.154C406.555 12.474 405.484 12.1 404.124 12.1H398.599V24ZM401.149 16.911V14.395H403.733C404.838 14.395 405.45 14.837 405.45 15.619C405.45 16.537 404.719 16.911 403.563 16.911H401.149ZM401.149 21.705V19.087H404.175C405.518 19.087 406.113 19.58 406.113 20.379C406.113 21.297 405.416 21.705 404.26 21.705H401.149Z" fill="white"/>
</svg>
